<svg width="41" height="20" viewBox="0 0 41 20" fill="none" xmlns="http://www.w3.org/2000/svg">
<g filter="url(#filter0_i_566_80)">
<path d="M25.358 8.69899L25.07 10.328H27.185L27.014 11.3H24.899L24.602 13.001H26.987L26.807 14H23.153L24.269 7.70899H27.914L27.743 8.69899H25.358ZM28.069 11.489C28.159 10.985 28.336 10.538 28.6 10.148C28.87 9.75799 29.197 9.45799 29.581 9.24799C29.971 9.03799 30.379 8.93299 30.805 8.93299C31.129 8.93299 31.426 9.00499 31.696 9.14899C31.966 9.28699 32.167 9.47299 32.299 9.70699L32.722 7.33999H33.991L32.812 14H31.543L31.678 13.262C31.48 13.508 31.225 13.706 30.913 13.856C30.607 14.006 30.268 14.081 29.896 14.081C29.53 14.081 29.203 14 28.915 13.838C28.633 13.67 28.411 13.436 28.249 13.136C28.093 12.83 28.015 12.476 28.015 12.074C28.015 11.888 28.033 11.693 28.069 11.489ZM31.984 11.507C32.008 11.351 32.02 11.237 32.02 11.165C32.02 10.811 31.915 10.535 31.705 10.337C31.501 10.139 31.243 10.04 30.931 10.04C30.697 10.04 30.469 10.097 30.247 10.211C30.031 10.325 29.842 10.493 29.68 10.715C29.518 10.931 29.41 11.189 29.356 11.489C29.338 11.603 29.329 11.711 29.329 11.813C29.329 12.173 29.431 12.458 29.635 12.668C29.839 12.872 30.097 12.974 30.409 12.974C30.643 12.974 30.871 12.917 31.093 12.803C31.315 12.683 31.504 12.512 31.66 12.29C31.822 12.068 31.93 11.807 31.984 11.507ZM35.6716 8.41999C35.4736 8.41999 35.3146 8.36299 35.1946 8.24899C35.0746 8.13499 35.0146 7.99099 35.0146 7.81699C35.0146 7.57699 35.1046 7.37299 35.2846 7.20499C35.4706 7.03099 35.6866 6.94399 35.9326 6.94399C36.1246 6.94399 36.2806 7.00099 36.4006 7.11499C36.5206 7.22899 36.5806 7.37299 36.5806 7.54699C36.5806 7.78699 36.4906 7.99399 36.3106 8.16799C36.1306 8.33599 35.9176 8.41999 35.6716 8.41999ZM36.1936 9.01399L35.3116 14H34.0426L34.9246 9.01399H36.1936ZM38.2935 12.461C38.2875 12.497 38.2845 12.545 38.2845 12.605C38.2845 12.725 38.3175 12.812 38.3835 12.866C38.4555 12.914 38.5725 12.938 38.7345 12.938H39.3285L39.1395 14H38.3385C37.4385 14 36.9885 13.625 36.9885 12.875C36.9885 12.731 37.0005 12.59 37.0245 12.452L37.4475 10.049H36.8535L37.0335 9.01399H37.6365L37.8525 7.78099H39.1215L38.9055 9.01399H40.0125L39.8325 10.049H38.7165L38.2935 12.461Z" fill="#477376" fill-opacity="0.7"/>
</g>
<path d="M5.04199 11.1305L8.73951 14.7858L17.3663 6.25725L13.6688 2.60183L5.04199 11.1305ZM14.6713 5.26623C14.8952 5.48764 14.8952 5.84665 14.6713 6.06806L8.61209 12.0581C8.50006 12.1688 8.35333 12.2242 8.2065 12.2242C8.05977 12.2242 7.91299 12.1688 7.80101 12.0581C7.57704 11.8367 7.57704 11.4777 7.80101 11.2562L13.8601 5.26623C14.0841 5.04481 14.4473 5.04481 14.6713 5.26623Z" fill="#477376" fill-opacity="0.7"/>
<path d="M7.80128 12.0581C7.91331 12.1688 8.06004 12.2242 8.20677 12.2242C8.3536 12.2242 8.50033 12.1688 8.61236 12.0581L14.6715 6.06806C14.8955 5.8466 14.8955 5.48759 14.6715 5.26623C14.4476 5.04481 14.0844 5.04481 13.8604 5.26623L7.80128 11.2562C7.57731 11.4777 7.57731 11.8367 7.80128 12.0581Z" fill="#477376"/>
<path d="M19.8558 3.61351C19.6342 2.95806 19.1437 2.24236 18.4369 1.54381C17.7246 0.839543 16.64 0 15.5179 0C15.0146 0 14.5509 0.174968 14.1732 0.50657C14.1535 0.521501 14.1348 0.537803 14.117 0.555332L11.9412 2.70635H0.57354C0.256803 2.70635 0 2.96023 0 3.27336V19.433C0 19.7461 0.256803 20 0.57354 20H16.9195C17.2362 20 17.493 19.7461 17.493 19.433V7.84936C17.493 7.81401 17.4893 7.77961 17.483 7.74607L19.3878 5.86296C19.3916 5.85922 19.3955 5.85554 19.3992 5.85176C19.3993 5.85171 19.3994 5.85161 19.3995 5.85152L19.4368 5.81457C19.4544 5.79714 19.4706 5.77894 19.4854 5.7599C20.007 5.18151 20.1352 4.44053 19.8558 3.61351ZM7.69065 15.3524L3.64399 16.507L4.56285 12.2603L7.69065 15.3524ZM8.7398 14.7858L5.04228 11.1305L13.669 2.60188L17.3666 6.25731L8.7398 14.7858ZM16.3459 18.866H1.14708V3.84036H10.7942L3.81242 10.7426C3.73418 10.8199 3.68022 10.918 3.65708 11.025L2.32198 17.1957C2.27977 17.3906 2.3443 17.5931 2.49179 17.7291C2.59943 17.8282 2.73966 17.8813 2.88295 17.8813C2.91358 17.8813 13.9485 17.8813 13.9485 17.8813C14.2653 17.8813 14.522 17.6274 14.522 17.3143C14.522 17.0012 14.2653 16.7473 13.9485 16.7473H6.93845L8.82 16.2104C8.91315 16.1838 8.99794 16.1344 9.06652 16.0666L16.3459 8.87015V18.866ZM18.6109 5.02511C18.6046 5.03173 18.5986 5.03849 18.5927 5.04534L18.5886 5.04935C18.5866 5.05129 18.5846 5.05323 18.5826 5.05516L18.1777 5.45537L14.4802 1.8L14.8944 1.39053C14.9015 1.38453 14.9087 1.37834 14.9155 1.37186C15.0912 1.20961 15.2827 1.13401 15.5179 1.13401C16.0787 1.13401 16.8471 1.57561 17.6258 2.34569C18.0525 2.76735 19.3843 4.20683 18.6109 5.02511Z" fill="#477376"/>
<defs>
<filter id="filter0_i_566_80" x="23.1528" y="6.94399" width="16.8599" height="11.137" filterUnits="userSpaceOnUse" color-interpolation-filters="sRGB">
<feFlood flood-opacity="0" result="BackgroundImageFix"/>
<feBlend mode="normal" in="SourceGraphic" in2="BackgroundImageFix" result="shape"/>
<feColorMatrix in="SourceAlpha" type="matrix" values="0 0 0 0 0 0 0 0 0 0 0 0 0 0 0 0 0 0 127 0" result="hardAlpha"/>
<feOffset dy="4"/>
<feGaussianBlur stdDeviation="2"/>
<feComposite in2="hardAlpha" operator="arithmetic" k2="-1" k3="1"/>
<feColorMatrix type="matrix" values="0 0 0 0 0 0 0 0 0 0 0 0 0 0 0 0 0 0 0.25 0"/>
<feBlend mode="normal" in2="shape" result="effect1_innerShadow_566_80"/>
</filter>
</defs>
</svg>
