<?xml version="1.0" ?><svg width="32px" height="32px" viewBox="0 0 32 32" xmlns="http://www.w3.org/2000/svg"><defs><style>.cls-1{fill:#005792;}</style></defs><title/><g id="Calendar"><path class="cls-1" d="M27.4,12.92v8.92a3.57,3.57,0,0,1-3,3.51,3,3,0,0,1-.6.06H21.38l2.31-2.29a2.34,2.34,0,0,0,.71-1.69V12.92Z"/><path d="M23.8,26H8.2A4.18,4.18,0,0,1,4,21.84V12.32A4.18,4.18,0,0,1,8.2,8.16H23.8A4.18,4.18,0,0,1,28,12.32v9.52a4.13,4.13,0,0,1-3.5,4.09A2.92,2.92,0,0,1,23.8,26ZM8.2,9.35a3,3,0,0,0-3,3v9.52a3,3,0,0,0,3,3H23.8a1.77,1.77,0,0,0,.45,0,3,3,0,0,0,2.55-2.93V12.32a3,3,0,0,0-3-3Z"/><path d="M9.4,9.35a.59.59,0,0,1-.6-.59V5.59a.6.6,0,0,1,1.2,0V8.76A.59.59,0,0,1,9.4,9.35Z"/><path d="M22.6,9.36a.6.6,0,0,1-.6-.6V5.5a.6.6,0,0,1,1.2,0V8.76A.6.6,0,0,1,22.6,9.36Z"/><path d="M27.4,14.11H4.6a.6.6,0,0,1-.6-.6.59.59,0,0,1,.6-.59H27.4a.59.59,0,0,1,.6.59A.6.6,0,0,1,27.4,14.11Z"/><path d="M10.6,20.05H9.4a1.79,1.79,0,0,1-1.8-1.78V17.08A1.79,1.79,0,0,1,9.4,15.3h1.2a1.79,1.79,0,0,1,1.8,1.78v1.19A1.79,1.79,0,0,1,10.6,20.05ZM9.4,16.49a.59.59,0,0,0-.6.59v1.19a.59.59,0,0,0,.6.59h1.2a.59.59,0,0,0,.6-.59V17.08a.59.59,0,0,0-.6-.59Z"/><path d="M22.6,23.62H21.4a1.79,1.79,0,0,1-1.8-1.78V20.65a1.8,1.8,0,0,1,1.8-1.79h1.2a1.8,1.8,0,0,1,1.8,1.79v1.19A1.79,1.79,0,0,1,22.6,23.62Zm-1.2-3.57a.6.6,0,0,0-.6.6v1.19a.59.59,0,0,0,.6.59h1.2a.59.59,0,0,0,.6-.59V20.65a.6.6,0,0,0-.6-.6Z"/></g></svg>