<svg width="80" height="80" viewBox="0 0 80 80" fill="none" xmlns="http://www.w3.org/2000/svg">
<path d="M40 80C62.0914 80 80 62.0914 80 40C80 17.9086 62.0914 0 40 0C17.9086 0 0 17.9086 0 40C0 62.0914 17.9086 80 40 80Z" fill="#324A5E"/>
<path d="M15.874 18.3307V59.2126H56.7559L15.874 18.3307ZM23.5591 36.8504L38.2992 51.5905H23.5591V36.8504Z" fill="white"/>
<path d="M21.4803 57.0079H20.5355V59.2126H21.4803V57.0079Z" fill="#E6E9EE"/>
<path d="M24 57.0079H23.0551V59.2126H24V57.0079Z" fill="#E6E9EE"/>
<path d="M26.5197 57.0079H25.5748V59.2126H26.5197V57.0079Z" fill="#E6E9EE"/>
<path d="M29.0394 57.0079H28.0945V59.2126H29.0394V57.0079Z" fill="#E6E9EE"/>
<path d="M31.5591 57.0079H30.6142V59.2126H31.5591V57.0079Z" fill="#E6E9EE"/>
<path d="M34.0787 57.0079H33.1339V59.2126H34.0787V57.0079Z" fill="#E6E9EE"/>
<path d="M36.5984 57.0079H35.6536V59.2126H36.5984V57.0079Z" fill="#E6E9EE"/>
<path d="M39.1811 57.0079H38.2362V59.2126H39.1811V57.0079Z" fill="#E6E9EE"/>
<path d="M41.7008 57.0079H40.7559V59.2126H41.7008V57.0079Z" fill="#E6E9EE"/>
<path d="M44.2205 57.0079H43.2756V59.2126H44.2205V57.0079Z" fill="#E6E9EE"/>
<path d="M46.7402 57.0079H45.7953V59.2126H46.7402V57.0079Z" fill="#E6E9EE"/>
<path d="M49.2598 57.0079H48.3149V59.2126H49.2598V57.0079Z" fill="#E6E9EE"/>
<path d="M18.0787 24.315H15.874V25.2598H18.0787V24.315Z" fill="#E6E9EE"/>
<path d="M18.0787 26.8346H15.874V27.7795H18.0787V26.8346Z" fill="#E6E9EE"/>
<path d="M18.0787 29.3543H15.874V30.2992H18.0787V29.3543Z" fill="#E6E9EE"/>
<path d="M18.0787 31.874H15.874V32.8189H18.0787V31.874Z" fill="#E6E9EE"/>
<path d="M18.0787 34.3937H15.874V35.3386H18.0787V34.3937Z" fill="#E6E9EE"/>
<path d="M18.0787 36.9764H15.874V37.9213H18.0787V36.9764Z" fill="#E6E9EE"/>
<path d="M18.0787 39.4961H15.874V40.4409H18.0787V39.4961Z" fill="#E6E9EE"/>
<path d="M18.0787 42.0157H15.874V42.9606H18.0787V42.0157Z" fill="#E6E9EE"/>
<path d="M18.0787 44.5354H15.874V45.4803H18.0787V44.5354Z" fill="#E6E9EE"/>
<path d="M18.0787 47.0551H15.874V48H18.0787V47.0551Z" fill="#E6E9EE"/>
<path d="M18.0787 49.5748H15.874V50.5197H18.0787V49.5748Z" fill="#E6E9EE"/>
<path d="M18.0787 52.0945H15.874V53.0394H18.0787V52.0945Z" fill="#E6E9EE"/>
<path d="M61.0393 39.685H38.4882V40.6299H61.0393V39.685Z" fill="white"/>
<path d="M50.3307 16.378H49.2598V33.2598H50.3307V16.378Z" fill="#E6E9EE"/>
<path d="M54.1732 31.874L64.126 57.7638L62.4882 64.8819L53.7953 42.3307L54.2992 42.2677L52.7874 38.2992L52.2835 38.3622L50.7087 34.2047C50.3937 33.3228 50.5827 32.4409 51.2756 31.685C51.9055 30.8661 53.8583 31.0551 54.1732 31.874Z" fill="#4CDBC4"/>
<path d="M61.3543 61.8583L62.4882 64.8819L63.2441 61.6063L61.3543 61.8583Z" fill="#2C9984"/>
<path d="M45.4173 31.874L35.4645 57.7638L37.1023 64.8819L45.7952 42.2677L45.2913 42.2047L46.8031 38.2362L47.3071 38.2992L48.8819 34.1417C49.1968 33.2598 49.0078 32.378 48.3149 31.622C47.685 30.8661 45.7323 31.0551 45.4173 31.874Z" fill="#4CDBC4"/>
<path d="M38.2362 61.8583L37.1023 64.8819L36.3464 61.6063L38.2362 61.8583Z" fill="#2C9984"/>
<path d="M61.6063 41.3858C61.2913 41.3858 61.0394 41.1339 61.0394 40.8189V39.4331C61.0394 39.1181 61.2913 38.8661 61.6063 38.8661C61.9213 38.8661 62.1732 39.1181 62.1732 39.4331V40.8189C62.1732 41.1339 61.9213 41.3858 61.6063 41.3858Z" fill="#4CDBC4"/>
<path d="M38.9291 41.3858C38.6141 41.3858 38.3622 41.1339 38.3622 40.8189V39.4331C38.3622 39.1181 38.6141 38.8661 38.9291 38.8661C39.2441 38.8661 39.496 39.1181 39.496 39.4331V40.8189C39.496 41.1339 39.2441 41.3858 38.9291 41.3858Z" fill="#4CDBC4"/>
<path d="M49.7637 42.8346C49.3228 42.8346 48.8818 42.4567 48.8818 41.9528V38.2992C48.8818 37.8583 49.2598 37.4173 49.7637 37.4173C50.2047 37.4173 50.6456 37.7953 50.6456 38.2992V41.9528C50.6456 42.4567 50.2677 42.8346 49.7637 42.8346Z" fill="#4CDBC4"/>
<path d="M51.9685 33.2598C51.7795 33.2598 51.6536 33.1969 51.5906 33.0079C51.5276 32.8189 51.5906 32.5669 51.7795 32.4409C53.6063 31.622 54.7402 29.8583 54.7402 27.8425C54.7402 25.0709 52.4724 22.8661 49.7638 22.8661C46.9921 22.8661 44.7874 25.1339 44.7874 27.8425C44.7874 29.7953 45.9843 31.622 47.748 32.4409C47.937 32.5039 48.063 32.7559 47.937 33.0079C47.874 33.1969 47.6221 33.3228 47.3701 33.1969C45.2284 32.252 43.9055 30.1732 43.9055 27.8425C43.9055 24.6299 46.5512 21.9843 49.7638 21.9843C52.9764 21.9843 55.6221 24.6299 55.6221 27.8425C55.6221 30.1732 54.2362 32.252 52.1575 33.1969C52.0945 33.2598 52.0315 33.2598 51.9685 33.2598Z" fill="white"/>
<path d="M49.7638 35.0866C50.8075 35.0866 51.6536 34.2405 51.6536 33.1968C51.6536 32.1532 50.8075 31.3071 49.7638 31.3071C48.7201 31.3071 47.874 32.1532 47.874 33.1968C47.874 34.2405 48.7201 35.0866 49.7638 35.0866Z" fill="white"/>
<path d="M49.7638 34.1417C50.2856 34.1417 50.7087 33.7187 50.7087 33.1969C50.7087 32.675 50.2856 32.252 49.7638 32.252C49.2419 32.252 48.8189 32.675 48.8189 33.1969C48.8189 33.7187 49.2419 34.1417 49.7638 34.1417Z" fill="#E6E9EE"/>
<path d="M50.4567 20.7244H49.1338C48.7559 20.7244 48.5039 20.4094 48.5039 20.0945V15.748C48.5039 15.3701 48.8189 15.1181 49.1338 15.1181H50.4567C50.8346 15.1181 51.0866 15.4331 51.0866 15.748V20.0945C51.0866 20.4724 50.8346 20.7244 50.4567 20.7244Z" fill="white"/>
</svg>
