<svg width="25" height="25" viewBox="0 0 25 25" fill="none" xmlns="http://www.w3.org/2000/svg">
<g clip-path="url(#clip0_312_10)">
<path d="M24.7711 11.5549L15.0552 1.83845C13.646 0.429745 11.354 0.429745 9.94483 1.83845L0.228915 11.5549C-0.0762642 11.86 -0.0762642 12.3547 0.228915 12.6598C0.533605 12.965 1.02873 12.965 1.33342 12.6598L1.95305 12.0402V21.9719C1.95305 23.2124 2.95868 24.2181 4.19917 24.2181H8.10546C8.37514 24.2181 8.59374 23.9995 8.59374 23.7298V16.5031C8.59374 15.1548 9.68682 14.0617 11.0352 14.0617H13.9649C15.3132 14.0617 16.4063 15.1548 16.4063 16.5031V23.7298C16.4063 23.9995 16.6249 24.2181 16.8946 24.2181H20.8009C22.0414 24.2181 23.047 23.2124 23.047 21.9719V12.0402L23.6666 12.6598C23.819 12.8122 24.0192 12.8889 24.2189 12.8889C24.4186 12.8889 24.6188 12.8122 24.7711 12.6598C25.0763 12.3547 25.0763 11.86 24.7711 11.5549Z" fill="white"/>
</g>
<defs>
<clipPath id="clip0_312_10">
<rect width="25" height="25" fill="white"/>
</clipPath>
</defs>
</svg>
