<svg width="27" height="25" viewBox="0 0 27 25" fill="none" xmlns="http://www.w3.org/2000/svg">
<g clip-path="url(#clip0_519_249)">
<path d="M25.9613 11.5549L15.9169 1.83845C14.46 0.429745 12.0905 0.429745 10.6336 1.83845L0.589163 11.5549C0.273664 11.86 0.273664 12.3547 0.589163 12.6598C0.904157 12.965 1.41602 12.965 1.73102 12.6598L2.37161 12.0402V21.9719C2.37161 23.2124 3.41124 24.2181 4.69368 24.2181H8.73206C9.01086 24.2181 9.23686 23.9995 9.23686 23.7298V16.5031C9.23686 15.1548 10.3669 14.0617 11.7608 14.0617H14.7896C16.1836 14.0617 17.3136 15.1548 17.3136 16.5031V23.7298C17.3136 23.9995 17.5396 24.2181 17.8184 24.2181H21.8568C23.1393 24.2181 24.1789 23.2124 24.1789 21.9719V12.0402L24.8195 12.6598C24.977 12.8122 25.1839 12.8889 25.3904 12.8889C25.5969 12.8889 25.8038 12.8122 25.9613 12.6598C26.2768 12.3547 26.2768 11.86 25.9613 11.5549V11.5549Z" fill="#427583"/>
</g>
<defs>
<clipPath id="clip0_519_249">
<rect width="25.8454" height="25" fill="white" transform="translate(0.352539)"/>
</clipPath>
</defs>
</svg>
