<svg width="100" height="35" viewBox="0 0 100 35" fill="none" xmlns="http://www.w3.org/2000/svg">
<rect width="100" height="35" rx="10" fill="#77ACD2" fill-opacity="0.6"/>
<rect x="0.5" y="0.5" width="99" height="34" rx="9.5" stroke="#427583" stroke-opacity="0.3"/>
<g clip-path="url(#clip0_735_707)">
<path d="M19 7V13H23" stroke="#427583" stroke-width="2" stroke-linecap="round" stroke-linejoin="round"/>
<path d="M7.65901 28.75H22.75C23.3467 28.75 23.919 28.5129 24.341 28.091C24.7629 27.669 25 27.0967 25 26.5V12.4375L18.8125 6.25H9.25C8.65326 6.25 8.08097 6.48705 7.65901 6.90901C7.23705 7.33097 7 7.90326 7 8.5V22.5" stroke="#427583" stroke-width="2" stroke-linecap="round" stroke-linejoin="round"/>
<path d="M18.078 16.71L19.31 18.954L16.604 19.9L19.31 20.824L17.99 23.156L15.79 21.22L16.34 24.08H13.766L14.294 21.22L12.116 23.178L10.752 20.802L13.458 19.856L10.774 18.976L12.028 16.71L14.316 18.624L13.744 15.72H16.362L15.79 18.624L18.078 16.71Z" fill="#427583"/>
</g>
<path d="M43.1827 22H41.8147L38.8027 15.772L37.6987 22H36.3307L37.8067 13.648H39.1747L42.1987 19.864L43.2907 13.648H44.6587L43.1827 22ZM49.0111 15.28C49.8351 15.28 50.4911 15.512 50.9791 15.976C51.4751 16.44 51.7231 17.064 51.7231 17.848C51.7231 18.032 51.7031 18.252 51.6631 18.508C51.6311 18.684 51.5751 18.9 51.4951 19.156H46.4431C46.4351 19.212 46.4311 19.296 46.4311 19.408C46.4311 19.88 46.5751 20.256 46.8631 20.536C47.1591 20.816 47.5431 20.956 48.0151 20.956C48.7591 20.956 49.3311 20.648 49.7311 20.032H51.2071C50.9031 20.64 50.4551 21.14 49.8631 21.532C49.2711 21.916 48.5871 22.108 47.8111 22.108C47.2591 22.108 46.7751 22 46.3591 21.784C45.9431 21.568 45.6191 21.26 45.3871 20.86C45.1551 20.452 45.0391 19.976 45.0391 19.432C45.0391 19.2 45.0631 18.952 45.1111 18.688C45.2311 18.008 45.4751 17.412 45.8431 16.9C46.2111 16.38 46.6671 15.98 47.2111 15.7C47.7631 15.42 48.3631 15.28 49.0111 15.28ZM50.2951 18.172C50.3111 18.028 50.3191 17.924 50.3191 17.86C50.3191 17.42 50.1711 17.072 49.8751 16.816C49.5871 16.56 49.2111 16.432 48.7471 16.432C48.2591 16.432 47.8191 16.588 47.4271 16.9C47.0351 17.212 46.7671 17.636 46.6231 18.172H50.2951ZM62.4294 15.388L59.2134 22H57.7734L57.3174 17.116L55.1094 22H53.6694L52.7694 15.388H54.1614L54.6174 20.704L56.9454 15.388H58.3734L58.7934 20.68L61.0854 15.388H62.4294ZM68.2397 17.08L68.0357 18.232H63.1037L63.3077 17.08H68.2397ZM72.3313 22.084C71.8193 22.084 71.3593 22.004 70.9513 21.844C70.5433 21.676 70.2193 21.436 69.9793 21.124C69.7393 20.804 69.6193 20.428 69.6193 19.996C69.6193 19.94 69.6273 19.84 69.6433 19.696H70.9993C70.9673 20.064 71.0753 20.372 71.3233 20.62C71.5713 20.86 71.9273 20.98 72.3913 20.98C72.8873 20.98 73.2753 20.88 73.5553 20.68C73.8353 20.472 73.9753 20.176 73.9753 19.792C73.9753 19.56 73.9033 19.364 73.7593 19.204C73.6233 19.036 73.4473 18.896 73.2313 18.784C73.0233 18.672 72.7313 18.54 72.3553 18.388C71.8593 18.18 71.4633 17.992 71.1673 17.824C70.8713 17.656 70.6153 17.424 70.3993 17.128C70.1913 16.832 70.0873 16.46 70.0873 16.012C70.0873 15.516 70.2153 15.084 70.4713 14.716C70.7273 14.34 71.0793 14.052 71.5273 13.852C71.9833 13.652 72.4953 13.552 73.0633 13.552C73.6313 13.552 74.1193 13.648 74.5273 13.84C74.9433 14.024 75.2553 14.288 75.4633 14.632C75.6793 14.968 75.7753 15.364 75.7513 15.82H74.3113C74.3433 15.492 74.2433 15.22 74.0113 15.004C73.7793 14.78 73.4433 14.668 73.0033 14.668C72.5393 14.668 72.1673 14.776 71.8873 14.992C71.6153 15.2 71.4793 15.484 71.4793 15.844C71.4793 16.068 71.5473 16.264 71.6833 16.432C71.8273 16.592 72.0073 16.732 72.2233 16.852C72.4393 16.964 72.7313 17.1 73.0993 17.26C73.5953 17.484 73.9913 17.684 74.2873 17.86C74.5913 18.036 74.8513 18.276 75.0673 18.58C75.2833 18.876 75.3913 19.244 75.3913 19.684C75.3913 20.148 75.2633 20.564 75.0073 20.932C74.7513 21.292 74.3913 21.576 73.9273 21.784C73.4633 21.984 72.9313 22.084 72.3313 22.084ZM83.3548 16.144C83.2828 16.568 83.1108 16.968 82.8388 17.344C82.5748 17.72 82.2028 18.028 81.7228 18.268C81.2428 18.5 80.6588 18.616 79.9708 18.616H78.4588L77.8588 22H76.4908L77.9668 13.66H80.8468C81.6868 13.66 82.3228 13.848 82.7548 14.224C83.1868 14.592 83.4028 15.076 83.4028 15.676C83.4028 15.78 83.3868 15.936 83.3548 16.144ZM80.1628 17.548C80.6828 17.548 81.0908 17.424 81.3868 17.176C81.6908 16.928 81.8788 16.584 81.9508 16.144C81.9748 16.024 81.9868 15.908 81.9868 15.796C81.9868 15.46 81.8748 15.2 81.6508 15.016C81.4348 14.824 81.1028 14.728 80.6548 14.728H79.1428L78.6508 17.548H80.1628ZM87.0596 17.836L90.0116 22H88.2236L85.6556 18.268L84.9956 22H83.6276L85.1036 13.66H86.4716L85.7996 17.464L89.7116 13.66H91.4276L87.0596 17.836Z" fill="#427583"/>
<defs>
<clipPath id="clip0_735_707">
<rect width="27" height="27" fill="white" transform="translate(2 4)"/>
</clipPath>
</defs>
</svg>
