<svg width="60" height="25" viewBox="0 0 60 25" fill="none" xmlns="http://www.w3.org/2000/svg">
<path d="M13.5 1C6.59773 1 1 6.33868 1 12.924C1 19.5092 6.59773 24.8479 13.5 24.8479C20.4023 24.8479 26 19.5092 26 12.924C26 6.33868 20.4023 1 13.5 1ZM19.1818 14.008H14.6364V18.3439H12.3636V14.008H7.81818V11.84H12.3636V7.50398H14.6364V11.84H19.1818V14.008Z" fill="#477376" fill-opacity="0.7"/>
<g filter="url(#filter0_i_519_211)">
<path d="M33.69 14.67H30.9L30.21 16H28.74L32.49 9.01H34.12L35.39 16H33.91L33.69 14.67ZM33.51 13.58L33.01 10.62L31.47 13.58H33.51ZM36.4682 13.21C36.5682 12.65 36.7649 12.1533 37.0582 11.72C37.3582 11.2867 37.7215 10.9533 38.1482 10.72C38.5815 10.4867 39.0349 10.37 39.5082 10.37C39.8682 10.37 40.1982 10.45 40.4982 10.61C40.7982 10.7633 41.0215 10.97 41.1682 11.23L41.6382 8.6H43.0482L41.7382 16H40.3282L40.4782 15.18C40.2582 15.4533 39.9749 15.6733 39.6282 15.84C39.2882 16.0067 38.9115 16.09 38.4982 16.09C38.0915 16.09 37.7282 16 37.4082 15.82C37.0949 15.6333 36.8482 15.3733 36.6682 15.04C36.4949 14.7 36.4082 14.3067 36.4082 13.86C36.4082 13.6533 36.4282 13.4367 36.4682 13.21ZM40.8182 13.23C40.8449 13.0567 40.8582 12.93 40.8582 12.85C40.8582 12.4567 40.7415 12.15 40.5082 11.93C40.2815 11.71 39.9949 11.6 39.6482 11.6C39.3882 11.6 39.1349 11.6633 38.8882 11.79C38.6482 11.9167 38.4382 12.1033 38.2582 12.35C38.0782 12.59 37.9582 12.8767 37.8982 13.21C37.8782 13.3367 37.8682 13.4567 37.8682 13.57C37.8682 13.97 37.9815 14.2867 38.2082 14.52C38.4349 14.7467 38.7215 14.86 39.0682 14.86C39.3282 14.86 39.5815 14.7967 39.8282 14.67C40.0749 14.5367 40.2849 14.3467 40.4582 14.1C40.6382 13.8533 40.7582 13.5633 40.8182 13.23ZM43.2455 13.21C43.3455 12.65 43.5422 12.1533 43.8355 11.72C44.1355 11.2867 44.4989 10.9533 44.9255 10.72C45.3589 10.4867 45.8122 10.37 46.2855 10.37C46.6455 10.37 46.9755 10.45 47.2755 10.61C47.5755 10.7633 47.7989 10.97 47.9455 11.23L48.4155 8.6H49.8255L48.5155 16H47.1055L47.2555 15.18C47.0355 15.4533 46.7522 15.6733 46.4055 15.84C46.0655 16.0067 45.6889 16.09 45.2755 16.09C44.8689 16.09 44.5055 16 44.1855 15.82C43.8722 15.6333 43.6255 15.3733 43.4455 15.04C43.2722 14.7 43.1855 14.3067 43.1855 13.86C43.1855 13.6533 43.2055 13.4367 43.2455 13.21ZM47.5955 13.23C47.6222 13.0567 47.6355 12.93 47.6355 12.85C47.6355 12.4567 47.5189 12.15 47.2855 11.93C47.0589 11.71 46.7722 11.6 46.4255 11.6C46.1655 11.6 45.9122 11.6633 45.6655 11.79C45.4255 11.9167 45.2155 12.1033 45.0355 12.35C44.8555 12.59 44.7355 12.8767 44.6755 13.21C44.6555 13.3367 44.6455 13.4567 44.6455 13.57C44.6455 13.97 44.7589 14.2867 44.9855 14.52C45.2122 14.7467 45.4989 14.86 45.8455 14.86C46.1055 14.86 46.3589 14.7967 46.6055 14.67C46.8522 14.5367 47.0622 14.3467 47.2355 14.1C47.4155 13.8533 47.5355 13.5633 47.5955 13.23Z" fill="#477376" fill-opacity="0.7"/>
</g>
<rect x="0.5" y="0.5" width="59" height="24" rx="12" stroke="#477376"/>
<defs>
<filter id="filter0_i_519_211" x="28.74" y="8.6" width="21.0854" height="11.49" filterUnits="userSpaceOnUse" color-interpolation-filters="sRGB">
<feFlood flood-opacity="0" result="BackgroundImageFix"/>
<feBlend mode="normal" in="SourceGraphic" in2="BackgroundImageFix" result="shape"/>
<feColorMatrix in="SourceAlpha" type="matrix" values="0 0 0 0 0 0 0 0 0 0 0 0 0 0 0 0 0 0 127 0" result="hardAlpha"/>
<feOffset dy="4"/>
<feGaussianBlur stdDeviation="2"/>
<feComposite in2="hardAlpha" operator="arithmetic" k2="-1" k3="1"/>
<feColorMatrix type="matrix" values="0 0 0 0 0 0 0 0 0 0 0 0 0 0 0 0 0 0 0.25 0"/>
<feBlend mode="normal" in2="shape" result="effect1_innerShadow_519_211"/>
</filter>
</defs>
</svg>
