<svg width="100" height="35" viewBox="0 0 100 35" fill="none" xmlns="http://www.w3.org/2000/svg">
<rect width="100" height="35" rx="10" fill="#D9D9D9"/>
<rect x="0.5" y="0.5" width="99" height="34" rx="9.5" stroke="#427583" stroke-opacity="0.3"/>
<g clip-path="url(#clip0_735_700)">
<path d="M20 7V13H24" stroke="#427583" stroke-width="2" stroke-linecap="round" stroke-linejoin="round"/>
<path d="M8.65901 28.75H23.75C24.3467 28.75 24.919 28.5129 25.341 28.091C25.7629 27.669 26 27.0967 26 26.5V12.4375L19.8125 6.25H10.25C9.65326 6.25 9.08097 6.48705 8.65901 6.90901C8.23705 7.33097 8 7.90326 8 8.5V22.5" stroke="#427583" stroke-width="2" stroke-linecap="round" stroke-linejoin="round"/>
<path d="M19.078 15.71L20.31 17.954L17.604 18.9L20.31 19.824L18.99 22.156L16.79 20.22L17.34 23.08H14.766L15.294 20.22L13.116 22.178L11.752 19.802L14.458 18.856L11.774 17.976L13.028 15.71L15.316 17.624L14.744 14.72H17.362L16.79 17.624L19.078 15.71Z" fill="#427583"/>
</g>
<path d="M43.3389 22H41.9709L38.9589 15.772L37.8549 22H36.4869L37.9629 13.648H39.3309L42.3549 19.864L43.4469 13.648H44.8149L43.3389 22ZM49.1674 15.28C49.9914 15.28 50.6474 15.512 51.1354 15.976C51.6314 16.44 51.8794 17.064 51.8794 17.848C51.8794 18.032 51.8594 18.252 51.8194 18.508C51.7874 18.684 51.7314 18.9 51.6514 19.156H46.5994C46.5914 19.212 46.5874 19.296 46.5874 19.408C46.5874 19.88 46.7314 20.256 47.0194 20.536C47.3154 20.816 47.6994 20.956 48.1714 20.956C48.9154 20.956 49.4874 20.648 49.8874 20.032H51.3634C51.0594 20.64 50.6114 21.14 50.0194 21.532C49.4274 21.916 48.7434 22.108 47.9674 22.108C47.4154 22.108 46.9314 22 46.5154 21.784C46.0994 21.568 45.7754 21.26 45.5434 20.86C45.3114 20.452 45.1954 19.976 45.1954 19.432C45.1954 19.2 45.2194 18.952 45.2674 18.688C45.3874 18.008 45.6314 17.412 45.9994 16.9C46.3674 16.38 46.8234 15.98 47.3674 15.7C47.9194 15.42 48.5194 15.28 49.1674 15.28ZM50.4514 18.172C50.4674 18.028 50.4754 17.924 50.4754 17.86C50.4754 17.42 50.3274 17.072 50.0314 16.816C49.7434 16.56 49.3674 16.432 48.9034 16.432C48.4154 16.432 47.9754 16.588 47.5834 16.9C47.1914 17.212 46.9234 17.636 46.7794 18.172H50.4514ZM62.5856 15.388L59.3696 22H57.9296L57.4736 17.116L55.2656 22H53.8256L52.9256 15.388H54.3176L54.7736 20.704L57.1016 15.388H58.5296L58.9496 20.68L61.2416 15.388H62.5856ZM68.396 17.08L68.192 18.232H63.26L63.464 17.08H68.396ZM72.4875 22.084C71.9755 22.084 71.5155 22.004 71.1075 21.844C70.6995 21.676 70.3755 21.436 70.1355 21.124C69.8955 20.804 69.7755 20.428 69.7755 19.996C69.7755 19.94 69.7835 19.84 69.7995 19.696H71.1555C71.1235 20.064 71.2315 20.372 71.4795 20.62C71.7275 20.86 72.0835 20.98 72.5475 20.98C73.0435 20.98 73.4315 20.88 73.7115 20.68C73.9915 20.472 74.1315 20.176 74.1315 19.792C74.1315 19.56 74.0595 19.364 73.9155 19.204C73.7795 19.036 73.6035 18.896 73.3875 18.784C73.1795 18.672 72.8875 18.54 72.5115 18.388C72.0155 18.18 71.6195 17.992 71.3235 17.824C71.0275 17.656 70.7715 17.424 70.5555 17.128C70.3475 16.832 70.2435 16.46 70.2435 16.012C70.2435 15.516 70.3715 15.084 70.6275 14.716C70.8835 14.34 71.2355 14.052 71.6835 13.852C72.1395 13.652 72.6515 13.552 73.2195 13.552C73.7875 13.552 74.2755 13.648 74.6835 13.84C75.0995 14.024 75.4115 14.288 75.6195 14.632C75.8355 14.968 75.9315 15.364 75.9075 15.82H74.4675C74.4995 15.492 74.3995 15.22 74.1675 15.004C73.9355 14.78 73.5995 14.668 73.1595 14.668C72.6955 14.668 72.3235 14.776 72.0435 14.992C71.7715 15.2 71.6355 15.484 71.6355 15.844C71.6355 16.068 71.7035 16.264 71.8395 16.432C71.9835 16.592 72.1635 16.732 72.3795 16.852C72.5955 16.964 72.8875 17.1 73.2555 17.26C73.7515 17.484 74.1475 17.684 74.4435 17.86C74.7475 18.036 75.0075 18.276 75.2235 18.58C75.4395 18.876 75.5475 19.244 75.5475 19.684C75.5475 20.148 75.4195 20.564 75.1635 20.932C74.9075 21.292 74.5475 21.576 74.0835 21.784C73.6195 21.984 73.0875 22.084 72.4875 22.084ZM83.5111 16.144C83.4391 16.568 83.2671 16.968 82.9951 17.344C82.7311 17.72 82.3591 18.028 81.8791 18.268C81.3991 18.5 80.8151 18.616 80.1271 18.616H78.6151L78.0151 22H76.6471L78.1231 13.66H81.0031C81.8431 13.66 82.4791 13.848 82.9111 14.224C83.3431 14.592 83.5591 15.076 83.5591 15.676C83.5591 15.78 83.5431 15.936 83.5111 16.144ZM80.3191 17.548C80.8391 17.548 81.2471 17.424 81.5431 17.176C81.8471 16.928 82.0351 16.584 82.1071 16.144C82.1311 16.024 82.1431 15.908 82.1431 15.796C82.1431 15.46 82.0311 15.2 81.8071 15.016C81.5911 14.824 81.2591 14.728 80.8111 14.728H79.2991L78.8071 17.548H80.3191ZM84.0718 17.812C84.2158 16.996 84.5318 16.264 85.0198 15.616C85.5158 14.968 86.1198 14.464 86.8318 14.104C87.5518 13.736 88.2998 13.552 89.0758 13.552C89.9638 13.552 90.7158 13.772 91.3318 14.212C91.9558 14.644 92.3518 15.26 92.5198 16.06H90.8758C90.7238 15.644 90.4758 15.332 90.1318 15.124C89.7878 14.908 89.3638 14.8 88.8598 14.8C88.3078 14.8 87.7918 14.924 87.3118 15.172C86.8398 15.42 86.4398 15.772 86.1118 16.228C85.7918 16.684 85.5798 17.212 85.4758 17.812C85.4358 18.076 85.4158 18.3 85.4158 18.484C85.4158 19.204 85.6318 19.776 86.0638 20.2C86.4958 20.624 87.0718 20.836 87.7918 20.836C88.5358 20.836 89.1798 20.628 89.7238 20.212C90.2678 19.788 90.6518 19.216 90.8758 18.496H87.7438L87.9358 17.428H92.5318L92.3398 18.496C92.1398 19.144 91.8038 19.74 91.3318 20.284C90.8598 20.828 90.2958 21.264 89.6398 21.592C88.9918 21.912 88.3038 22.072 87.5758 22.072C86.8878 22.072 86.2718 21.928 85.7278 21.64C85.1838 21.352 84.7598 20.948 84.4558 20.428C84.1518 19.908 83.9998 19.308 83.9998 18.628C83.9998 18.372 84.0238 18.1 84.0718 17.812Z" fill="#427583"/>
<defs>
<clipPath id="clip0_735_700">
<rect width="27" height="27" fill="white" transform="translate(3 4)"/>
</clipPath>
</defs>
</svg>
