<svg width="29" height="23" viewBox="0 0 29 23" fill="none" xmlns="http://www.w3.org/2000/svg">
<path d="M27.0396 13C27.868 13 28.5396 12.3284 28.5396 11.5C28.5396 10.6716 27.868 10 27.0396 10V13ZM0.978891 10.4393C0.393104 11.0251 0.393104 11.9749 0.978891 12.5607L10.5248 22.1066C11.1106 22.6924 12.0604 22.6924 12.6462 22.1066C13.2319 21.5208 13.2319 20.5711 12.6462 19.9853L4.16087 11.5L12.6462 3.01472C13.2319 2.42893 13.2319 1.47918 12.6462 0.893398C12.0604 0.307612 11.1106 0.307612 10.5248 0.893398L0.978891 10.4393ZM27.0396 10L2.03955 10V13L27.0396 13V10Z" fill="#427583"/>
</svg>
