<svg width="70" height="29" viewBox="0 0 70 29" fill="none" xmlns="http://www.w3.org/2000/svg">
<path d="M15 0.175171C6.71727 0.175171 0 6.58159 0 14.4839C0 22.3863 6.71727 28.7927 15 28.7927C23.2827 28.7927 30 22.3863 30 14.4839C30 6.58159 23.2827 0.175171 15 0.175171ZM21.8182 15.7847H16.3636V20.9879H13.6364V15.7847H8.18182V13.1831H13.6364V7.97995H16.3636V13.1831H21.8182V15.7847Z" fill="#477376" fill-opacity="0.7"/>
<g filter="url(#filter0_i_519_211)">
<path d="M41.628 18.2565H38.28L37.452 19.8525H35.688L40.188 11.4645H42.144L43.668 19.8525H41.892L41.628 18.2565ZM41.412 16.9485L40.812 13.3965L38.964 16.9485H41.412ZM44.9618 16.5045C45.0818 15.8325 45.3178 15.2365 45.6698 14.7165C46.0298 14.1965 46.4658 13.7965 46.9778 13.5165C47.4978 13.2365 48.0418 13.0965 48.6098 13.0965C49.0418 13.0965 49.4378 13.1925 49.7978 13.3845C50.1578 13.5685 50.4258 13.8165 50.6018 14.1285L51.1658 10.9725H52.8578L51.2858 19.8525H49.5938L49.7738 18.8685C49.5098 19.1965 49.1698 19.4605 48.7538 19.6605C48.3458 19.8605 47.8938 19.9605 47.3978 19.9605C46.9098 19.9605 46.4738 19.8525 46.0898 19.6365C45.7138 19.4125 45.4178 19.1005 45.2018 18.7005C44.9938 18.2925 44.8898 17.8205 44.8898 17.2845C44.8898 17.0365 44.9138 16.7765 44.9618 16.5045ZM50.1818 16.5285C50.2138 16.3205 50.2298 16.1685 50.2298 16.0725C50.2298 15.6005 50.0898 15.2325 49.8098 14.9685C49.5378 14.7045 49.1938 14.5725 48.7778 14.5725C48.4658 14.5725 48.1618 14.6485 47.8658 14.8005C47.5778 14.9525 47.3258 15.1765 47.1098 15.4725C46.8938 15.7605 46.7498 16.1045 46.6778 16.5045C46.6538 16.6565 46.6418 16.8005 46.6418 16.9365C46.6418 17.4165 46.7778 17.7965 47.0498 18.0765C47.3218 18.3485 47.6658 18.4845 48.0818 18.4845C48.3938 18.4845 48.6978 18.4085 48.9938 18.2565C49.2898 18.0965 49.5418 17.8685 49.7498 17.5725C49.9658 17.2765 50.1098 16.9285 50.1818 16.5285ZM53.0947 16.5045C53.2147 15.8325 53.4507 15.2365 53.8027 14.7165C54.1627 14.1965 54.5987 13.7965 55.1107 13.5165C55.6307 13.2365 56.1747 13.0965 56.7427 13.0965C57.1747 13.0965 57.5707 13.1925 57.9307 13.3845C58.2907 13.5685 58.5587 13.8165 58.7347 14.1285L59.2987 10.9725H60.9907L59.4187 19.8525H57.7267L57.9067 18.8685C57.6427 19.1965 57.3027 19.4605 56.8867 19.6605C56.4787 19.8605 56.0267 19.9605 55.5307 19.9605C55.0427 19.9605 54.6067 19.8525 54.2227 19.6365C53.8467 19.4125 53.5507 19.1005 53.3347 18.7005C53.1267 18.2925 53.0227 17.8205 53.0227 17.2845C53.0227 17.0365 53.0467 16.7765 53.0947 16.5045ZM58.3147 16.5285C58.3467 16.3205 58.3627 16.1685 58.3627 16.0725C58.3627 15.6005 58.2227 15.2325 57.9427 14.9685C57.6707 14.7045 57.3267 14.5725 56.9107 14.5725C56.5987 14.5725 56.2947 14.6485 55.9987 14.8005C55.7107 14.9525 55.4587 15.1765 55.2427 15.4725C55.0267 15.7605 54.8827 16.1045 54.8107 16.5045C54.7867 16.6565 54.7747 16.8005 54.7747 16.9365C54.7747 17.4165 54.9107 17.7965 55.1827 18.0765C55.4547 18.3485 55.7987 18.4845 56.2147 18.4845C56.5267 18.4845 56.8307 18.4085 57.1267 18.2565C57.4227 18.0965 57.6747 17.8685 57.8827 17.5725C58.0987 17.2765 58.2427 16.9285 58.3147 16.5285Z" fill="#477376" fill-opacity="0.7"/>
</g>
<rect x="0.5" y="0.675171" width="69" height="27.6175" rx="13.8088" stroke="#477376"/>
<defs>
<filter id="filter0_i_519_211" x="35.688" y="10.9725" width="25.3027" height="12.988" filterUnits="userSpaceOnUse" color-interpolation-filters="sRGB">
<feFlood flood-opacity="0" result="BackgroundImageFix"/>
<feBlend mode="normal" in="SourceGraphic" in2="BackgroundImageFix" result="shape"/>
<feColorMatrix in="SourceAlpha" type="matrix" values="0 0 0 0 0 0 0 0 0 0 0 0 0 0 0 0 0 0 127 0" result="hardAlpha"/>
<feOffset dy="4"/>
<feGaussianBlur stdDeviation="2"/>
<feComposite in2="hardAlpha" operator="arithmetic" k2="-1" k3="1"/>
<feColorMatrix type="matrix" values="0 0 0 0 0 0 0 0 0 0 0 0 0 0 0 0 0 0 0.25 0"/>
<feBlend mode="normal" in2="shape" result="effect1_innerShadow_519_211"/>
</filter>
</defs>
</svg>
