<svg width="31" height="29" viewBox="0 0 31 29" fill="none" xmlns="http://www.w3.org/2000/svg">
<path d="M17.125 7.5H6.4C4.85986 7.5 4.08978 7.5 3.50153 7.79974C2.98407 8.06338 2.56338 8.48407 2.29974 9.00153C2 9.58978 2 10.3599 2 11.9V16.85C2 18.3901 2 19.1603 2.29974 19.7485C2.56338 20.2659 2.98407 20.6867 3.50153 20.9502C4.08978 21.25 4.85985 21.25 6.4 21.25H17.125M22.625 7.5H25.1C26.6402 7.5 27.4103 7.5 27.9985 7.79974C28.5159 8.06338 28.9367 8.48407 29.2003 9.00153C29.5 9.58978 29.5 10.3599 29.5 11.9V16.85C29.5 18.3901 29.5 19.1603 29.2003 19.7485C28.9367 20.2659 28.5159 20.6867 27.9985 20.9502C27.4103 21.25 26.6402 21.25 25.1 21.25H22.625M22.625 26.75V2M26.0625 2.00001L19.1875 2M26.0625 26.75H19.1875" stroke="#427583" stroke-width="3" stroke-linecap="round" stroke-linejoin="round"/>
</svg>
