<svg width="271" height="291" viewBox="0 0 271 291" fill="none" xmlns="http://www.w3.org/2000/svg">
<path d="M77.7844 101.5V126.067M77.7844 147V126.067M77.7844 126.067L115.557 140.733V118.733V162" stroke="#427583" stroke-width="12" stroke-linecap="round" stroke-linejoin="round"/>
<path d="M142.904 118.733L178.192 104V126L140.419 140.733V122V162" stroke="#427583" stroke-width="12" stroke-linecap="round" stroke-linejoin="round"/>
<path d="M123.724 104.792L68.3441 75.398C65.0139 73.6305 61 76.0443 61 79.8145V150.388C61 152.293 62.0825 154.033 63.7916 154.874L123.856 184.444C125.212 185.112 126.797 185.13 128.168 184.495L192.104 154.843C193.87 154.024 195 152.254 195 150.307V79.5902C195 75.8733 191.088 73.4558 187.764 75.118L128.304 104.848C126.858 105.571 125.152 105.55 123.724 104.792Z" stroke="#427583" stroke-width="8"/>
<rect width="78.5499" height="82.8702" rx="10" transform="matrix(0.88403 -0.46743 0.875155 0.483843 55.0177 55.9015)" fill="#427583"/>
<path d="M101.07 44.4313C100.047 44.0883 98.9317 43.8101 97.7238 43.5968C96.542 43.3882 95.3727 43.2629 94.2157 43.2211C94.7114 44.5543 95.3778 45.6874 96.215 46.6205C97.0522 47.5537 98.1388 48.5308 99.4749 49.5521C100.842 50.5517 101.929 51.4477 102.737 52.2403C103.571 53.0375 104.425 54.2579 105.3 55.9016C106.174 57.5453 106.616 59.1805 106.627 60.8071C105.079 62.2127 103.158 63.3495 100.866 64.2174C98.5688 65.1115 96.2933 65.5763 94.0395 65.6116C92.5921 65.2206 90.8018 64.4712 88.6686 63.3634C86.557 62.2865 84.9367 61.6483 83.8075 61.4489C82.6783 61.2495 81.4865 61.4046 80.2321 61.9143C80.9413 60.6585 82.0127 59.1146 83.4464 57.2826L83.7616 57.3383C85.4422 57.6351 86.9715 58.1759 88.3493 58.9608C89.7534 59.7503 91.0131 60.5143 92.1283 61.2528C93.2698 61.996 94.2082 62.4325 94.9435 62.5623C95.7051 62.6968 96.2658 62.7416 96.6257 62.6969C96.9318 60.9637 96.6462 59.4374 95.7689 58.1181C95.2978 57.4121 94.88 56.8645 94.5155 56.4751C94.1819 56.0642 93.6459 55.4957 92.9076 54.7696L92.3214 54.1786C90.7536 52.6291 89.5033 51.122 88.5704 49.6575C87.6422 48.1667 87.0801 46.4427 86.8841 44.4855C88.0537 42.7694 89.166 41.3004 90.2212 40.0786C92.8226 39.9151 95.4626 40.0699 98.1412 40.5429L99.8744 40.8489C102.133 41.2477 104.664 42.0196 107.467 43.1646C106.741 44.8235 105.953 46.2956 105.103 47.5808C102.87 47.3488 101.149 47.1262 99.9409 46.9129C100.284 46.3506 100.66 45.5234 101.07 44.4313ZM135.388 49.9226C135.513 49.2136 135.515 48.5911 135.393 48.055L146.619 50.0374C147.12 52.7253 147.271 55.9338 147.073 59.6628C146.901 63.3965 146.536 66.92 145.978 70.2335L136.878 68.6267C137.529 63.8674 137.559 59.1744 136.968 54.5478C133.895 58.6087 131.856 62.9469 130.852 67.5625L123.131 66.1992C123.357 60.9316 122.851 56.1305 121.613 51.7958C119.606 54.8804 118.349 57.854 117.844 60.7163C117.57 62.2657 117.495 63.7687 117.616 65.2255L108.045 63.5353C108.051 62.4261 108.209 60.9918 108.52 59.2324C108.835 57.4467 109.413 55.7073 110.254 54.0144C112.216 53.7921 114.161 53.2015 116.091 52.2424C118.047 51.2879 119.564 50.1342 120.642 48.7811C120.159 47.5313 119.627 46.3271 119.046 45.1685L131.493 47.3664C132.014 50.2475 132.243 53.3208 132.181 56.5864C133.925 54.376 134.994 52.1548 135.388 49.9226ZM160.23 67.6729C159.966 69.1697 159.742 70.8226 159.558 72.6315L150.892 71.1012C150.553 66.7357 150.798 62.2027 151.628 57.502C152.05 55.1123 152.57 53.0108 153.188 51.1973L174.538 54.9672C174.775 58.0691 174.572 61.6753 173.927 65.7858C169.735 66.8328 165.215 67.1992 160.37 66.8851L160.23 67.6729ZM160.889 64.1741C162.607 64.2607 164.086 64.0887 165.326 63.6578C165.398 60.8 164.704 58.1321 163.246 55.6542C162.367 58.1798 161.581 61.0197 160.889 64.1741Z" fill="white"/>
<path d="M210.975 53.8111V79.5V160.239C210.975 162.157 209.878 163.905 208.152 164.74L129.168 202.928C127.77 203.604 126.137 203.592 124.749 202.895L48.7573 164.759C47.067 163.91 46 162.181 46 160.29V53.7575C46 51.9734 46.9506 50.3246 48.4945 49.4306L124.491 5.42419C126.016 4.54108 127.894 4.52605 129.433 5.38463L208.411 49.4446C209.994 50.3277 210.975 51.9984 210.975 53.8111Z" stroke="#427583" stroke-width="8" stroke-linecap="round"/>
<path d="M1.90008 244.02C3.03341 245.153 4.16675 245.72 5.30008 245.72C5.88674 245.72 6.35341 245.587 6.70008 245.32C7.06008 245.04 7.24008 244.687 7.24008 244.26C7.24008 243.82 7.02674 243.453 6.60008 243.16C6.17341 242.853 5.65341 242.587 5.04008 242.36C4.44008 242.133 3.84008 241.88 3.24008 241.6C2.64008 241.307 2.12674 240.893 1.70008 240.36C1.27341 239.827 1.06008 239.18 1.06008 238.42C1.06008 237.22 1.56008 236.187 2.56008 235.32C3.56008 234.44 4.74675 234 6.12008 234C6.74674 234 7.35341 234.067 7.94008 234.2C8.52674 234.333 9.09341 234.527 9.64008 234.78L8.28008 237.7C7.90675 237.407 7.39341 237.14 6.74008 236.9C6.10008 236.647 5.53341 236.52 5.04008 236.52C4.56008 236.52 4.16675 236.64 3.86008 236.88C3.56675 237.107 3.42008 237.413 3.42008 237.8C3.42008 238.187 3.63341 238.533 4.06008 238.84C4.48674 239.133 5.00008 239.393 5.60008 239.62C6.21341 239.847 6.82008 240.1 7.42008 240.38C8.03341 240.647 8.55341 241.047 8.98008 241.58C9.40675 242.113 9.62008 242.76 9.62008 243.52C9.62008 244.773 9.12008 245.873 8.12008 246.82C7.12008 247.753 5.95341 248.22 4.62008 248.22C3.62008 248.22 2.73341 247.98 1.96008 247.5C1.28008 247.087 0.800078 246.72 0.520078 246.4L0.340078 246.18L1.90008 244.02ZM14.5787 234.1L14.2987 242.8L14.5387 248H11.7387L11.9787 243.14L11.7387 234.6L14.5787 234.1ZM17.9938 244.02C19.1272 245.153 20.2605 245.72 21.3938 245.72C21.9805 245.72 22.4472 245.587 22.7938 245.32C23.1538 245.04 23.3338 244.687 23.3338 244.26C23.3338 243.82 23.1205 243.453 22.6938 243.16C22.2672 242.853 21.7472 242.587 21.1338 242.36C20.5338 242.133 19.9338 241.88 19.3338 241.6C18.7338 241.307 18.2205 240.893 17.7938 240.36C17.3672 239.827 17.1538 239.18 17.1538 238.42C17.1538 237.22 17.6538 236.187 18.6538 235.32C19.6538 234.44 20.8405 234 22.2138 234C22.8405 234 23.4472 234.067 24.0338 234.2C24.6205 234.333 25.1872 234.527 25.7338 234.78L24.3738 237.7C24.0005 237.407 23.4872 237.14 22.8338 236.9C22.1938 236.647 21.6272 236.52 21.1338 236.52C20.6538 236.52 20.2605 236.64 19.9538 236.88C19.6605 237.107 19.5138 237.413 19.5138 237.8C19.5138 238.187 19.7272 238.533 20.1538 238.84C20.5805 239.133 21.0938 239.393 21.6938 239.62C22.3072 239.847 22.9138 240.1 23.5138 240.38C24.1272 240.647 24.6472 241.047 25.0738 241.58C25.5005 242.113 25.7138 242.76 25.7138 243.52C25.7138 244.773 25.2138 245.873 24.2138 246.82C23.2138 247.753 22.0472 248.22 20.7138 248.22C19.7138 248.22 18.8272 247.98 18.0538 247.5C17.3738 247.087 16.8938 246.72 16.6138 246.4L16.4338 246.18L17.9938 244.02ZM26.2324 236.5L26.4524 234.2H35.9524L35.7324 236.5L32.2524 236.2L32.1724 242.8L32.4124 248H29.6124L29.8524 243.14L29.7724 236.22L26.2324 236.5ZM37.559 248L37.799 243.14L37.559 234.2H45.059L44.839 236.34H40.339L40.219 239.88H44.219L43.999 242H40.139L40.119 242.8L40.259 245.88H45.099L44.879 248H37.559ZM53.2027 241.76H53.4027L56.3227 234.16L59.0827 234.24L59.1627 242.84L59.5427 248H56.8427L56.9427 242.8L56.7227 237.54L54.3227 244.16L51.8627 244.28L49.6227 237.54L49.4427 242.8L49.5827 248H47.1027L47.3827 243.14L47.5027 234.56L50.6827 234.06L53.2027 241.76ZM71.2301 241.76H71.4301L74.3501 234.16L77.1101 234.24L77.1901 242.84L77.5701 248H74.8701L74.9701 242.8L74.7501 237.54L72.3501 244.16L69.8901 244.28L67.6501 237.54L67.4701 242.8L67.6101 248H65.1301L65.4101 243.14L65.5301 234.56L68.7101 234.06L71.2301 241.76ZM85.9715 234C87.5448 234 88.8382 234.6 89.8515 235.8C90.8782 237 91.3915 238.527 91.3915 240.38C91.3915 242.727 90.7848 244.62 89.5715 246.06C88.3582 247.5 86.7648 248.22 84.7915 248.22C83.2582 248.22 81.9715 247.607 80.9315 246.38C79.8915 245.14 79.3715 243.613 79.3715 241.8C79.3715 239.533 79.9915 237.667 81.2315 236.2C82.4715 234.733 84.0515 234 85.9715 234ZM88.6715 241.5C88.6715 238.127 87.5648 236.44 85.3515 236.44C84.3382 236.44 83.5382 236.82 82.9515 237.58C82.3782 238.327 82.0915 239.453 82.0915 240.96C82.0915 242.453 82.3982 243.687 83.0115 244.66C83.6382 245.62 84.4582 246.1 85.4715 246.1C86.4982 246.1 87.2848 245.693 87.8315 244.88C88.3915 244.053 88.6715 242.927 88.6715 241.5ZM104.174 234.16L103.914 242.8L104.134 247.56L101.774 248.06L95.8141 238.42V242.8L96.0941 248H93.5941L93.8341 243.14L93.5941 234.26L95.9941 234.14L101.934 243.92L101.734 234.46L104.174 234.16ZM110.223 234.1L109.943 242.8L110.183 248H107.383L107.623 243.14L107.383 234.6L110.223 234.1ZM111.818 236.5L112.038 234.2H121.538L121.318 236.5L117.838 236.2L117.758 242.8L117.998 248H115.198L115.438 243.14L115.358 236.22L111.818 236.5ZM128.745 234C130.318 234 131.612 234.6 132.625 235.8C133.652 237 134.165 238.527 134.165 240.38C134.165 242.727 133.558 244.62 132.345 246.06C131.132 247.5 129.538 248.22 127.565 248.22C126.032 248.22 124.745 247.607 123.705 246.38C122.665 245.14 122.145 243.613 122.145 241.8C122.145 239.533 122.765 237.667 124.005 236.2C125.245 234.733 126.825 234 128.745 234ZM131.445 241.5C131.445 238.127 130.338 236.44 128.125 236.44C127.112 236.44 126.312 236.82 125.725 237.58C125.152 238.327 124.865 239.453 124.865 240.96C124.865 242.453 125.172 243.687 125.785 244.66C126.412 245.62 127.232 246.1 128.245 246.1C129.272 246.1 130.058 245.693 130.605 244.88C131.165 244.053 131.445 242.927 131.445 241.5ZM139.948 242.68H138.808V242.8L139.048 248H136.368L136.608 243.14L136.368 234.2H140.708C141.988 234.2 143.008 234.547 143.768 235.24C144.528 235.933 144.908 236.853 144.908 238C144.908 238.867 144.681 239.66 144.228 240.38C143.788 241.087 143.188 241.647 142.428 242.06L145.908 246.98L143.488 248.22L140.368 242.66C140.274 242.673 140.134 242.68 139.948 242.68ZM139.988 236.22H139.008L138.868 240.74H140.228C140.894 240.74 141.408 240.52 141.768 240.08C142.141 239.64 142.328 239.013 142.328 238.2C142.328 236.88 141.548 236.22 139.988 236.22ZM150.79 234.1L150.51 242.8L150.75 248H147.95L148.19 243.14L147.95 234.6L150.79 234.1ZM164.565 234.16L164.305 242.8L164.525 247.56L162.165 248.06L156.205 238.42V242.8L156.485 248H153.985L154.225 243.14L153.985 234.26L156.385 234.14L162.325 243.92L162.125 234.46L164.565 234.16ZM172.594 248.22C170.847 248.22 169.44 247.633 168.374 246.46C167.307 245.287 166.774 243.733 166.774 241.8C166.774 239.6 167.44 237.747 168.774 236.24C170.107 234.733 171.747 233.98 173.694 233.98C174.467 233.98 175.18 234.053 175.834 234.2C176.5 234.333 176.974 234.473 177.254 234.62L177.654 234.84L176.494 237.62C176.094 237.353 175.554 237.107 174.874 236.88C174.194 236.64 173.594 236.52 173.074 236.52C171.994 236.52 171.127 236.9 170.474 237.66C169.82 238.42 169.494 239.427 169.494 240.68C169.494 242.373 169.8 243.693 170.414 244.64C171.04 245.587 171.907 246.06 173.014 246.06C173.734 246.06 174.414 245.96 175.054 245.76V242.66H172.474L172.674 240.64H177.474L177.294 243.9L177.434 247.36C175.474 247.933 173.86 248.22 172.594 248.22ZM187.915 234.2C189.195 234.2 190.215 234.567 190.975 235.3C191.735 236.02 192.115 237.013 192.115 238.28C192.115 239.547 191.635 240.633 190.675 241.54C189.715 242.433 188.541 242.88 187.155 242.88H186.015L186.255 248H183.575L183.815 243.14L183.575 234.2H187.915ZM187.195 236.22H186.215L186.075 240.94H187.435C188.101 240.94 188.615 240.72 188.975 240.28C189.348 239.84 189.535 239.213 189.535 238.4C189.535 236.947 188.755 236.22 187.195 236.22ZM197.33 242.68H196.19V242.8L196.43 248H193.75L193.99 243.14L193.75 234.2H198.09C199.37 234.2 200.39 234.547 201.15 235.24C201.91 235.933 202.29 236.853 202.29 238C202.29 238.867 202.064 239.66 201.61 240.38C201.17 241.087 200.57 241.647 199.81 242.06L203.29 246.98L200.87 248.22L197.75 242.66C197.657 242.673 197.517 242.68 197.33 242.68ZM197.37 236.22H196.39L196.25 240.74H197.61C198.277 240.74 198.79 240.52 199.15 240.08C199.524 239.64 199.71 239.013 199.71 238.2C199.71 236.88 198.93 236.22 197.37 236.22ZM210.932 234C212.506 234 213.799 234.6 214.812 235.8C215.839 237 216.352 238.527 216.352 240.38C216.352 242.727 215.746 244.62 214.532 246.06C213.319 247.5 211.726 248.22 209.752 248.22C208.219 248.22 206.932 247.607 205.892 246.38C204.852 245.14 204.332 243.613 204.332 241.8C204.332 239.533 204.952 237.667 206.192 236.2C207.432 234.733 209.012 234 210.932 234ZM213.632 241.5C213.632 238.127 212.526 236.44 210.312 236.44C209.299 236.44 208.499 236.82 207.912 237.58C207.339 238.327 207.052 239.453 207.052 240.96C207.052 242.453 207.359 243.687 207.972 244.66C208.599 245.62 209.419 246.1 210.432 246.1C211.459 246.1 212.246 245.693 212.792 244.88C213.352 244.053 213.632 242.927 213.632 241.5ZM222.655 248.22C221.708 248.22 220.342 248.147 218.555 248L218.795 243.14L218.555 234.2H223.895C225.695 234.2 227.102 234.74 228.115 235.82C229.128 236.9 229.635 238.4 229.635 240.32C229.635 242.747 229.008 244.673 227.755 246.1C226.502 247.513 224.802 248.22 222.655 248.22ZM223.175 236.36C222.295 236.36 221.675 236.367 221.315 236.38L221.115 242.8L221.255 246.04C222.375 246.12 223.128 246.16 223.515 246.16C224.568 246.16 225.395 245.733 225.995 244.88C226.608 244.027 226.915 242.787 226.915 241.16C226.915 239.533 226.615 238.327 226.015 237.54C225.428 236.753 224.482 236.36 223.175 236.36ZM236.056 248.22C234.856 248.22 233.843 247.853 233.016 247.12C232.203 246.387 231.796 245.48 231.796 244.4L231.596 234.6L234.476 234.1L234.156 242.86C234.156 243.793 234.37 244.52 234.796 245.04C235.236 245.56 235.91 245.82 236.816 245.82C237.723 245.82 238.376 245.567 238.776 245.06C239.176 244.553 239.376 243.68 239.376 242.44L239.136 234.6L241.936 234.1L241.716 242.9C241.716 244.473 241.19 245.753 240.136 246.74C239.083 247.727 237.723 248.22 236.056 248.22ZM247.704 234.1L247.484 240.62L252.584 234.14L254.624 235.5L250.024 240.84L254.904 246.62L252.344 248.22L247.464 241.32L247.424 242.8L247.664 248H244.864L245.104 243.14L244.864 234.6L247.704 234.1ZM256.646 244.02C257.78 245.153 258.913 245.72 260.046 245.72C260.633 245.72 261.1 245.587 261.446 245.32C261.806 245.04 261.986 244.687 261.986 244.26C261.986 243.82 261.773 243.453 261.346 243.16C260.92 242.853 260.4 242.587 259.786 242.36C259.186 242.133 258.586 241.88 257.986 241.6C257.386 241.307 256.873 240.893 256.446 240.36C256.02 239.827 255.806 239.18 255.806 238.42C255.806 237.22 256.306 236.187 257.306 235.32C258.306 234.44 259.493 234 260.866 234C261.493 234 262.1 234.067 262.686 234.2C263.273 234.333 263.84 234.527 264.386 234.78L263.026 237.7C262.653 237.407 262.14 237.14 261.486 236.9C260.846 236.647 260.28 236.52 259.786 236.52C259.306 236.52 258.913 236.64 258.606 236.88C258.313 237.107 258.166 237.413 258.166 237.8C258.166 238.187 258.38 238.533 258.806 238.84C259.233 239.133 259.746 239.393 260.346 239.62C260.96 239.847 261.566 240.1 262.166 240.38C262.78 240.647 263.3 241.047 263.726 241.58C264.153 242.113 264.366 242.76 264.366 243.52C264.366 244.773 263.866 245.873 262.866 246.82C261.866 247.753 260.7 248.22 259.366 248.22C258.366 248.22 257.48 247.98 256.706 247.5C256.026 247.087 255.546 246.72 255.266 246.4L255.086 246.18L256.646 244.02ZM269.325 234.1L269.045 242.8L269.285 248H266.485L266.725 243.14L266.485 234.6L269.325 234.1Z" fill="#427583"/>
<path d="M49.7243 265.75C51.3243 265.75 52.5993 266.208 53.5493 267.125C54.4993 268.025 54.9743 269.267 54.9743 270.85C54.9743 272.433 54.3743 273.792 53.1743 274.925C51.9743 276.042 50.5076 276.6 48.7743 276.6H47.3493L47.6493 283H44.2993L44.5993 276.925L44.2993 265.75H49.7243ZM48.8243 268.275H47.5993L47.4243 274.175H49.1243C49.9576 274.175 50.5993 273.9 51.0493 273.35C51.516 272.8 51.7493 272.017 51.7493 271C51.7493 269.183 50.7743 268.275 48.8243 268.275ZM55.019 268.625L55.294 265.75H67.169L66.894 268.625L62.544 268.25L62.444 276.5L62.744 283H59.244L59.544 276.925L59.444 268.275L55.019 268.625ZM67.9272 281.325C67.9272 280.792 68.1189 280.325 68.5022 279.925C68.9022 279.508 69.3772 279.3 69.9272 279.3C71.0106 279.3 71.5522 279.85 71.5522 280.95C71.5522 281.583 71.3522 282.108 70.9522 282.525C70.5689 282.942 70.1106 283.15 69.5772 283.15C69.0606 283.15 68.6522 282.983 68.3522 282.65C68.0689 282.3 67.9272 281.858 67.9272 281.325ZM91.4116 265.625L91.0616 276.5L91.3616 283H87.8616L88.1616 276.925L88.1116 275.6H81.3866L81.3616 276.5L81.6616 283H78.1616L78.4616 276.925L78.1616 266.25L81.7116 265.625L81.4616 272.95H88.0366L87.8616 266.25L91.4116 265.625ZM105.522 283.125L104.297 278.25H98.3224L96.9974 283L93.7974 282.75L95.9974 276.675L99.3474 265.925L103.822 265.6L107.047 276.3L109.122 282.575L105.522 283.125ZM101.572 268.85H101.247L99.0974 275.6H103.547L101.572 268.85ZM111.762 278.025C113.178 279.442 114.595 280.15 116.012 280.15C116.745 280.15 117.328 279.983 117.762 279.65C118.212 279.3 118.437 278.858 118.437 278.325C118.437 277.775 118.17 277.317 117.637 276.95C117.103 276.567 116.453 276.233 115.687 275.95C114.937 275.667 114.187 275.35 113.437 275C112.687 274.633 112.045 274.117 111.512 273.45C110.978 272.783 110.712 271.975 110.712 271.025C110.712 269.525 111.337 268.233 112.587 267.15C113.837 266.05 115.32 265.5 117.037 265.5C117.82 265.5 118.578 265.583 119.312 265.75C120.045 265.917 120.753 266.158 121.437 266.475L119.737 270.125C119.27 269.758 118.628 269.425 117.812 269.125C117.012 268.808 116.303 268.65 115.687 268.65C115.087 268.65 114.595 268.8 114.212 269.1C113.845 269.383 113.662 269.767 113.662 270.25C113.662 270.733 113.928 271.167 114.462 271.55C114.995 271.917 115.637 272.242 116.387 272.525C117.153 272.808 117.912 273.125 118.662 273.475C119.428 273.808 120.078 274.308 120.612 274.975C121.145 275.642 121.412 276.45 121.412 277.4C121.412 278.967 120.787 280.342 119.537 281.525C118.287 282.692 116.828 283.275 115.162 283.275C113.912 283.275 112.803 282.975 111.837 282.375C110.987 281.858 110.387 281.4 110.037 281L109.812 280.725L111.762 278.025ZM137.285 265.7L136.96 276.5L137.235 282.45L134.285 283.075L126.835 271.025V276.5L127.185 283H124.06L124.36 276.925L124.06 265.825L127.06 265.675L134.485 277.9L134.235 266.075L137.285 265.7ZM151.396 283.125L150.171 278.25H144.196L142.871 283L139.671 282.75L141.871 276.675L145.221 265.925L149.696 265.6L152.921 276.3L154.996 282.575L151.396 283.125ZM147.446 268.85H147.121L144.971 275.6H149.421L147.446 268.85ZM166.643 265.75C168.243 265.75 169.518 266.208 170.468 267.125C171.418 268.025 171.893 269.267 171.893 270.85C171.893 272.433 171.293 273.792 170.093 274.925C168.893 276.042 167.427 276.6 165.693 276.6H164.268L164.568 283H161.218L161.518 276.925L161.218 265.75H166.643ZM165.743 268.275H164.518L164.343 274.175H166.043C166.877 274.175 167.518 273.9 167.968 273.35C168.435 272.8 168.668 272.017 168.668 271C168.668 269.183 167.693 268.275 165.743 268.275ZM178.413 276.35H176.988V276.5L177.288 283H173.938L174.238 276.925L173.938 265.75H179.363C180.963 265.75 182.238 266.183 183.188 267.05C184.138 267.917 184.613 269.067 184.613 270.5C184.613 271.583 184.33 272.575 183.763 273.475C183.213 274.358 182.463 275.058 181.513 275.575L185.863 281.725L182.838 283.275L178.938 276.325C178.821 276.342 178.646 276.35 178.413 276.35ZM178.463 268.275H177.238L177.063 273.925H178.763C179.596 273.925 180.238 273.65 180.688 273.1C181.155 272.55 181.388 271.767 181.388 270.75C181.388 269.1 180.413 268.275 178.463 268.275ZM191.966 265.625L191.616 276.5L191.916 283H188.416L188.716 276.925L188.416 266.25L191.966 265.625ZM203.209 275.2H203.459L207.109 265.7L210.559 265.8L210.659 276.55L211.134 283H207.759L207.884 276.5L207.609 269.925L204.609 278.2L201.534 278.35L198.734 269.925L198.509 276.5L198.684 283H195.584L195.934 276.925L196.084 266.2L200.059 265.575L203.209 275.2ZM224.736 283.125L223.511 278.25H217.536L216.211 283L213.011 282.75L215.211 276.675L218.561 265.925L223.036 265.6L226.261 276.3L228.336 282.575L224.736 283.125ZM220.786 268.85H220.461L218.311 275.6H222.761L220.786 268.85Z" fill="#427583"/>
</svg>
