<svg width="150" height="150" viewBox="0 0 150 150" fill="none" xmlns="http://www.w3.org/2000/svg">
<path d="M138.944 117.629V130.26H127.892H88.4205V117.629H112.072H138.944Z" fill="#F4661E"/>
<path d="M55.264 93.3779C59.8428 95.7779 65.1792 97.1039 71.0527 97.1039C76.9261 97.1039 82.2626 95.746 86.8414 93.3779V103.42C86.8414 103.42 80.3366 111.314 71.0527 111.314C61.7688 111.314 55.264 103.42 55.264 103.42V93.3779Z" fill="#FEDAAB"/>
<path d="M101.051 112.893C105.314 114.251 108.945 115.735 112.072 117.345V117.629H88.4202V130.26H127.892V130.828C131.018 135.881 131.05 139.733 131.05 139.733C131.05 139.733 131.05 143.207 131.05 147.627H11.0561C11.0561 143.206 11.0561 139.733 11.0561 139.733C11.0561 139.733 11.3403 122.46 41.0547 112.893C41.0547 112.893 51.8228 107.272 55.2646 103.419C55.2646 103.419 61.7694 111.313 71.0533 111.313C80.3372 111.313 86.842 103.419 86.842 103.419C90.2832 107.272 101.051 112.893 101.051 112.893Z" fill="#4CBD91"/>
<path d="M86.8414 93.3782C82.2626 95.7465 76.9261 97.1041 71.0527 97.1041C65.1792 97.1041 59.8428 95.7779 55.264 93.3782C45.1278 88.1047 38.4651 77.7474 36.7597 65.4005C31.8654 64.7375 26.8445 60.0954 26.8445 56.0539C26.8445 51.6962 31.0758 49.7383 36.3176 49.7383V43.4228C36.3176 43.4228 48.9484 43.4228 63.1583 29.2129C63.1583 29.2129 83.6835 41.8437 105.788 41.8437V49.7377C111.03 49.7377 115.261 51.6954 115.261 56.0533C115.261 60.0954 110.24 64.7369 105.346 65.3999C103.641 77.7474 96.9775 88.1047 86.8414 93.3782Z" fill="#FEDAAB"/>
<path d="M63.1586 29.2129C48.9487 43.4228 36.318 43.4228 36.318 43.4228V41.844C36.318 41.844 34.6759 2.37256 71.053 2.37256C107.367 2.37256 105.788 41.844 105.788 41.844C83.6838 41.8437 63.1586 29.2129 63.1586 29.2129Z" fill="#A67C52"/>
<path d="M141.316 115.257H113.147L113.158 115.236C109.867 113.541 106.205 112.055 101.97 110.696C99.1517 109.212 92.2083 105.279 89.2138 102.453V94.7791C98.7881 89.2751 105.34 79.426 107.438 67.3777C112.89 65.8211 117.633 60.7311 117.633 56.0535C117.633 51.3019 114.064 48.1454 108.16 47.4918V41.8876C108.206 40.5461 108.618 22.0676 97.0291 10.0058C90.6503 3.36651 81.9104 0 71.053 0C60.1668 0 51.4111 3.37296 45.0297 10.0251C33.4632 22.0829 33.8965 40.5305 33.9455 41.8888V47.4918C28.0418 48.1454 24.4723 51.3016 24.4723 56.0535C24.4723 60.7311 29.2166 65.8208 34.6673 67.3777C36.7656 79.4284 43.3196 89.2789 52.8918 94.7794V102.452C49.8985 105.277 42.949 109.214 40.1318 110.698C9.35186 120.685 8.69648 138.921 8.68389 139.695L8.68359 150H133.422V139.714C133.421 139.565 133.371 136.668 131.541 132.632H141.316V115.257H141.316V115.257ZM57.6364 97.0528C61.779 98.6603 66.2746 99.4766 71.0527 99.4766C75.7932 99.4766 80.2882 98.6562 84.4689 97.0399V102.506C82.8485 104.2 77.7165 108.942 71.0527 108.942C64.4321 108.942 59.2645 104.191 57.6364 102.501V97.0528ZM48.4738 13.2894C53.9245 7.61955 61.5209 4.74493 71.053 4.74493C80.5575 4.74493 88.1395 7.61398 93.5876 13.2721C101.705 21.7026 103.142 34.266 103.379 39.4181C83.1461 38.5615 64.5936 27.3103 64.4023 27.1925L62.8065 26.2108L61.4814 27.5356C51.7577 37.2593 42.8025 39.9894 38.6839 40.7541C38.7323 36.8848 39.5397 22.583 48.4738 13.2894ZM39.1099 65.0764L38.8635 63.2919L37.0785 63.0499C33.6458 62.5847 29.2169 59.1086 29.2169 56.0538C29.2169 52.3952 34.6521 52.1107 36.3176 52.1107H38.6901V45.5761C43.036 44.9268 52.7828 42.3549 63.5231 32.1689C68.6491 35.0444 85.1504 43.4772 103.416 44.1692L103.415 52.1105H105.787C107.453 52.1105 112.888 52.3946 112.888 56.0535C112.888 59.1083 108.459 62.5844 105.027 63.0496L103.242 63.2916L102.995 65.0761C101.367 76.8693 95.0794 86.4177 85.7509 91.2711C81.3113 93.5677 76.3662 94.7316 71.0524 94.7316C65.6802 94.7316 60.739 93.5691 56.3585 91.2731C47.026 86.4177 40.7388 76.8696 39.1099 65.0764ZM128.677 139.764V145.255H13.4285V139.777C13.4438 139.499 13.7142 135.693 17.0857 130.932C23.0221 122.55 33.7919 117.724 41.7821 115.151L41.9737 115.089L42.1524 114.995C43.1347 114.483 50.766 110.453 55.184 106.753C57.9156 109.324 63.6417 113.686 71.053 113.686C78.4639 113.686 84.1903 109.324 86.9219 106.753C91.3399 110.453 98.9715 114.483 99.9535 114.995L100.136 115.091L100.331 115.153C100.439 115.187 100.541 115.222 100.647 115.256H86.048V132.632H126.204C128.5 136.586 128.669 139.571 128.677 139.764ZM136.571 127.888H90.7927V120.002H136.572V127.888H136.571Z" fill="#231F20"/>
</svg>
