<svg width="173" height="208" viewBox="0 0 173 208" fill="none" xmlns="http://www.w3.org/2000/svg">
<path d="M35.7844 101.5V126.067M35.7844 147V126.067M35.7844 126.067L73.5569 140.733V118.733V162" stroke="#427583" stroke-width="12" stroke-linecap="round" stroke-linejoin="round"/>
<path d="M100.904 118.733L136.192 104V126L98.4192 140.733V122V162" stroke="#427583" stroke-width="12" stroke-linecap="round" stroke-linejoin="round"/>
<path d="M81.7243 104.792L26.3441 75.398C23.0139 73.6305 19 76.0443 19 79.8145V150.388C19 152.293 20.0825 154.033 21.7916 154.874L81.8559 184.444C83.2119 185.112 84.7969 185.13 86.168 184.495L150.104 154.843C151.87 154.024 153 152.254 153 150.307V79.5902C153 75.8733 149.088 73.4558 145.764 75.118L86.3044 104.848C84.8585 105.571 83.1522 105.55 81.7243 104.792Z" stroke="#427583" stroke-width="8"/>
<rect width="78.5499" height="82.8702" rx="10" transform="matrix(0.88403 -0.46743 0.875155 0.483843 13.0177 55.9015)" fill="#427583"/>
<path d="M59.0696 44.4313C58.047 44.0883 56.9317 43.8101 55.7238 43.5968C54.542 43.3882 53.3727 43.2629 52.2157 43.2211C52.7114 44.5543 53.3778 45.6874 54.215 46.6205C55.0522 47.5537 56.1388 48.5308 57.4749 49.5521C58.8419 50.5517 59.9293 51.4477 60.7371 52.2403C61.5712 53.0375 62.4253 54.2579 63.2995 55.9016C64.1737 57.5453 64.6161 59.1805 64.6267 60.8071C63.0787 62.2127 61.1585 63.3495 58.8659 64.2174C56.5688 65.1115 54.2933 65.5763 52.0395 65.6116C50.5921 65.2206 48.8018 64.4712 46.6686 63.3634C44.557 62.2865 42.9367 61.6483 41.8075 61.4489C40.6783 61.2495 39.4865 61.4046 38.2321 61.9143C38.9413 60.6585 40.0127 59.1146 41.4464 57.2826L41.7616 57.3383C43.4422 57.6351 44.9715 58.1759 46.3493 58.9608C47.7534 59.7503 49.0131 60.5143 50.1283 61.2528C51.2698 61.996 52.2082 62.4325 52.9435 62.5623C53.7051 62.6968 54.2658 62.7416 54.6257 62.6969C54.9318 60.9637 54.6462 59.4374 53.7689 58.1181C53.2978 57.4121 52.88 56.8645 52.5155 56.4751C52.1819 56.0642 51.6459 55.4957 50.9076 54.7696L50.3214 54.1786C48.7536 52.6291 47.5033 51.122 46.5704 49.6575C45.6422 48.1667 45.0801 46.4427 44.8841 44.4855C46.0537 42.7694 47.166 41.3004 48.2212 40.0786C50.8226 39.9151 53.4626 40.0699 56.1412 40.5429L57.8744 40.8489C60.1328 41.2477 62.6638 42.0196 65.4674 43.1646C64.7412 44.8235 63.9532 46.2956 63.1034 47.5808C60.8697 47.3488 59.1489 47.1262 57.9409 46.9129C58.2839 46.3506 58.6601 45.5234 59.0696 44.4313ZM93.3882 49.9226C93.5134 49.2136 93.515 48.5911 93.393 48.055L104.619 50.0374C105.12 52.7253 105.271 55.9338 105.073 59.6628C104.901 63.3965 104.536 66.92 103.978 70.2335L94.8785 68.6267C95.5293 63.8674 95.5592 59.1744 94.968 54.5478C91.8951 58.6087 89.8563 62.9469 88.8517 67.5625L81.1311 66.1992C81.3572 60.9316 80.8511 56.1305 79.6126 51.7958C77.6057 54.8804 76.3495 57.854 75.844 60.7163C75.5704 62.2657 75.4946 63.7687 75.6165 65.2255L66.0445 63.5353C66.0508 62.4261 66.2093 60.9918 66.52 59.2324C66.8353 57.4467 67.4133 55.7073 68.2538 54.0144C70.2156 53.7921 72.1613 53.2015 74.0908 52.2424C76.0466 51.2879 77.5637 50.1342 78.6421 48.7811C78.1587 47.5313 77.6266 46.3271 77.0459 45.1685L89.4934 47.3664C90.0136 50.2475 90.2427 53.3208 90.1806 56.5864C91.9249 54.376 92.9941 52.1548 93.3882 49.9226ZM118.23 67.6729C117.966 69.1697 117.742 70.8226 117.558 72.6315L108.892 71.1012C108.553 66.7357 108.798 62.2027 109.628 57.502C110.05 55.1123 110.57 53.0108 111.188 51.1973L132.538 54.9672C132.775 58.0691 132.572 61.6753 131.927 65.7858C127.735 66.8328 123.215 67.1992 118.37 66.8851L118.23 67.6729ZM118.889 64.1741C120.607 64.2607 122.086 64.0887 123.326 63.6578C123.398 60.8 122.704 58.1321 121.246 55.6542C120.367 58.1798 119.581 61.0197 118.889 64.1741Z" fill="white"/>
<path d="M168.975 53.8111V79.5V160.239C168.975 162.157 167.878 163.905 166.152 164.74L87.1682 202.928C85.77 203.604 84.1371 203.592 82.7491 202.895L6.75732 164.759C5.06704 163.91 4 162.181 4 160.29V53.7575C4 51.9734 4.95058 50.3246 6.49446 49.4306L82.4911 5.42419C84.0162 4.54108 85.8936 4.52605 87.4326 5.38463L166.411 49.4446C167.994 50.3277 168.975 51.9984 168.975 53.8111Z" stroke="#427583" stroke-width="8" stroke-linecap="round"/>
</svg>
