<svg width="120" height="50" viewBox="0 0 120 50" fill="none" xmlns="http://www.w3.org/2000/svg">
<path d="M5.12958 0.75H119.25V46.5493H5.12958V0.75Z" stroke="#427583" stroke-width="1.5"/>
<path d="M9.63501 7.00732H73.5766V40.292H9.63501V7.00732Z" fill="#427583"/>
<path d="M20.3844 34.435C19.5044 34.435 18.6744 34.38 17.8944 34.27C17.1144 34.16 16.3994 34.02 15.7494 33.85C15.0994 33.67 14.5244 33.485 14.0244 33.295L13.5594 28.375C14.3594 28.715 15.3044 29.04 16.3944 29.35C17.4844 29.65 18.6294 29.8 19.8294 29.8C20.8994 29.8 21.6444 29.69 22.0644 29.47C22.4944 29.25 22.7094 28.895 22.7094 28.405V28.345C22.7094 28.015 22.6044 27.745 22.3944 27.535C22.1944 27.315 21.8544 27.11 21.3744 26.92C20.8944 26.72 20.2494 26.49 19.4394 26.23C18.1294 25.81 17.0244 25.355 16.1244 24.865C15.2244 24.365 14.5444 23.745 14.0844 23.005C13.6244 22.255 13.3944 21.3 13.3944 20.14V19.915C13.3944 18.125 14.0094 16.76 15.2394 15.82C16.4794 14.87 18.2844 14.395 20.6544 14.395C22.0444 14.395 23.2444 14.51 24.2544 14.74C25.2744 14.97 26.1544 15.25 26.8944 15.58L27.3594 20.17C26.5594 19.81 25.6694 19.515 24.6894 19.285C23.7094 19.045 22.6794 18.925 21.5994 18.925C20.8894 18.925 20.3344 18.975 19.9344 19.075C19.5444 19.165 19.2744 19.305 19.1244 19.495C18.9744 19.675 18.8994 19.9 18.8994 20.17V20.215C18.8994 20.495 18.9894 20.745 19.1694 20.965C19.3594 21.175 19.6994 21.39 20.1894 21.61C20.6794 21.83 21.3794 22.085 22.2894 22.375C23.5894 22.785 24.6794 23.215 25.5594 23.665C26.4494 24.115 27.1194 24.695 27.5694 25.405C28.0194 26.105 28.2444 27.055 28.2444 28.255V28.465C28.2444 30.455 27.5994 31.95 26.3094 32.95C25.0194 33.94 23.0444 34.435 20.3844 34.435ZM30.387 34L30.942 14.83H38.352L41.097 25.51H41.292L44.037 14.83H51.432L51.987 34H46.737L46.647 28.315L46.542 20.965H46.317L43.527 31.735H38.847L36.042 20.965H35.802L35.712 28.33L35.637 34H30.387ZM58.6163 28.855V24.49H62.8463C63.7363 24.49 64.3713 24.31 64.7513 23.95C65.1413 23.59 65.3363 23.015 65.3363 22.225V21.46C65.3363 20.67 65.1413 20.095 64.7513 19.735C64.3713 19.365 63.7363 19.18 62.8463 19.18H58.6163V14.83H63.3263C65.8663 14.83 67.7313 15.385 68.9213 16.495C70.1113 17.595 70.7063 19.195 70.7063 21.295V22.405C70.7063 24.515 70.1113 26.12 68.9213 27.22C67.7313 28.31 65.8763 28.855 63.3563 28.855H58.6163ZM54.9563 34V14.83H60.2663V25.705L60.2963 28.18V34H54.9563Z" fill="white"/>
<path d="M83.933 34H78.488V14.83H83.933V34ZM95.303 34H89.858V14.83H95.303V34ZM81.623 21.955H91.883V26.485H81.623V21.955ZM102.07 28.855V24.49H106.3C107.19 24.49 107.825 24.31 108.205 23.95C108.595 23.59 108.79 23.015 108.79 22.225V21.46C108.79 20.67 108.595 20.095 108.205 19.735C107.825 19.365 107.19 19.18 106.3 19.18H102.07V14.83H106.78C109.32 14.83 111.185 15.385 112.375 16.495C113.565 17.595 114.16 19.195 114.16 21.295V22.405C114.16 24.515 113.565 26.12 112.375 27.22C111.185 28.31 109.33 28.855 106.81 28.855H102.07ZM98.4099 34V14.83H103.72V25.705L103.75 28.18V34H98.4099Z" fill="#427583"/>
</svg>
