<svg width="50" height="50" viewBox="0 0 50 50" fill="none" xmlns="http://www.w3.org/2000/svg">
<g clip-path="url(#clip0_604_1531)">
<path d="M27.9475 16.4204L16.4204 27.9475L1.43517 12.9622C-0.478308 11.0487 -0.478308 7.95933 1.43517 6.04585L6.04591 1.43511C7.95939 -0.478369 11.0487 -0.478369 12.9622 1.43511L27.9475 16.4204Z" fill="#FF6243"/>
<path d="M22.184 22.1839L16.4204 27.9475L1.43517 12.9622C-0.478308 11.0487 -0.478308 7.95933 1.43517 6.04585L3.74054 3.74048L22.184 22.1839Z" fill="#FF3501"/>
<path d="M21.0312 23.3368L6.81456 9.12C6.17794 8.48337 6.17794 7.45125 6.81456 6.81462C7.45118 6.178 8.48331 6.178 9.11993 6.81462L23.3367 21.0314L21.0312 23.3368Z" fill="#6E6057"/>
<path d="M6.81456 6.81445C6.17794 7.45107 6.17794 8.4832 6.81456 9.11982L21.0314 23.3366L22.1841 22.1839L6.81456 6.81445Z" fill="#615349"/>
<path d="M49.5185 44.9077L44.9077 49.5186C44.3774 50.0489 43.5629 50.1564 42.9251 49.7645L31.4595 42.9097C30.9677 42.6177 30.668 42.0873 30.668 41.5187V37.5841L25.0043 31.9204C24.3665 31.2826 24.3665 30.2528 25.0043 29.6151L29.6151 25.0042C30.2529 24.3664 31.2828 24.3664 31.9205 25.0042L37.5842 30.6679H41.5187C42.0875 30.6679 42.6177 30.9676 42.9098 31.4594L49.7645 42.925C50.1564 43.5628 50.0488 44.3775 49.5185 44.9077Z" fill="#77ACD2"/>
<path d="M47.2132 47.2131L44.9078 49.5185C44.3776 50.0487 43.563 50.1563 42.9252 49.7644L31.4596 42.9096C30.9678 42.6176 30.6681 42.0872 30.6681 41.5186V37.584L25.0044 31.9203C24.3666 31.2825 24.3666 30.2526 25.0044 29.6149L27.3098 27.3096L47.2132 47.2131Z" fill="#678DEE"/>
<path d="M49.2361 8.65885C48.8442 7.5446 47.3995 7.20651 46.5465 8.05934L39.8838 14.722L36.0338 13.9613L35.2731 10.1113L41.9357 3.4486C42.7811 2.60329 42.4583 1.15856 41.3362 0.758951C36.6101 -0.924057 31.2769 0.274771 27.7342 3.81745C24.4451 7.10651 23.1772 11.9555 24.3683 16.405L10.313 30.4605C10.1439 30.4451 9.96719 30.4375 9.78272 30.4375C4.38799 30.4374 0 34.8255 0 40.2201C0.00771484 42.9174 1.09893 45.3612 2.86641 47.1287C4.63389 48.8962 7.07764 49.9874 9.775 49.9951C15.1697 49.9951 19.5577 45.6072 19.5577 40.2125C19.5577 40.0279 19.5501 39.8512 19.5347 39.6822L33.59 25.6268C38.0472 26.8257 42.8886 25.55 46.1776 22.2609C49.7203 18.7181 50.9191 13.3849 49.2361 8.65885ZM9.775 43.4785C8.87588 43.4861 8.06133 43.1174 7.46963 42.5256C6.87783 41.9338 6.50908 41.1192 6.5167 40.2202C6.5167 38.4219 7.98447 36.9542 9.78272 36.9542C10.6742 36.9542 11.4964 37.3153 12.0881 37.9071C12.6799 38.4989 13.041 39.321 13.041 40.2125C13.041 42.0107 11.5732 43.4784 9.775 43.4785Z" fill="#77ACD2" style="mix-blend-mode:darken"/>
<path d="M49.2361 8.65871C48.8443 7.54446 47.3995 7.20637 46.5465 8.0592L39.8838 14.7219L36.0338 13.9612L12.0882 37.9069C12.68 38.4987 13.0411 39.3207 13.0411 40.2122C13.0411 42.0105 11.5734 43.4781 9.77511 43.4782C8.87599 43.4859 8.06144 43.1171 7.46974 42.5253L2.86652 47.1285C4.634 48.896 7.07775 49.9872 9.77511 49.9949C15.1698 49.9949 19.5578 45.6071 19.5578 40.2123C19.5578 40.0278 19.5502 39.8511 19.5348 39.6821L33.5902 25.6267C38.0473 26.8255 42.8887 25.5498 46.1777 22.2608C49.7203 18.718 50.9192 13.3848 49.2361 8.65871Z" fill="#678DEE"/>
</g>
<defs>
<clipPath id="clip0_604_1531">
<rect width="50" height="50" fill="white"/>
</clipPath>
</defs>
</svg>
