<?xml version="1.0" encoding="iso-8859-1"?>
<!-- Generator: Adobe Illustrator 19.0.0, SVG Export Plug-In . SVG Version: 6.00 Build 0)  -->
<svg version="1.1" id="Layer_1" xmlns="http://www.w3.org/2000/svg" xmlns:xlink="http://www.w3.org/1999/xlink" x="0px" y="0px"
	 viewBox="0 0 512.001 512.001" style="enable-background:new 0 0 512.001 512.001;" xml:space="preserve">
<path style="fill:#D8F4F2;" d="M502.856,188.038c-11.36-41.407-33.296-80.519-65.829-113.052
	c-99.976-99.976-262.07-99.976-362.045,0s-99.976,262.07,0,362.045c33.648,33.648,74.335,55.953,117.319,66.952L502.856,188.038z"/>
<path style="fill:#B1EAE5;" d="M307.165,204.848l-110-110l-35.418,66.9L94.9,197.114l110,110l-81.137,128.331l68.539,68.539
	c84.732,21.681,178.398-0.623,244.726-66.952c67.444-67.444,89.379-163.153,65.829-248.993l-89.44-89.44L307.165,204.848z"/>
<g>
	<path style="fill:#9CA5A3;" d="M256.006,256.007l-45.301-68.037l-64.745-42.008l-35.878,9.435L77.437,122.9
		c-8.475,25.221-2.677,54.177,17.411,74.265c18.77,18.77,45.285,25.058,69.257,18.888l65.928,65.928L256.006,256.007z"/>
	<path style="fill:#9CA5A3;" d="M166.931,121.297l-44.014-43.866c19.457-6.531,41.131-4.57,59.247,5.895L166.931,121.297z"/>
</g>
<path style="fill:#B0B7B6;" d="M216.051,164.109c6.173-23.972-0.116-50.49-18.886-69.26c-4.587-4.587-9.635-8.43-15.001-11.522
	l-26.602,26.602l-9.481,36.004l-0.119,0.029l110.045,110.045l25.971-25.971L216.051,164.109z"/>
<g>
	<path style="fill:#9CA5A3;" d="M256.006,256.007l45.301,68.037l64.745,42.008l35.88-9.435l32.645,32.497
		c8.475-25.221,2.677-54.177-17.411-74.265c-18.77-18.77-45.285-25.058-69.257-18.888l-65.928-65.928L256.006,256.007z"/>
	<path style="fill:#9CA5A3;" d="M345.082,390.716l44.014,43.866c-19.457,6.531-41.131,4.57-59.247-5.895L345.082,390.716z"/>
</g>
<path style="fill:#889391;" d="M295.961,347.905c-6.173,23.972,0.116,50.49,18.886,69.26c4.587,4.587,9.635,8.43,15.001,11.522
	l26.602-26.602l9.481-36.004l0.119-0.029L256.005,256.007l-25.971,25.971L295.961,347.905z"/>
<polygon style="fill:#C3C9C8;" points="304.408,226.496 168.641,362.263 151.31,329.192 287.076,193.425 "/>
<polygon style="fill:#B0B7B6;" points="318.559,224.907 174.922,368.544 167.067,344.948 294.963,217.052 "/>
<path style="fill:#F63341;" d="M249.708,230.823L413.415,98.597c19.559,19.559,19.559,51.261,0,70.819L300.851,281.965
	L249.708,230.823z"/>
<path style="fill:#F85C67;" d="M413.415,98.597L265.449,246.564l-35.41-35.41L342.597,98.597
	C362.154,79.039,393.858,79.039,413.415,98.597z"/>
<path style="fill:#C92B31;" d="M397.676,114.338L249.708,246.564l27.532,27.532l120.433-120.42
	C408.52,142.829,408.52,125.183,397.676,114.338z"/>
<path style="fill:#F63341;" d="M358.338,114.338L237.911,234.765l19.669,19.669l140.096-140.096
	C386.83,103.494,369.183,103.493,358.338,114.338z"/>
<polygon style="fill:#9D2422;" points="256.005,256.008 299.281,299.284 315.022,283.543 271.746,240.267 256.005,240.267 "/>
<rect x="211.607" y="215.356" transform="matrix(0.7071 0.7071 -0.7071 0.7071 231.0967 -104.944)" style="fill:#C92B31;" width="61.24" height="22.261"/>
<polygon style="fill:#9CA5A3;" points="167.052,344.929 146.887,371.991 127.698,337.062 151.31,329.192 "/>
<polygon style="fill:#889391;" points="182.792,360.674 174.922,384.285 143.455,368.56 167.067,344.948 "/>
<polygon style="fill:#B0B7B6;" points="174.922,384.285 123.763,435.444 100.167,411.848 111.972,368.56 151.326,360.689 "/>
<rect x="77.76" y="357.744" transform="matrix(-0.7071 0.7071 -0.7071 -0.7071 459.2745 558.6635)" style="fill:#C3C9C8;" width="72.348" height="33.414"/>
<g>
</g>
<g>
</g>
<g>
</g>
<g>
</g>
<g>
</g>
<g>
</g>
<g>
</g>
<g>
</g>
<g>
</g>
<g>
</g>
<g>
</g>
<g>
</g>
<g>
</g>
<g>
</g>
<g>
</g>
</svg>
