<svg width="70" height="70" viewBox="0 0 70 70" fill="none" xmlns="http://www.w3.org/2000/svg">
<path d="M64.6488 69.9999H5.35115C2.4005 69.9999 0 67.5994 0 64.6488V47.29C0 46.0984 0.965914 45.1325 2.15755 45.1325C3.34919 45.1325 4.3151 46.0984 4.3151 47.29V64.649C4.3151 65.2201 4.77981 65.685 5.35115 65.685H64.6488C65.2199 65.685 65.6849 65.2203 65.6849 64.649V5.35129C65.6849 4.78022 65.2202 4.31524 64.6488 4.31524H5.35115C4.77981 4.31524 4.3151 4.77994 4.3151 5.35129V34.6149C4.3151 35.8065 3.34919 36.7724 2.15755 36.7724C0.965914 36.7724 0 35.8065 0 34.6149V5.35129C0 2.40064 2.4005 0.000137329 5.35115 0.000137329H64.6488C67.5995 0.000137329 70 2.40064 70 5.35129V64.649C69.9997 67.5994 67.5992 69.9999 64.6488 69.9999Z" fill="#2D527C"/>
<path d="M58.6054 25.6266V12.6947C58.6054 11.9766 58.0232 11.3948 57.3054 11.3948H12.6946C11.9765 11.3948 11.3947 11.9769 11.3947 12.6947V25.6266H58.6054V25.6266Z" fill="#CEE8FA"/>
<path d="M58.6054 27.7839H11.3947C10.203 27.7839 9.23712 26.818 9.23712 25.6263V12.6947C9.23712 10.7883 10.7882 9.23723 12.6946 9.23723H57.3055C59.2119 9.23723 60.7629 10.7883 60.7629 12.6947V25.6266C60.7629 26.818 59.797 27.7839 58.6054 27.7839ZM13.5522 23.4688H56.4478V13.5523H13.5522V23.4688Z" fill="#2D527C"/>
<path d="M27.9529 60.7629H12.6946C10.7882 60.7629 9.23712 59.2118 9.23712 57.3054V38.3869C9.23712 37.1953 10.203 36.2294 11.3947 36.2294C12.5863 36.2294 13.5522 37.1953 13.5522 38.3869V56.4479H25.7956V27.7839H11.3947C10.203 27.7839 9.23712 26.818 9.23712 25.6263C9.23712 24.4347 10.203 23.4688 11.3947 23.4688H27.9532C29.1448 23.4688 30.1107 24.4347 30.1107 25.6263V58.6055C30.1104 59.797 29.1445 60.7629 27.9529 60.7629Z" fill="#2D527C"/>
<path d="M27.9529 25.6266V58.6055H57.3055C58.0235 58.6055 58.6054 58.0234 58.6054 57.3056V25.6266H27.9529Z" fill="#CEE8FA"/>
<path d="M57.3051 60.7629H27.9528C26.7612 60.7629 25.7953 59.797 25.7953 58.6054V25.6262C25.7953 24.4346 26.7612 23.4686 27.9528 23.4686H58.6052C59.7968 23.4686 60.7627 24.4346 60.7627 25.6262V57.3052C60.7629 59.212 59.2118 60.7629 57.3051 60.7629ZM30.1104 56.4479H56.4478V27.7839H30.1104V56.4479V56.4479Z" fill="#2D527C"/>
<path d="M48.4637 44.2735H27.9528C26.7612 44.2735 25.7953 43.3076 25.7953 42.1159C25.7953 40.9243 26.7612 39.9584 27.9528 39.9584H48.4637C49.6554 39.9584 50.6213 40.9243 50.6213 42.1159C50.6213 43.3076 49.6554 44.2735 48.4637 44.2735Z" fill="#2D527C"/>
</svg>
