<svg width="70" height="70" viewBox="0 0 70 70" fill="none" xmlns="http://www.w3.org/2000/svg">
<g clip-path="url(#clip0_312_148)">
<path d="M39.1265 22.9886L22.9886 39.1266L2.00927 18.1471C-0.669595 15.4682 -0.669595 11.1431 2.00927 8.46427L8.46431 2.00923C11.1432 -0.669641 15.4683 -0.669641 18.1471 2.00923L39.1265 22.9886Z" fill="#FF6243"/>
<path d="M31.0576 31.0576L22.9886 39.1266L2.00927 18.1471C-0.669595 15.4682 -0.669595 11.1431 2.00927 8.46426L5.23679 5.23674L31.0576 31.0576Z" fill="#FF3501"/>
<path d="M29.4436 32.6714L9.5404 12.7679C8.64913 11.8766 8.64913 10.4316 9.5404 9.54037C10.4317 8.6491 11.8767 8.6491 12.7679 9.54037L32.6714 29.4439L29.4436 32.6714Z" fill="#6E6057"/>
<path d="M9.5404 9.54037C8.64913 10.4316 8.64913 11.8766 9.5404 12.7679L29.4439 32.6714L31.0577 31.0576L9.5404 9.54037Z" fill="#615349"/>
<path d="M69.3259 62.8709L62.8708 69.3261C62.1284 70.0685 60.988 70.219 60.0951 69.6704L44.0432 60.0737C43.3547 59.6649 42.9351 58.9224 42.9351 58.1263V52.6179L35.006 44.6887C34.1131 43.7958 34.1131 42.354 35.006 41.4612L41.4612 35.006C42.3541 34.1131 43.7959 34.1131 44.6887 35.006L52.6178 42.9352H58.1262C58.9225 42.9352 59.6647 43.3547 60.0736 44.0433L69.6703 60.0951C70.219 60.988 70.0683 62.1286 69.3259 62.8709Z" fill="#77ACD2"/>
<path d="M66.0984 66.0985L62.8709 69.326C62.1285 70.0684 60.9881 70.2189 60.0952 69.6702L44.0434 60.0735C43.3548 59.6647 42.9352 58.9222 42.9352 58.1261V52.6177L35.0061 44.6886C34.1132 43.7957 34.1132 42.3538 35.0061 41.4611L38.2336 38.2335L66.0984 66.0985Z" fill="#678DEE"/>
<path d="M68.9306 12.1223C68.3819 10.5623 66.3593 10.089 65.1651 11.283L55.8373 20.6108L50.4473 19.5457L49.3823 14.1557L58.71 4.82795C59.8935 3.64451 59.4416 1.6219 57.8707 1.06244C51.2541 -1.29377 43.7876 0.384591 38.8279 5.34434C34.2232 9.94903 32.448 16.7377 34.1156 22.967L14.4382 42.6446C14.2015 42.623 13.9541 42.6124 13.6958 42.6124C6.14318 42.6122 0 48.7556 0 56.308C0.0108008 60.0843 1.5385 63.5056 4.01297 65.9801C6.48744 68.4545 9.90869 69.9822 13.685 69.993C21.2376 69.993 27.3808 63.85 27.3808 56.2974C27.3808 56.039 27.3701 55.7916 27.3485 55.555L47.0261 35.8775C53.266 37.5558 60.044 35.7699 64.6487 31.1652C69.6084 26.2053 71.2868 18.7388 68.9306 12.1223ZM13.685 60.8698C12.4262 60.8805 11.2859 60.3642 10.4575 59.5357C9.62897 58.7072 9.11272 57.5668 9.12338 56.3082C9.12338 53.7906 11.1783 51.7357 13.6958 51.7357C14.9439 51.7357 16.0949 52.2413 16.9233 53.0699C17.7518 53.8984 18.2574 55.0493 18.2574 56.2974C18.2574 58.8149 16.2025 60.8697 13.685 60.8698Z" fill="#77ACD2" style="mix-blend-mode:darken"/>
<path d="M68.9305 12.1223C68.3819 10.5623 66.3593 10.089 65.165 11.283L55.8373 20.6108L50.4473 19.5457L16.9234 53.0697C17.7519 53.8982 18.2575 55.0491 18.2575 56.2972C18.2575 58.8148 16.2026 60.8695 13.6851 60.8696C12.4263 60.8803 11.286 60.3641 10.4576 59.5355L4.01306 65.9801C6.48753 68.4545 9.90878 69.9822 13.6851 69.993C21.2377 69.993 27.3809 63.85 27.3809 56.2974C27.3809 56.039 27.3702 55.7916 27.3486 55.555L47.0261 35.8775C53.2661 37.5558 60.0441 35.7699 64.6488 31.1652C69.6084 26.2053 71.2868 18.7388 68.9305 12.1223Z" fill="#678DEE"/>
</g>
<defs>
<clipPath id="clip0_312_148">
<rect width="70" height="70" fill="white"/>
</clipPath>
</defs>
</svg>
