<svg width="60" height="60" viewBox="0 0 60 60" fill="none" xmlns="http://www.w3.org/2000/svg">
<g clip-path="url(#clip0_604_1554)">
<path d="M55.4133 60H4.5867C2.05757 60 0 57.9424 0 55.4134V40.5344C0 39.513 0.827926 38.6851 1.84933 38.6851C2.87073 38.6851 3.69866 39.513 3.69866 40.5344V55.4135C3.69866 55.903 4.09698 56.3016 4.5867 56.3016H55.4133C55.9028 56.3016 56.3013 55.9033 56.3013 55.4135V4.58694C56.3013 4.09745 55.903 3.6989 55.4133 3.6989H4.5867C4.09698 3.6989 3.69866 4.09722 3.69866 4.58694V29.67C3.69866 30.6914 2.87073 31.5193 1.84933 31.5193C0.827926 31.5193 0 30.6914 0 29.67V4.58694C0 2.05781 2.05757 0.000244141 4.5867 0.000244141H55.4133C57.9424 0.000244141 60 2.05781 60 4.58694V55.4135C59.9998 57.9424 57.9422 60 55.4133 60Z" fill="#2D527C"/>
<path d="M50.2332 21.9655V10.8811C50.2332 10.2656 49.7342 9.76685 49.119 9.76685H10.8811C10.2656 9.76685 9.76685 10.2658 9.76685 10.8811V21.9655H50.2332V21.9655Z" fill="#CEE8FA"/>
<path d="M50.2331 23.8149H9.76681C8.74541 23.8149 7.91748 22.9869 7.91748 21.9655V10.8813C7.91748 9.24721 9.24697 7.91772 10.881 7.91772H49.1189C50.753 7.91772 52.0825 9.24721 52.0825 10.8813V21.9658C52.0825 22.9869 51.2545 23.8149 50.2331 23.8149ZM11.6161 20.1162H48.3838V11.6164H11.6161V20.1162Z" fill="#2D527C"/>
<path d="M23.9596 52.0826H10.881C9.24697 52.0826 7.91748 50.7531 7.91748 49.1191V32.9032C7.91748 31.8818 8.74541 31.0539 9.76681 31.0539C10.7882 31.0539 11.6161 31.8818 11.6161 32.9032V48.3841H22.1105V23.8149H9.76681C8.74541 23.8149 7.91748 22.9869 7.91748 21.9655C7.91748 20.9441 8.74541 20.1162 9.76681 20.1162H23.9598C24.9812 20.1162 25.8091 20.9441 25.8091 21.9655V50.2334C25.8089 51.2547 24.981 52.0826 23.9596 52.0826Z" fill="#2D527C"/>
<path d="M23.9596 21.9656V50.2332H49.119C49.7344 50.2332 50.2332 49.7342 50.2332 49.119V21.9656H23.9596Z" fill="#CEE8FA"/>
<path d="M49.1187 52.0825H23.9596C22.9382 52.0825 22.1103 51.2546 22.1103 50.2332V21.9653C22.1103 20.9439 22.9382 20.116 23.9596 20.116H50.2331C51.2545 20.116 52.0824 20.9439 52.0824 21.9653V49.1187C52.0825 50.7531 50.753 52.0825 49.1187 52.0825ZM25.8089 48.3839H48.3839V23.8147H25.8089V48.3839V48.3839Z" fill="#2D527C"/>
<path d="M41.5404 37.9487H23.9596C22.9382 37.9487 22.1103 37.1207 22.1103 36.0993C22.1103 35.0779 22.9382 34.25 23.9596 34.25H41.5404C42.5618 34.25 43.3897 35.0779 43.3897 36.0993C43.3897 37.1207 42.5618 37.9487 41.5404 37.9487Z" fill="#2D527C"/>
</g>
<defs>
<clipPath id="clip0_604_1554">
<rect width="60" height="60" fill="white"/>
</clipPath>
</defs>
</svg>
