<svg width="60" height="60" viewBox="0 0 60 60" fill="none" xmlns="http://www.w3.org/2000/svg">
<g clip-path="url(#clip0_604_1531)">
<path d="M33.537 19.7044L19.7045 33.537L1.72219 15.5546C-0.573982 13.2584 -0.573982 9.55119 1.72219 7.25502L7.25508 1.72213C9.55125 -0.574043 13.2585 -0.574043 15.5547 1.72213L33.537 19.7044Z" fill="#FF6243"/>
<path d="M26.6208 26.6207L19.7045 33.537L1.72219 15.5545C-0.573982 13.2584 -0.573982 9.55114 1.72219 7.25497L4.48864 4.48853L26.6208 26.6207Z" fill="#FF3501"/>
<path d="M25.2374 28.0041L8.17745 10.9439C7.41351 10.18 7.41351 8.9414 8.17745 8.17745C8.9414 7.41351 10.18 7.41351 10.9439 8.17745L28.0041 25.2376L25.2374 28.0041Z" fill="#6E6057"/>
<path d="M8.17745 8.17749C7.41351 8.94144 7.41351 10.18 8.17745 10.9439L25.2376 28.0041L26.6209 26.6208L8.17745 8.17749Z" fill="#615349"/>
<path d="M59.4223 53.8894L53.8893 59.4224C53.2529 60.0587 52.2755 60.1877 51.5101 59.7175L37.7514 51.4917C37.1612 51.1413 36.8016 50.5049 36.8016 49.8225V45.101L30.0052 38.3046C29.2398 37.5393 29.2398 36.3034 30.0052 35.5382L35.5382 30.0052C36.3035 29.2398 37.5394 29.2398 38.3046 30.0052L45.101 36.8016H49.8225C50.505 36.8016 51.1412 37.1612 51.4917 37.7514L59.7175 51.5101C60.1877 52.2755 60.0586 53.2531 59.4223 53.8894Z" fill="#77ACD2"/>
<path d="M56.6558 56.6557L53.8894 59.4221C53.2531 60.0585 52.2756 60.1875 51.5102 59.7172L37.7515 51.4915C37.1613 51.1411 36.8017 50.5046 36.8017 49.8223V45.1008L30.0053 38.3044C29.2399 37.539 29.2399 36.3032 30.0053 35.5379L32.7717 32.7715L56.6558 56.6557Z" fill="#678DEE"/>
<path d="M59.0834 10.3905C58.6131 9.05342 56.8794 8.64771 55.8558 9.67111L47.8606 17.6663L43.2405 16.7535L42.3277 12.1335L50.3229 4.13822C51.3373 3.12385 50.95 1.39017 49.6035 0.910644C43.9321 -1.10897 37.5322 0.329628 33.281 4.58084C29.3341 8.52771 27.8126 14.3465 29.2419 19.686L12.3756 36.5525C12.1727 36.534 11.9606 36.5249 11.7393 36.5249C5.26559 36.5247 0 41.7904 0 48.264C0.00925781 51.5008 1.31871 54.4333 3.43969 56.5543C5.56066 58.6753 8.49316 59.9847 11.73 59.994C18.2037 59.994 23.4693 54.7285 23.4693 48.2549C23.4693 48.0334 23.4601 47.8214 23.4416 47.6185L40.3081 30.7521C45.6566 32.1907 51.4663 30.6599 55.4132 26.713C59.6644 22.4617 61.103 16.0618 59.0834 10.3905ZM11.73 52.1741C10.6511 52.1832 9.67359 51.7407 8.96356 51.0306C8.2534 50.3204 7.8109 49.343 7.82004 48.2641C7.82004 46.1062 9.58137 44.3449 11.7393 44.3449C12.8091 44.3449 13.7957 44.7783 14.5057 45.4884C15.2159 46.1986 15.6492 47.1851 15.6492 48.2549C15.6492 50.4128 13.8879 52.174 11.73 52.1741Z" fill="#77ACD2" style="mix-blend-mode:darken"/>
<path d="M59.0834 10.3906C58.6131 9.05344 56.8794 8.64774 55.8558 9.67114L47.8606 17.6664L43.2406 16.7535L14.5058 45.4883C15.216 46.1985 15.6494 47.185 15.6494 48.2548C15.6494 50.4127 13.888 52.1739 11.7301 52.174C10.6512 52.1831 9.67373 51.7406 8.96369 51.0305L3.43982 56.5543C5.5608 58.6753 8.4933 59.9848 11.7301 59.994C18.2038 59.994 23.4694 54.7286 23.4694 48.2549C23.4694 48.0334 23.4602 47.8214 23.4417 47.6186L40.3082 30.7521C45.6567 32.1907 51.4664 30.6599 55.4133 26.713C59.6644 22.4617 61.103 16.0618 59.0834 10.3906Z" fill="#678DEE"/>
</g>
<defs>
<clipPath id="clip0_604_1531">
<rect width="60" height="60" fill="white"/>
</clipPath>
</defs>
</svg>
