<svg width="80" height="80" viewBox="0 0 80 80" fill="none" xmlns="http://www.w3.org/2000/svg">
<path d="M14.326 28.9276C11.4126 31.4496 9.73846 35.113 9.73846 38.9666V47.7723H19.2633" fill="#496A72"/>
<path d="M30.5557 28.9276C33.4692 31.4496 35.1433 35.113 35.1433 38.9666V47.7723H25.6185" fill="#496A72"/>
<path d="M30.5558 47.7721H14.326V28.9277L22.4409 28.283L30.5558 28.9277V47.7721Z" fill="#738B93"/>
<path d="M22.4402 30.6275L21.7074 31.7149L19.9227 34.3642L17.5781 28.7226L19.8025 27.9899L22.4402 30.6275Z" fill="#496A72"/>
<path d="M27.3037 28.7226L24.9591 34.3642L23.1728 31.7149L22.4402 30.6275L25.0777 27.9899L27.3037 28.7226Z" fill="#496A72"/>
<path d="M23.1727 29.8948V47.7721H21.7074V29.8948L22.4401 30.6275L23.1727 29.8948Z" fill="#496A72"/>
<path d="M22.4409 30.6275C20.9842 30.6275 19.8032 29.4466 19.8032 27.9899V25.0592H25.0784V27.9899C25.0786 29.4466 23.8976 30.6275 22.4409 30.6275Z" fill="#EDCEB2"/>
<path d="M15.4035 15.8114L16.142 21.283C16.5669 24.4364 19.2589 26.7897 22.44 26.7897H22.4414C25.6228 26.7897 28.3145 24.4364 28.7395 21.283L29.4779 15.8114H15.4035Z" fill="#F9D8B7"/>
<path d="M30.8568 15.8109H14.025C14.025 15.0009 14.1398 14.2177 14.3547 13.4771H30.5273C30.742 14.2177 30.8568 15.0008 30.8568 15.8109Z" fill="#EDA856"/>
<path d="M24.6157 6.44522L24.0774 13.4771H20.8053L20.2665 6.44522L20.2301 5.9714C20.934 5.77765 21.6754 5.67343 22.4411 5.67343C23.2068 5.67343 23.9481 5.77747 24.652 5.9714L24.6157 6.44522Z" fill="#EDA856"/>
<path d="M26.9525 15.8109L26.5813 16.3794L25.8248 17.5376H19.0569L18.3005 16.3794L17.9291 15.8109H26.9525Z" fill="#EDA856"/>
<path d="M20.8053 13.4769H24.0774V13.4771H29.8076C29.8076 13.2047 29.7929 12.9356 29.7638 12.6707C29.4806 10.0671 27.8404 7.87078 25.5657 6.80407C25.2713 6.66565 24.9663 6.54639 24.6521 6.4479L24.6157 6.44504L24.139 12.6707H20.7435L20.2665 6.44504L20.2301 6.4479C19.9159 6.54639 19.6107 6.66565 19.3165 6.80407C17.0415 7.87078 15.4012 10.0671 15.1181 12.6707C15.0889 12.9356 15.0742 13.2047 15.0742 13.4771L20.8053 13.4769Z" fill="#CC731B"/>
<path d="M18.3005 16.3794H26.5814L26.9526 15.8109H17.9291L18.3005 16.3794Z" fill="#CC731B"/>
<path d="M19.3165 6.80408L19.8793 12.6707H15.1179C15.4011 10.0671 17.0414 7.87079 19.3165 6.80408Z" fill="#EDA856"/>
<path d="M29.7637 12.6707H25.0028L25.5656 6.80408C27.8403 7.87079 29.4804 10.0671 29.7637 12.6707Z" fill="#EDA856"/>
<path d="M29.3646 36.3423H24.6022V38.0276H29.3646V36.3423Z" fill="#496A72"/>
<path d="M20.2794 36.3423H15.517V38.0276H20.2794V36.3423Z" fill="#496A72"/>
<path d="M50.1208 28.9276C47.2073 31.4496 45.5332 35.113 45.5332 38.9666V47.7723H55.058" fill="#496A72"/>
<path d="M66.3505 28.9276C69.2639 31.4496 70.938 35.113 70.938 38.9666V47.7723H61.4132" fill="#496A72"/>
<path d="M66.3505 47.7721H50.1208V28.9277L58.2356 28.283L66.3505 28.9277V47.7721Z" fill="#738B93"/>
<path d="M58.2349 30.6275L57.5022 31.7149L55.7174 34.3642L53.3729 28.7226L55.5973 27.9899L58.2349 30.6275Z" fill="#496A72"/>
<path d="M63.0984 28.7226L60.7539 34.3642L58.9675 31.7149L58.2349 30.6275L60.8724 27.9899L63.0984 28.7226Z" fill="#496A72"/>
<path d="M58.9675 29.8948V47.7721H57.5022V29.8948L58.2349 30.6275L58.9675 29.8948Z" fill="#496A72"/>
<path d="M58.2356 30.6275C56.7789 30.6275 55.598 29.4466 55.598 27.9899V25.0592H60.8731V27.9899C60.8733 29.4466 59.6924 30.6275 58.2356 30.6275Z" fill="#EDCEB2"/>
<path d="M51.1982 15.8114L51.9367 21.283C52.3616 24.4364 55.0536 26.7897 58.2347 26.7897H58.2362C61.4175 26.7897 64.1093 24.4364 64.5342 21.283L65.2727 15.8114H51.1982Z" fill="#F9D8B7"/>
<path d="M66.6515 15.8109H49.8198C49.8198 15.0009 49.9345 14.2177 50.1494 13.4771H66.322C66.5367 14.2177 66.6515 15.0008 66.6515 15.8109Z" fill="#EDA856"/>
<path d="M60.4104 6.44522L59.8721 13.4771H56.6L56.0612 6.44522L56.0248 5.9714C56.7288 5.77765 57.4701 5.67343 58.2358 5.67343C59.0015 5.67343 59.7428 5.77747 60.4468 5.9714L60.4104 6.44522Z" fill="#EDA856"/>
<path d="M62.7473 15.8109L62.3761 16.3794L61.6195 17.5376H54.8516L54.0952 16.3794L53.7238 15.8109H62.7473Z" fill="#EDA856"/>
<path d="M56.6 13.4769H59.8722V13.4771H65.6024C65.6024 13.2047 65.5877 12.9356 65.5585 12.6707C65.2754 10.0671 63.6351 7.87078 61.3604 6.80407C61.066 6.66565 60.7611 6.54639 60.4468 6.4479L60.4105 6.44504L59.9338 12.6707H56.5383L56.0612 6.44504L56.0249 6.4479C55.7106 6.54639 55.4055 6.66565 55.1113 6.80407C52.8362 7.87078 51.1959 10.0671 50.9128 12.6707C50.8836 12.9356 50.869 13.2047 50.869 13.4771L56.6 13.4769Z" fill="#CC731B"/>
<path d="M54.0953 16.3794H62.3761L62.7473 15.8109H53.7239L54.0953 16.3794Z" fill="#CC731B"/>
<path d="M55.1112 6.80408L55.674 12.6707H50.9126C51.1959 10.0671 52.8362 7.87079 55.1112 6.80408Z" fill="#EDA856"/>
<path d="M65.5584 12.6707H60.7974L61.3602 6.80408C63.6351 7.87079 65.2752 10.0671 65.5584 12.6707Z" fill="#EDA856"/>
<path d="M65.1593 36.3423H60.397V38.0276H65.1593V36.3423Z" fill="#496A72"/>
<path d="M56.0741 36.3423H51.3118V38.0276H56.0741V36.3423Z" fill="#496A72"/>
<path d="M75.7414 56.2893H4.25861C1.90672 56.2893 0 54.3828 0 52.0307C0 49.6788 1.90672 47.7721 4.25861 47.7721H75.7414C78.0933 47.7721 80 49.6788 80 52.0307C80 54.3828 78.0935 56.2893 75.7414 56.2893Z" fill="#999999"/>
<path d="M75.7414 56.2893H15.7872C13.4353 56.2893 11.5286 54.3826 11.5286 52.0307C11.5286 49.6788 13.4353 47.7721 15.7872 47.7721H75.7414C78.0935 47.7721 80 49.6788 80 52.0307C80 54.3828 78.0935 56.2893 75.7414 56.2893Z" fill="#B3B3B3"/>
<path d="M77.8521 52.0307C77.8521 53.1947 76.9048 54.1402 75.7408 54.1402H15.7869C14.6247 54.1402 13.6774 53.1947 13.6774 52.0307C13.6774 50.8668 14.6247 49.9213 15.7869 49.9213H75.7408C76.9048 49.9213 77.8521 50.8668 77.8521 52.0307Z" fill="#637D84"/>
<path d="M74.0916 52.0307C74.0916 53.1947 73.1443 54.1402 71.9804 54.1402H15.7869C14.6247 54.1402 13.6774 53.1947 13.6774 52.0307C13.6774 50.8668 14.6247 49.9213 15.7869 49.9213H71.9804C73.1443 49.9213 74.0916 50.8668 74.0916 52.0307Z" fill="#738B93"/>
<path d="M76.0463 56.2893H14.0517V74.3266H76.0463V56.2893Z" fill="#999999"/>
<path d="M14.0519 56.2893H3.95367V74.3266H14.0519V56.2893Z" fill="#808080"/>
<path d="M71.5737 60.8361H18.5245V69.7796H71.5737V60.8361Z" fill="#808080"/>
<path d="M71.5737 60.8361H68.8608V69.7796H71.5737V60.8361Z" fill="#666666"/>
<path d="M36.061 43.0286H7.41058V47.7721H36.061V43.0286Z" fill="#D3674A"/>
<path d="M36.0612 43.0286H16.9354V47.7721H36.0612V43.0286Z" fill="#EF7954"/>
<path d="M73.4864 43.0286H44.8359V47.7721H73.4864V43.0286Z" fill="#D3674A"/>
<path d="M73.4866 43.0286H54.3608V47.7721H73.4866V43.0286Z" fill="#EF7954"/>
</svg>
