<svg width="50" height="44" viewBox="0 0 50 44" fill="none" xmlns="http://www.w3.org/2000/svg">
<path d="M8.95377 15.2073C7.13287 16.7836 6.08655 19.0732 6.08655 21.4816V26.9852H12.0396" fill="#496A72"/>
<path d="M19.0973 15.2073C20.9182 16.7836 21.9646 19.0732 21.9646 21.4816V26.9852H16.0115" fill="#496A72"/>
<path d="M19.0974 26.9851H8.9538V15.2073L14.0256 14.8044L19.0974 15.2073V26.9851Z" fill="#738B93"/>
<path d="M14.0251 16.2698L13.5672 16.9493L12.4517 18.6051L10.9863 15.0792L12.3766 14.6212L14.0251 16.2698Z" fill="#496A72"/>
<path d="M17.0648 15.0792L15.5995 18.6051L14.483 16.9493L14.0251 16.2698L15.6736 14.6212L17.0648 15.0792Z" fill="#496A72"/>
<path d="M14.483 15.8118V26.9851H13.5671V15.8118L14.0251 16.2698L14.483 15.8118Z" fill="#496A72"/>
<path d="M14.0256 16.2697C13.1151 16.2697 12.377 15.5317 12.377 14.6212V12.7896H15.674V14.6212C15.6741 15.5317 14.936 16.2697 14.0256 16.2697Z" fill="#EDCEB2"/>
<path d="M9.6272 7.00966L10.0887 10.4294C10.3543 12.4003 12.0368 13.8711 14.025 13.8711H14.0259C16.0142 13.8711 17.6966 12.4003 17.9622 10.4294L18.4237 7.00966H9.6272Z" fill="#F9D8B7"/>
<path d="M19.2855 7.00933H8.76562C8.76562 6.50313 8.83736 6.0136 8.97167 5.5507H19.0795C19.2137 6.0136 19.2855 6.50301 19.2855 7.00933Z" fill="#EDA856"/>
<path d="M15.3848 1.1558L15.0484 5.5507H13.0033L12.6665 1.1558L12.6438 0.859663C13.0837 0.738568 13.5471 0.673431 14.0256 0.673431C14.5042 0.673431 14.9676 0.738456 15.4075 0.859663L15.3848 1.1558Z" fill="#EDA856"/>
<path d="M16.8453 7.00932L16.6133 7.36466L16.1405 8.08855H11.9105L11.4378 7.36466L11.2057 7.00932H16.8453Z" fill="#EDA856"/>
<path d="M13.0033 5.55059H15.0484V5.5507H18.6298C18.6298 5.38048 18.6206 5.21226 18.6023 5.04674C18.4254 3.41945 17.4002 2.04678 15.9785 1.38008C15.7946 1.29357 15.604 1.21903 15.4075 1.15748L15.3848 1.15569L15.0869 5.04674H12.9647L12.6666 1.15569L12.6438 1.15748C12.4474 1.21903 12.2567 1.29357 12.0728 1.38008C10.6509 2.04678 9.62575 3.41945 9.44881 5.04674C9.43056 5.21226 9.42139 5.38048 9.42139 5.5507L13.0033 5.55059Z" fill="#CC731B"/>
<path d="M11.4378 7.36466H16.6133L16.8453 7.00932H11.2057L11.4378 7.36466Z" fill="#CC731B"/>
<path d="M12.0728 1.38008L12.4246 5.04674H9.44867C9.62572 3.41945 10.6509 2.04678 12.0728 1.38008Z" fill="#EDA856"/>
<path d="M18.6023 5.04674H15.6268L15.9785 1.38008C17.4002 2.04678 18.4253 3.41945 18.6023 5.04674Z" fill="#EDA856"/>
<path d="M18.3529 19.8415H15.3764V20.8948H18.3529V19.8415Z" fill="#496A72"/>
<path d="M12.6746 19.8415H9.69812V20.8948H12.6746V19.8415Z" fill="#496A72"/>
<path d="M31.3255 15.2073C29.5046 16.7836 28.4583 19.0732 28.4583 21.4816V26.9852H34.4113" fill="#496A72"/>
<path d="M41.469 15.2073C43.2899 16.7836 44.3363 19.0732 44.3363 21.4816V26.9852H38.3832" fill="#496A72"/>
<path d="M41.4691 26.9851H31.3255V15.2073L36.3973 14.8044L41.4691 15.2073V26.9851Z" fill="#738B93"/>
<path d="M36.3968 16.2698L35.9389 16.9493L34.8234 18.6051L33.358 15.0792L34.7483 14.6212L36.3968 16.2698Z" fill="#496A72"/>
<path d="M39.4365 15.0792L37.9712 18.6051L36.8547 16.9493L36.3969 16.2698L38.0453 14.6212L39.4365 15.0792Z" fill="#496A72"/>
<path d="M36.8547 15.8118V26.9851H35.9388V15.8118L36.3968 16.2698L36.8547 15.8118Z" fill="#496A72"/>
<path d="M36.3973 16.2697C35.4868 16.2697 34.7487 15.5317 34.7487 14.6212V12.7896H38.0457V14.6212C38.0458 15.5317 37.3077 16.2697 36.3973 16.2697Z" fill="#EDCEB2"/>
<path d="M31.9989 7.00966L32.4604 10.4294C32.726 12.4003 34.4085 13.8711 36.3967 13.8711H36.3976C38.3859 13.8711 40.0683 12.4003 40.3339 10.4294L40.7954 7.00966H31.9989Z" fill="#F9D8B7"/>
<path d="M41.6572 7.00933H31.1373C31.1373 6.50313 31.2091 6.0136 31.3434 5.5507H41.4512C41.5854 6.0136 41.6572 6.50301 41.6572 7.00933Z" fill="#EDA856"/>
<path d="M37.7565 1.1558L37.4201 5.5507H35.375L35.0382 1.1558L35.0155 0.859663C35.4555 0.738568 35.9188 0.673431 36.3974 0.673431C36.8759 0.673431 37.3393 0.738456 37.7792 0.859663L37.7565 1.1558Z" fill="#EDA856"/>
<path d="M39.217 7.00932L38.985 7.36466L38.5122 8.08855H34.2823L33.8095 7.36466L33.5774 7.00932H39.217Z" fill="#EDA856"/>
<path d="M35.375 5.55059H37.4201V5.5507H41.0015C41.0015 5.38048 40.9923 5.21226 40.9741 5.04674C40.7971 3.41945 39.7719 2.04678 38.3502 1.38008C38.1663 1.29357 37.9757 1.21903 37.7792 1.15748L37.7565 1.15569L37.4586 5.04674H35.3364L35.0383 1.15569L35.0155 1.15748C34.8191 1.21903 34.6284 1.29357 34.4445 1.38008C33.0226 2.04678 31.9975 3.41945 31.8205 5.04674C31.8023 5.21226 31.7931 5.38048 31.7931 5.5507L35.375 5.55059Z" fill="#CC731B"/>
<path d="M33.8095 7.36466H38.985L39.217 7.00932H33.5774L33.8095 7.36466Z" fill="#CC731B"/>
<path d="M34.4445 1.38008L34.7963 5.04674H31.8204C31.9974 3.41945 33.0226 2.04678 34.4445 1.38008Z" fill="#EDA856"/>
<path d="M40.974 5.04674H37.9984L38.3501 1.38008C39.7719 2.04678 40.797 3.41945 40.974 5.04674Z" fill="#EDA856"/>
<path d="M40.7246 19.8415H37.7481V20.8948H40.7246V19.8415Z" fill="#496A72"/>
<path d="M35.0463 19.8415H32.0698V20.8948H35.0463V19.8415Z" fill="#496A72"/>
<path d="M47.3384 32.3084H2.66163C1.1917 32.3084 0 31.1168 0 29.6467C0 28.1768 1.1917 26.9851 2.66163 26.9851H47.3384C48.8083 26.9851 50 28.1768 50 29.6467C50 31.1168 48.8084 32.3084 47.3384 32.3084Z" fill="#999999"/>
<path d="M47.3384 32.3084H9.86702C8.39709 32.3084 7.20538 31.1167 7.20538 29.6467C7.20538 28.1768 8.39709 26.9851 9.86702 26.9851H47.3384C48.8084 26.9851 50 28.1768 50 29.6467C50 31.1168 48.8084 32.3084 47.3384 32.3084Z" fill="#B3B3B3"/>
<path d="M48.6575 29.6467C48.6575 30.3742 48.0655 30.9651 47.338 30.9651H9.86679C9.14045 30.9651 8.5484 30.3742 8.5484 29.6467C8.5484 28.9193 9.14045 28.3283 9.86679 28.3283H47.338C48.0655 28.3283 48.6575 28.9193 48.6575 29.6467Z" fill="#637D84"/>
<path d="M46.3073 29.6467C46.3073 30.3742 45.7152 30.9651 44.9878 30.9651H9.86679C9.14045 30.9651 8.5484 30.3742 8.5484 29.6467C8.5484 28.9193 9.14045 28.3283 9.86679 28.3283H44.9878C45.7152 28.3283 46.3073 28.9193 46.3073 29.6467Z" fill="#738B93"/>
<path d="M47.5289 32.3084H8.78229V43.5816H47.5289V32.3084Z" fill="#999999"/>
<path d="M8.78246 32.3084H2.47107V43.5816H8.78246V32.3084Z" fill="#808080"/>
<path d="M44.7336 35.1501H11.5778V40.7398H44.7336V35.1501Z" fill="#808080"/>
<path d="M44.7336 35.1501H43.038V40.7398H44.7336V35.1501Z" fill="#666666"/>
<path d="M22.5381 24.0204H4.63159V26.9851H22.5381V24.0204Z" fill="#D3674A"/>
<path d="M22.5383 24.0204H10.5847V26.9851H22.5383V24.0204Z" fill="#EF7954"/>
<path d="M45.929 24.0204H28.0225V26.9851H45.929V24.0204Z" fill="#D3674A"/>
<path d="M45.9291 24.0204H33.9755V26.9851H45.9291V24.0204Z" fill="#EF7954"/>
</svg>
