<svg width="42" height="50" viewBox="0 0 42 50" fill="none" xmlns="http://www.w3.org/2000/svg">
<path d="M36.8513 46.828H2.93066C1.82859 46.828 0.935364 45.9347 0.935364 44.8327V2.93064C0.935364 1.82858 1.82859 0.935349 2.93066 0.935349H36.8513C37.9533 0.935349 38.8466 1.82858 38.8466 2.93064V44.8326C38.8467 45.9346 37.9533 46.828 36.8513 46.828Z" fill="#F1F4FB"/>
<path d="M9.9143 15.9002C11.5673 15.9002 12.9072 14.5602 12.9072 12.9072C12.9072 11.2543 11.5673 9.91428 9.9143 9.91428C8.26134 9.91428 6.92136 11.2543 6.92136 12.9072C6.92136 14.5602 8.26134 15.9002 9.9143 15.9002Z" fill="#B4E66E"/>
<path d="M9.9143 26.8746C11.5673 26.8746 12.9072 25.5346 12.9072 23.8816C12.9072 22.2287 11.5673 20.8887 9.9143 20.8887C8.26134 20.8887 6.92136 22.2287 6.92136 23.8816C6.92136 25.5346 8.26134 26.8746 9.9143 26.8746Z" fill="#DAE169"/>
<path d="M9.9143 37.8489C11.5673 37.8489 12.9072 36.5089 12.9072 34.856C12.9072 33.203 11.5673 31.863 9.9143 31.863C8.26134 31.863 6.92136 33.203 6.92136 34.856C6.92136 36.5089 8.26134 37.8489 9.9143 37.8489Z" fill="#FFDC64"/>
<path d="M39.2356 35.4683C38.1864 35.3663 37.3021 36.163 37.3021 37.1602V36.5769C37.3021 35.6872 36.6424 34.8766 35.73 34.788C34.6808 34.686 33.7964 35.4827 33.7964 36.4799V35.8966C33.7964 35.0069 33.1368 34.1962 32.2244 34.1077C31.1752 34.0057 30.2908 34.8024 30.2908 35.7996V25.5948C30.2908 24.5977 29.4065 23.801 28.3573 23.9029C27.445 23.9915 26.7852 24.8022 26.7852 25.6918V34.0987L24.6606 36.1604C23.8021 36.9934 23.449 38.1981 23.727 39.3448L25.1939 45.3942C25.7155 47.5454 27.6937 49.0657 29.9712 49.0657H35.9C38.6104 49.0657 40.8077 46.9336 40.8077 44.3035V37.2572C40.8077 36.3675 40.148 35.5568 39.2356 35.4683Z" fill="#F0C087"/>
<path d="M12.9074 11.972C12.3909 11.972 11.972 12.3907 11.972 12.9074C11.972 14.042 11.0489 14.9651 9.91431 14.9651C8.77969 14.9651 7.8566 14.042 7.8566 12.9074C7.8566 11.7727 8.77969 10.8497 9.91431 10.8497C10.4308 10.8497 10.8497 10.4309 10.8497 9.9143C10.8497 9.3978 10.4309 8.97896 9.91431 8.97896C7.74821 8.97896 5.98602 10.7413 5.98602 12.9072C5.98602 15.0732 7.74833 16.8355 9.91431 16.8355C12.0804 16.8355 13.8426 15.0732 13.8426 12.9072C13.8426 12.3907 13.4239 11.972 12.9074 11.972Z" fill="black"/>
<path d="M12.9074 22.9462C12.3909 22.9462 11.972 23.365 11.972 23.8816C11.972 25.0162 11.0489 25.9393 9.91431 25.9393C8.77969 25.9393 7.8566 25.0162 7.8566 23.8816C7.8566 22.747 8.77969 21.8239 9.91431 21.8239C10.4308 21.8239 10.8497 21.4051 10.8497 20.8885C10.8497 20.3719 10.4309 19.9532 9.91431 19.9532C7.74821 19.9532 5.98602 21.7155 5.98602 23.8815C5.98602 26.0475 7.74833 27.8098 9.91431 27.8098C12.0804 27.8098 13.8426 26.0475 13.8426 23.8815C13.8426 23.3651 13.4239 22.9462 12.9074 22.9462Z" fill="black"/>
<path d="M23.8816 24.9417H16.8979C16.3814 24.9417 15.9626 25.3604 15.9626 25.877C15.9626 26.3936 16.3813 26.8123 16.8979 26.8123H23.8816C24.3981 26.8123 24.8169 26.3936 24.8169 25.877C24.8169 25.3604 24.3982 24.9417 23.8816 24.9417Z" fill="black"/>
<path d="M23.8816 20.951H16.8979C16.3814 20.951 15.9626 21.3697 15.9626 21.8863C15.9626 22.4029 16.3813 22.8217 16.8979 22.8217H23.8816C24.3981 22.8217 24.8169 22.4029 24.8169 21.8863C24.8169 21.3697 24.3982 20.951 23.8816 20.951Z" fill="black"/>
<path d="M22.8216 36.8513C22.8216 36.3348 22.4029 35.9159 21.8863 35.9159H16.8979C16.3814 35.9159 15.9626 36.3346 15.9626 36.8513C15.9626 37.3678 16.3813 37.7866 16.8979 37.7866H21.8863C22.4028 37.7866 22.8216 37.3678 22.8216 36.8513Z" fill="black"/>
<path d="M23.8816 31.9253H16.8979C16.3814 31.9253 15.9626 32.3441 15.9626 32.8607C15.9626 33.3772 16.3813 33.796 16.8979 33.796H23.8816C24.3981 33.796 24.8169 33.3773 24.8169 32.8607C24.8169 32.3441 24.3982 31.9253 23.8816 31.9253Z" fill="black"/>
<path d="M33.7959 14.9026C33.7959 14.3861 33.3771 13.9673 32.8605 13.9673H16.8979C16.3814 13.9673 15.9626 14.386 15.9626 14.9026C15.9626 15.4191 16.3813 15.838 16.8979 15.838H32.8605C33.3771 15.8379 33.7959 15.4191 33.7959 14.9026Z" fill="black"/>
<path d="M16.8979 11.8473H28.8699C29.3864 11.8473 29.8053 11.4286 29.8053 10.9119C29.8053 10.3954 29.3866 9.97659 28.8699 9.97659H16.8979C16.3814 9.97659 15.9626 10.3953 15.9626 10.9119C15.9627 11.4286 16.3814 11.8473 16.8979 11.8473Z" fill="black"/>
<path d="M9.91431 32.7982C10.4308 32.7982 10.8497 32.3795 10.8497 31.8629C10.8497 31.3464 10.4309 30.9276 9.91431 30.9276C7.74821 30.9276 5.98602 32.6899 5.98602 34.8558C5.98602 37.0219 7.74833 38.7841 9.91431 38.7841C12.0804 38.7841 13.8426 37.0218 13.8426 34.8558C13.8426 34.3393 13.4239 33.9205 12.9073 33.9205C12.3908 33.9205 11.9719 34.3392 11.9719 34.8558C11.9719 35.9905 11.0488 36.9136 9.9142 36.9136C8.77958 36.9136 7.85648 35.9905 7.85648 34.8558C7.85672 33.7213 8.77981 32.7982 9.91431 32.7982Z" fill="black"/>
<path d="M19.891 45.8926H2.93064C2.34612 45.8926 1.87058 45.4171 1.87058 44.8326V2.93064C1.87058 2.34612 2.34612 1.87058 2.93064 1.87058H36.8513C37.4358 1.87058 37.9113 2.34612 37.9113 2.93064V33.8584C37.9113 34.3749 38.3301 34.7938 38.8467 34.7938C39.3632 34.7938 39.782 34.3751 39.782 33.8584V2.93064C39.7819 1.31464 38.4673 0 36.8513 0H2.93064C1.31476 0 0 1.31464 0 2.93064V44.8326C0 46.4486 1.31464 47.7632 2.93064 47.7632H19.891C20.4075 47.7632 20.8264 47.3445 20.8264 46.8279C20.8264 46.3114 20.4075 45.8926 19.891 45.8926Z" fill="black"/>
<path d="M39.1073 35.7665C38.5399 35.7099 37.9728 35.8707 37.5239 36.2115C37.1664 35.6116 36.5567 35.1859 35.8513 35.1153C35.2837 35.0588 34.7167 35.2196 34.2679 35.5603C33.9104 34.9604 33.3007 34.5348 32.5953 34.4641C32.162 34.4208 31.7293 34.5043 31.349 34.6978V26.9231C31.349 26.2919 31.0805 25.6868 30.6121 25.263C30.1441 24.8396 29.5135 24.6329 28.8818 24.6961C27.7548 24.8089 26.872 25.828 26.872 27.016V34.8103L25.0774 36.6049C24.1237 37.5586 23.7388 38.9117 24.0477 40.2245L25.4102 46.015C25.9622 48.3613 28.0313 50 30.4417 50H35.9481C38.7982 50 41.117 47.6813 41.117 44.8311V38.0864C41.1171 36.8983 40.2343 35.8793 39.1073 35.7665ZM39.8961 44.8311C39.8961 47.0079 38.125 48.779 35.9482 48.779H30.4417C28.6007 48.779 27.0204 47.5274 26.5987 45.7353L25.2363 39.9448C25.0249 39.0465 25.2883 38.1207 25.9408 37.4682L26.872 36.5369V38.6447C26.872 38.9818 27.1454 39.2552 27.4826 39.2552C27.8197 39.2552 28.0931 38.9819 28.0931 38.6447V27.016C28.0931 26.4475 28.493 25.9621 29.0036 25.911C29.2969 25.8816 29.5773 25.973 29.793 26.1684C30.006 26.3611 30.1281 26.6363 30.1281 26.9232V37.668C30.1281 38.0051 30.4015 38.2785 30.7387 38.2785C31.0758 38.2785 31.3492 38.0052 31.3492 37.668V36.6912C31.3492 36.4042 31.4713 36.1291 31.6843 35.9364C31.9002 35.7411 32.1805 35.6495 32.4737 35.679C32.9843 35.7301 33.3842 36.2155 33.3842 36.784V38.319C33.3842 38.6562 33.6576 38.9296 33.9948 38.9296C34.3319 38.9296 34.6053 38.6563 34.6053 38.319V37.3422C34.6053 37.0553 34.7274 36.7801 34.9404 36.5874C35.1563 36.3921 35.4367 36.3006 35.7298 36.3301C36.2404 36.3812 36.6403 36.8666 36.6403 37.4351V38.9702C36.6403 39.3073 36.9137 39.5807 37.2509 39.5807C37.588 39.5807 37.8614 39.3074 37.8614 38.9702V37.9933C37.8614 37.7064 37.9835 37.4313 38.1965 37.2385C38.4124 37.0433 38.6925 36.9516 38.9859 36.9813C39.4965 37.0323 39.8964 37.5177 39.8964 38.0862V44.8311H39.8961Z" fill="black"/>
</svg>
