<svg width="66" height="80" viewBox="0 0 66 80" fill="none" xmlns="http://www.w3.org/2000/svg">
<path d="M58.962 74.9248H4.68903C2.92572 74.9248 1.49655 73.4956 1.49655 71.7323V4.68903C1.49655 2.92572 2.92572 1.49655 4.68903 1.49655H58.962C60.7253 1.49655 62.1545 2.92572 62.1545 4.68903V71.7321C62.1547 73.4954 60.7253 74.9248 58.962 74.9248Z" fill="#F1F4FB"/>
<path d="M15.8629 25.4403C18.5076 25.4403 20.6516 23.2963 20.6516 20.6516C20.6516 18.0068 18.5076 15.8629 15.8629 15.8629C13.2181 15.8629 11.0742 18.0068 11.0742 20.6516C11.0742 23.2963 13.2181 25.4403 15.8629 25.4403Z" fill="#B4E66E"/>
<path d="M15.8629 42.9993C18.5076 42.9993 20.6516 40.8553 20.6516 38.2106C20.6516 35.5658 18.5076 33.4219 15.8629 33.4219C13.2181 33.4219 11.0742 35.5658 11.0742 38.2106C11.0742 40.8553 13.2181 42.9993 15.8629 42.9993Z" fill="#DAE169"/>
<path d="M15.8629 60.5582C18.5076 60.5582 20.6516 58.4143 20.6516 55.7695C20.6516 53.1248 18.5076 50.9808 15.8629 50.9808C13.2181 50.9808 11.0742 53.1248 11.0742 55.7695C11.0742 58.4143 13.2181 60.5582 15.8629 60.5582Z" fill="#FFDC64"/>
<path d="M62.777 56.7492C61.0983 56.5862 59.6833 57.8609 59.6833 59.4564V58.5231C59.6833 57.0996 58.6278 55.8026 57.168 55.6608C55.4893 55.4977 54.0743 56.7724 54.0743 58.3679V57.4346C54.0743 56.0111 53.0188 54.714 51.559 54.5723C49.8803 54.4092 48.4654 55.6839 48.4654 57.2794V40.9518C48.4654 39.3563 47.0504 38.0816 45.3717 38.2446C43.912 38.3864 42.8564 39.6835 42.8564 41.1069V54.558L39.4569 57.8567C38.0834 59.1895 37.5184 61.1169 37.9633 62.9517L40.3103 72.6307C41.1449 76.0726 44.3099 78.5051 47.954 78.5051H57.44C61.7767 78.5051 65.2923 75.0937 65.2923 70.8856V59.6116C65.2923 58.188 64.2368 56.8909 62.777 56.7492Z" fill="#F0C087"/>
<path d="M20.6518 19.1552C19.8254 19.1552 19.1552 19.8252 19.1552 20.6518C19.1552 22.4672 17.6783 23.9441 15.8629 23.9441C14.0475 23.9441 12.5706 22.4672 12.5706 20.6518C12.5706 18.8364 14.0475 17.3594 15.8629 17.3594C16.6893 17.3594 17.3595 16.6895 17.3595 15.8629C17.3595 15.0365 16.6895 14.3663 15.8629 14.3663C12.3971 14.3663 9.57764 17.186 9.57764 20.6516C9.57764 24.1172 12.3973 26.9368 15.8629 26.9368C19.3287 26.9368 22.1482 24.1172 22.1482 20.6516C22.1482 19.8252 21.4782 19.1552 20.6518 19.1552Z" fill="black"/>
<path d="M20.6518 36.714C19.8254 36.714 19.1552 37.384 19.1552 38.2106C19.1552 40.026 17.6783 41.5029 15.8629 41.5029C14.0475 41.5029 12.5706 40.026 12.5706 38.2106C12.5706 36.3952 14.0475 34.9182 15.8629 34.9182C16.6893 34.9182 17.3595 34.2482 17.3595 33.4217C17.3595 32.5951 16.6895 31.9251 15.8629 31.9251C12.3971 31.9251 9.57764 34.7448 9.57764 38.2104C9.57764 41.676 12.3973 44.4956 15.8629 44.4956C19.3287 44.4956 22.1482 41.676 22.1482 38.2104C22.1482 37.3842 21.4782 36.714 20.6518 36.714Z" fill="black"/>
<path d="M38.2106 39.9066H27.0367C26.2103 39.9066 25.5402 40.5766 25.5402 41.4032C25.5402 42.2298 26.2101 42.8998 27.0367 42.8998H38.2106C39.037 42.8998 39.7071 42.2298 39.7071 41.4032C39.7071 40.5766 39.0371 39.9066 38.2106 39.9066Z" fill="black"/>
<path d="M38.2106 33.5215H27.0367C26.2103 33.5215 25.5402 34.1915 25.5402 35.0181C25.5402 35.8447 26.2101 36.5147 27.0367 36.5147H38.2106C39.037 36.5147 39.7071 35.8447 39.7071 35.0181C39.7071 34.1915 39.0371 33.5215 38.2106 33.5215Z" fill="black"/>
<path d="M36.5146 58.962C36.5146 58.1356 35.8447 57.4655 35.0181 57.4655H27.0367C26.2103 57.4655 25.5402 58.1354 25.5402 58.962C25.5402 59.7884 26.2101 60.4586 27.0367 60.4586H35.0181C35.8445 60.4586 36.5146 59.7884 36.5146 58.962Z" fill="black"/>
<path d="M38.2106 51.0805H27.0367C26.2103 51.0805 25.5402 51.7505 25.5402 52.5771C25.5402 53.4035 26.2101 54.0736 27.0367 54.0736H38.2106C39.037 54.0736 39.7071 53.4036 39.7071 52.5771C39.7071 51.7505 39.0371 51.0805 38.2106 51.0805Z" fill="black"/>
<path d="M54.0734 23.8442C54.0734 23.0178 53.4035 22.3477 52.5769 22.3477H27.0367C26.2103 22.3477 25.5402 23.0177 25.5402 23.8442C25.5402 24.6706 26.2101 25.3408 27.0367 25.3408H52.5769C53.4035 25.3406 54.0734 24.6706 54.0734 23.8442Z" fill="black"/>
<path d="M27.0367 18.9557H46.1919C47.0183 18.9557 47.6885 18.2857 47.6885 17.4591C47.6885 16.6327 47.0185 15.9626 46.1919 15.9626H27.0367C26.2103 15.9626 25.5402 16.6325 25.5402 17.4591C25.5403 18.2857 26.2103 18.9557 27.0367 18.9557Z" fill="black"/>
<path d="M15.8629 52.4772C16.6893 52.4772 17.3595 51.8072 17.3595 50.9806C17.3595 50.1542 16.6895 49.4841 15.8629 49.4841C12.3971 49.4841 9.57764 52.3038 9.57764 55.7693C9.57764 59.2351 12.3973 62.0546 15.8629 62.0546C19.3287 62.0546 22.1482 59.2349 22.1482 55.7693C22.1482 54.9429 21.4782 54.2728 20.6516 54.2728C19.8252 54.2728 19.1551 54.9428 19.1551 55.7693C19.1551 57.5847 17.6781 59.0617 15.8627 59.0617C14.0473 59.0617 12.5704 57.5847 12.5704 55.7693C12.5707 53.9541 14.0477 52.4772 15.8629 52.4772Z" fill="black"/>
<path d="M31.8256 73.4282H4.68903C3.7538 73.4282 2.99292 72.6673 2.99292 71.7321V4.68903C2.99292 3.7538 3.7538 2.99292 4.68903 2.99292H58.962C59.8972 2.99292 60.6581 3.7538 60.6581 4.68903V54.1735C60.6581 54.9999 61.3281 55.67 62.1547 55.67C62.9811 55.67 63.6512 55.0001 63.6512 54.1735V4.68903C63.651 2.10343 61.5476 0 58.962 0H4.68903C2.10361 0 0 2.10343 0 4.68903V71.7321C0 74.3177 2.10343 76.4211 4.68903 76.4211H31.8256C32.652 76.4211 33.3222 75.7512 33.3222 74.9246C33.3222 74.0982 32.652 73.4282 31.8256 73.4282Z" fill="black"/>
<path d="M62.5717 57.2263C61.6638 57.1358 60.7565 57.3931 60.0383 57.9384C59.4662 56.9785 58.4907 56.2975 57.3621 56.1844C56.454 56.094 55.5467 56.3513 54.8287 56.8965C54.2566 55.9366 53.2811 55.2556 52.1524 55.1425C51.4591 55.0733 50.7668 55.2068 50.1584 55.5165V43.077C50.1584 42.067 49.7288 41.0988 48.9793 40.4208C48.2306 39.7433 47.2216 39.4126 46.2109 39.5137C44.4077 39.6942 42.9953 41.3247 42.9953 43.2255V55.6964L40.1238 58.5678C38.598 60.0937 37.982 62.2587 38.4764 64.3592L40.6563 73.6239C41.5396 77.3781 44.85 80 48.7067 80H57.5169C62.0771 80 65.7872 76.29 65.7872 71.7297V60.9382C65.7873 59.0373 64.3749 57.4069 62.5717 57.2263ZM63.8337 71.7297C63.8337 75.2127 61 78.0463 57.5171 78.0463H48.7068C45.7612 78.0463 43.2326 76.0438 42.558 73.1764L40.378 63.9116C40.0398 62.4745 40.4612 60.9931 41.5052 59.9491L42.9953 58.459V61.8315C42.9953 62.3709 43.4326 62.8083 43.9721 62.8083C44.5115 62.8083 44.9489 62.371 44.9489 61.8315V43.2255C44.9489 42.3159 45.5887 41.5393 46.4057 41.4577C46.8749 41.4105 47.3237 41.5568 47.6688 41.8694C48.0096 42.1778 48.205 42.618 48.205 43.0771V60.2688C48.205 60.8082 48.6423 61.2456 49.1819 61.2456C49.7213 61.2456 50.1587 60.8083 50.1587 60.2688V58.7059C50.1587 58.2468 50.354 57.8065 50.6949 57.4982C51.0402 57.1857 51.4888 57.0392 51.958 57.0864C52.7748 57.1682 53.4148 57.9448 53.4148 58.8544V61.3105C53.4148 61.8499 53.8521 62.2873 54.3916 62.2873C54.931 62.2873 55.3684 61.85 55.3684 61.3105V59.7475C55.3684 59.2884 55.5638 58.8482 55.9047 58.5398C56.25 58.2274 56.6986 58.0809 57.1677 58.1281C57.9846 58.2099 58.6245 58.9865 58.6245 59.8961V62.3522C58.6245 62.8917 59.0618 63.3291 59.6014 63.3291C60.1408 63.3291 60.5782 62.8918 60.5782 62.3522V60.7893C60.5782 60.3302 60.7735 59.89 61.1144 59.5816C61.4598 59.2693 61.908 59.1226 62.3775 59.17C63.1943 59.2516 63.8343 60.0283 63.8343 60.9379V71.7297H63.8337Z" fill="black"/>
</svg>
