<svg width="80" height="80" viewBox="0 0 80 80" fill="none" xmlns="http://www.w3.org/2000/svg">
<path d="M56.7014 62.7141H11.2734C9.79751 62.7141 8.60126 61.5178 8.60126 60.0419V3.92484C8.60126 2.4489 9.79751 1.25266 11.2734 1.25266H56.7014C58.1774 1.25266 59.3736 2.4489 59.3736 3.92484V60.0417C59.3738 61.5177 58.1774 62.7141 56.7014 62.7141Z" fill="#F1F4FB"/>
<path d="M59.3738 60.0417V46.9613C59.3474 46.9686 59.3194 46.9711 59.2931 46.9788C58.223 46.1025 56.9019 45.5277 55.4413 45.3816C55.4161 45.3791 55.3906 45.3767 55.3656 45.3744V32.6513C55.3656 28.5994 52.0692 25.3028 48.0174 25.3027H48.0172C47.7719 25.3027 47.5238 25.3148 47.2733 25.3398C43.508 25.7167 40.6683 28.9419 40.6683 32.8419V47.6925L37.7931 50.5677C35.1569 53.2039 34.0927 56.9449 34.9466 60.5741L35.4502 62.7141H56.7016C58.1772 62.7141 59.3738 61.5175 59.3738 60.0417Z" fill="#D5DCED"/>
<path d="M20.6263 21.2942C22.84 21.2942 24.6345 19.4996 24.6345 17.2859C24.6345 15.0722 22.84 13.2776 20.6263 13.2776C18.4125 13.2776 16.618 15.0722 16.618 17.2859C16.618 19.4996 18.4125 21.2942 20.6263 21.2942Z" fill="#B4E66E"/>
<path d="M20.6263 35.9916C22.84 35.9916 24.6345 34.197 24.6345 31.9833C24.6345 29.7696 22.84 27.975 20.6263 27.975C18.4125 27.975 16.618 29.7696 16.618 31.9833C16.618 34.197 18.4125 35.9916 20.6263 35.9916Z" fill="#DAE169"/>
<path d="M20.6263 50.6889C22.84 50.6889 24.6345 48.8943 24.6345 46.6806C24.6345 44.4669 22.84 42.6723 20.6263 42.6723C18.4125 42.6723 16.618 44.4669 16.618 46.6806C16.618 48.8943 18.4125 50.6889 20.6263 50.6889Z" fill="#FFDC64"/>
<path d="M68.4028 52.0425C66.4033 51.8423 64.718 53.407 64.718 55.3655V54.2198C64.718 52.4725 63.4608 50.8805 61.722 50.7064C59.7225 50.5063 58.0372 52.0709 58.0372 54.0294V52.8838C58.0372 51.1364 56.78 49.5442 55.0413 49.3703C53.0417 49.1702 51.3564 50.7348 51.3564 52.6933V32.6514C51.3564 30.693 49.6711 29.1283 47.6716 29.3284C45.933 29.5025 44.6756 31.0947 44.6756 32.8419V49.3528L40.6266 53.4019C38.9906 55.0378 38.3177 57.4038 38.8475 59.6559L41.643 71.5367C42.637 75.7616 46.4069 78.7473 50.7473 78.7473H62.0459C67.2114 78.7473 71.3988 74.56 71.3988 69.3945V55.5559C71.3988 53.8086 70.1416 52.2164 68.4028 52.0425Z" fill="#F0C087"/>
<path d="M52.6931 55.9495C53.4309 55.9495 54.0292 55.3512 54.0292 54.6134V49.438C52.5076 49.75 51.357 51.0792 51.357 52.6931V54.6134C51.357 55.3512 51.9553 55.9495 52.6931 55.9495Z" fill="#E6AF78"/>
<path d="M59.3738 57.2856C60.1116 57.2856 60.7098 56.6873 60.7098 55.9495V50.774C59.1883 51.0861 58.0377 52.4153 58.0377 54.0292V55.9495C58.0377 56.6875 58.6358 57.2856 59.3738 57.2856Z" fill="#E6AF78"/>
<path d="M66.0542 58.6217C66.792 58.6217 67.3903 58.0234 67.3903 57.2856V52.1101C65.8687 52.4222 64.7181 53.7514 64.7181 55.3653V57.2856C64.7181 58.0236 65.3164 58.6217 66.0542 58.6217Z" fill="#E6AF78"/>
<path d="M44.9773 71.5367L41.8795 58.3709C41.5376 56.9178 41.9719 55.3911 43.0276 54.3353L44.6765 52.6864V56.0334C44.6765 56.7712 45.2748 57.3695 46.0126 57.3695C46.7504 57.3695 47.3487 56.7712 47.3487 56.0334V29.3948C45.7831 29.7237 44.6765 31.207 44.6765 32.8417V49.3528L40.6275 53.4019C38.9915 55.0378 38.3186 57.4037 38.8484 59.6559L41.6439 71.5367C42.6379 75.7616 46.4078 78.7473 50.7479 78.7473H54.0817C49.7412 78.7473 45.9714 75.7616 44.9773 71.5367Z" fill="#E6AF78"/>
<path d="M24.6347 16.0334C23.943 16.0334 23.382 16.5942 23.382 17.2861C23.382 18.8056 22.1458 20.0419 20.6263 20.0419C19.1067 20.0419 17.8705 18.8056 17.8705 17.2861C17.8705 15.7666 19.1067 14.5303 20.6263 14.5303C21.318 14.5303 21.8789 13.9695 21.8789 13.2776C21.8789 12.5859 21.3181 12.025 20.6263 12.025C17.7253 12.025 15.3653 14.3851 15.3653 17.2859C15.3653 20.1867 17.7255 22.5469 20.6263 22.5469C23.5272 22.5469 25.8872 20.1867 25.8872 17.2859C25.8872 16.5942 25.3264 16.0334 24.6347 16.0334Z" fill="black"/>
<path d="M24.6347 30.7306C23.943 30.7306 23.382 31.2914 23.382 31.9833C23.382 33.5028 22.1458 34.7391 20.6263 34.7391C19.1067 34.7391 17.8705 33.5028 17.8705 31.9833C17.8705 30.4637 19.1067 29.2275 20.6263 29.2275C21.318 29.2275 21.8789 28.6667 21.8789 27.9748C21.8789 27.283 21.3181 26.7222 20.6263 26.7222C17.7253 26.7222 15.3653 29.0823 15.3653 31.9831C15.3653 34.8839 17.7255 37.2441 20.6263 37.2441C23.5272 37.2441 25.8872 34.8839 25.8872 31.9831C25.8872 31.2916 25.3264 30.7306 24.6347 30.7306Z" fill="black"/>
<path d="M39.3319 33.403H29.9791C29.2873 33.403 28.7264 33.9637 28.7264 34.6556C28.7264 35.3475 29.2872 35.9083 29.9791 35.9083H39.3319C40.0236 35.9083 40.5845 35.3475 40.5845 34.6556C40.5845 33.9637 40.0238 33.403 39.3319 33.403Z" fill="black"/>
<path d="M39.3319 28.0584H29.9791C29.2873 28.0584 28.7264 28.6192 28.7264 29.3111C28.7264 30.003 29.2872 30.5638 29.9791 30.5638H39.3319C40.0236 30.5638 40.5845 30.003 40.5845 29.3111C40.5845 28.6192 40.0238 28.0584 39.3319 28.0584Z" fill="black"/>
<path d="M37.9123 49.3528C37.9123 48.6611 37.3516 48.1002 36.6597 48.1002H29.9791C29.2873 48.1002 28.7264 48.6609 28.7264 49.3528C28.7264 50.0445 29.2872 50.6055 29.9791 50.6055H36.6597C37.3514 50.6055 37.9123 50.0445 37.9123 49.3528Z" fill="black"/>
<path d="M39.3319 42.7558H29.9791C29.2873 42.7558 28.7264 43.3165 28.7264 44.0084C28.7264 44.7001 29.2872 45.2611 29.9791 45.2611H39.3319C40.0236 45.2611 40.5845 44.7003 40.5845 44.0084C40.5845 43.3165 40.0238 42.7558 39.3319 42.7558Z" fill="black"/>
<path d="M52.6095 19.9583C52.6095 19.2666 52.0488 18.7056 51.3569 18.7056H29.9791C29.2873 18.7056 28.7264 19.2664 28.7264 19.9583C28.7264 20.65 29.2872 21.2109 29.9791 21.2109H51.3569C52.0488 21.2108 52.6095 20.65 52.6095 19.9583Z" fill="black"/>
<path d="M29.9791 15.8664H46.0125C46.7042 15.8664 47.2652 15.3056 47.2652 14.6138C47.2652 13.922 46.7044 13.3611 46.0125 13.3611H29.9791C29.2873 13.3611 28.7264 13.9219 28.7264 14.6138C28.7266 15.3056 29.2873 15.8664 29.9791 15.8664Z" fill="black"/>
<path d="M20.6263 43.9248C21.318 43.9248 21.8789 43.3641 21.8789 42.6722C21.8789 41.9805 21.3181 41.4195 20.6263 41.4195C17.7253 41.4195 15.3653 43.7797 15.3653 46.6805C15.3653 49.5814 17.7255 51.9414 20.6263 51.9414C23.5272 51.9414 25.8872 49.5812 25.8872 46.6805C25.8872 45.9887 25.3264 45.4278 24.6345 45.4278C23.9428 45.4278 23.3819 45.9886 23.3819 46.6805C23.3819 48.2 22.1456 49.4362 20.6261 49.4362C19.1066 49.4362 17.8703 48.2 17.8703 46.6805C17.8706 45.1611 19.1069 43.9248 20.6263 43.9248Z" fill="black"/>
<path d="M33.9875 61.4614H11.2734C10.4906 61.4614 9.85376 60.8245 9.85376 60.0417V3.92484C9.85376 3.14203 10.4906 2.50516 11.2734 2.50516H56.7014C57.4842 2.50516 58.1211 3.14203 58.1211 3.92484V45.3447C58.1211 46.0364 58.6819 46.5973 59.3738 46.5973C60.0655 46.5973 60.6264 46.0366 60.6264 45.3447V3.92484C60.6263 1.76062 58.8656 0 56.7014 0H11.2734C9.10938 0 7.3486 1.76062 7.3486 3.92484V60.0417C7.3486 62.2059 9.10923 63.9666 11.2734 63.9666H33.9875C34.6792 63.9666 35.2402 63.4058 35.2402 62.7139C35.2402 62.0222 34.6792 61.4614 33.9875 61.4614Z" fill="black"/>
<path d="M68.5278 50.7959C67.3636 50.6798 66.2 51.0098 65.2791 51.7091C64.5455 50.4781 63.2945 49.6049 61.8472 49.4599C60.6827 49.3439 59.5192 49.6739 58.5984 50.373C57.8648 49.142 56.6139 48.2688 55.1666 48.1238C54.2775 48.035 53.3897 48.2063 52.6095 48.6033V32.6514C52.6095 31.3563 52.0586 30.1147 51.0975 29.2452C50.1373 28.3764 48.8434 27.9524 47.5473 28.082C45.235 28.3134 43.4238 30.4044 43.4238 32.8419V48.8341L39.7416 52.5163C37.7848 54.473 36.995 57.2492 37.6289 59.9428L40.4244 71.8236C41.557 76.6378 45.8022 80 50.7478 80H62.0458C67.8936 80 72.6513 75.2425 72.6513 69.3945V55.5559C72.6514 53.1183 70.8402 51.0275 68.5278 50.7959ZM70.1461 69.3945C70.1461 73.8609 66.5123 77.4947 62.0459 77.4947H50.748C46.9706 77.4947 43.7281 74.9267 42.863 71.2497L40.0675 59.3689C39.6338 57.5259 40.1742 55.6263 41.513 54.2875L43.4238 52.3767V56.7014C43.4238 57.3931 43.9845 57.9541 44.6764 57.9541C45.3681 57.9541 45.9291 57.3933 45.9291 56.7014V32.8419C45.9291 31.6755 46.7495 30.6795 47.7972 30.5749C48.3989 30.5144 48.9744 30.702 49.4169 31.1028C49.8539 31.4983 50.1045 32.0628 50.1045 32.6516V54.6975C50.1045 55.3892 50.6653 55.9502 51.3572 55.9502C52.0489 55.9502 52.6098 55.3894 52.6098 54.6975V52.6933C52.6098 52.1045 52.8603 51.54 53.2975 51.1445C53.7403 50.7439 54.3155 50.5559 54.9172 50.6166C55.9647 50.7214 56.7853 51.7173 56.7853 52.8838V56.0333C56.7853 56.725 57.3461 57.2859 58.038 57.2859C58.7297 57.2859 59.2906 56.7252 59.2906 56.0333V54.0291C59.2906 53.4403 59.5411 52.8758 59.9783 52.4803C60.4211 52.0797 60.9964 51.8919 61.598 51.9524C62.6455 52.0572 63.4661 53.0531 63.4661 54.2195V57.3692C63.4661 58.0609 64.0269 58.6219 64.7188 58.6219C65.4105 58.6219 65.9714 58.0611 65.9714 57.3692V55.365C65.9714 54.7763 66.2219 54.2117 66.6591 53.8163C67.1019 53.4158 67.6767 53.2277 68.2788 53.2884C69.3263 53.3931 70.1469 54.3891 70.1469 55.5555V69.3945H70.1461Z" fill="black"/>
</svg>
