<svg width="75" height="75" viewBox="0 0 75 75" fill="none" xmlns="http://www.w3.org/2000/svg">
<path d="M53.1576 58.7944H10.5688C9.18514 58.7944 8.06366 57.6729 8.06366 56.2892V3.67954C8.06366 2.29585 9.18514 1.17436 10.5688 1.17436H53.1576C54.5412 1.17436 55.6627 2.29585 55.6627 3.67954V56.2891C55.6629 57.6728 54.5412 58.7944 53.1576 58.7944Z" fill="#F1F4FB"/>
<path d="M55.6629 56.2891V44.0262C55.6381 44.0331 55.6119 44.0354 55.5873 44.0426C54.584 43.2211 53.3455 42.6822 51.9762 42.5452C51.9526 42.5429 51.9287 42.5407 51.9053 42.5385V30.6105C51.9053 26.8119 48.8149 23.7214 45.0163 23.7212H45.0161C44.7861 23.7212 44.5535 23.7327 44.3187 23.7561C40.7887 24.1094 38.1265 27.133 38.1265 30.7893V44.7117L35.4311 47.4072C32.9596 49.8787 31.9619 53.3858 32.7624 56.7882L33.2345 58.7944H53.1577C54.5411 58.7944 55.6629 57.6727 55.6629 56.2891Z" fill="#D5DCED"/>
<path d="M19.3371 19.9633C21.4125 19.9633 23.0949 18.2809 23.0949 16.2056C23.0949 14.1302 21.4125 12.4478 19.3371 12.4478C17.2618 12.4478 15.5793 14.1302 15.5793 16.2056C15.5793 18.2809 17.2618 19.9633 19.3371 19.9633Z" fill="#B4E66E"/>
<path d="M19.3371 33.7421C21.4125 33.7421 23.0949 32.0597 23.0949 29.9843C23.0949 27.909 21.4125 26.2266 19.3371 26.2266C17.2618 26.2266 15.5793 27.909 15.5793 29.9843C15.5793 32.0597 17.2618 33.7421 19.3371 33.7421Z" fill="#DAE169"/>
<path d="M19.3371 47.5208C21.4125 47.5208 23.0949 45.8384 23.0949 43.7631C23.0949 41.6877 21.4125 40.0053 19.3371 40.0053C17.2618 40.0053 15.5793 41.6877 15.5793 43.7631C15.5793 45.8384 17.2618 47.5208 19.3371 47.5208Z" fill="#FFDC64"/>
<path d="M64.1276 48.7898C62.2531 48.6022 60.6731 50.0691 60.6731 51.9051V50.8311C60.6731 49.193 59.4945 47.7004 57.8644 47.5372C55.9898 47.3496 54.4099 48.8165 54.4099 50.6525V49.5785C54.4099 47.9404 53.2312 46.4477 51.6012 46.2847C49.7266 46.097 48.1466 47.5639 48.1466 49.3999V30.6107C48.1466 28.7747 46.5666 27.3078 44.6921 27.4954C43.0621 27.6586 41.8834 29.1513 41.8834 30.7893V46.2683L38.0874 50.0643C36.5537 51.5979 35.9228 53.816 36.4195 55.9274L39.0403 67.0657C39.9722 71.0265 43.5064 73.8256 47.5756 73.8256H58.1681C63.0107 73.8256 66.9363 69.9 66.9363 65.0574V52.0837C66.9363 50.4456 65.7577 48.9529 64.1276 48.7898Z" fill="#F0C087"/>
<path d="M49.3998 52.4527C50.0915 52.4527 50.6524 51.8918 50.6524 51.2001V46.3481C49.2259 46.6406 48.1472 47.8868 48.1472 49.3998V51.2001C48.1472 51.8918 48.7081 52.4527 49.3998 52.4527Z" fill="#E6AF78"/>
<path d="M55.6629 53.7053C56.3546 53.7053 56.9155 53.1444 56.9155 52.4527V47.6007C55.489 47.8932 54.4103 49.1393 54.4103 50.6524V52.4527C54.4103 53.1445 54.9711 53.7053 55.6629 53.7053Z" fill="#E6AF78"/>
<path d="M61.9259 54.9579C62.6176 54.9579 63.1785 54.397 63.1785 53.7053V48.8533C61.752 49.1458 60.6733 50.3919 60.6733 51.905V53.7053C60.6733 54.3971 61.2342 54.9579 61.9259 54.9579Z" fill="#E6AF78"/>
<path d="M42.1663 67.0657L39.2621 54.7228C38.9416 53.3604 39.3487 51.9291 40.3385 50.9394L41.8843 49.3935V52.5313C41.8843 53.223 42.4452 53.7839 43.1369 53.7839C43.8286 53.7839 44.3895 53.223 44.3895 52.5313V27.5577C42.9217 27.866 41.8843 29.2566 41.8843 30.7891V46.2683L38.0883 50.0643C36.5546 51.5979 35.9237 53.816 36.4204 55.9274L39.0412 67.0657C39.9731 71.0265 43.5074 73.8256 47.5762 73.8256H50.7016C46.6324 73.8256 43.0982 71.0265 42.1663 67.0657Z" fill="#E6AF78"/>
<path d="M23.095 15.0313C22.4465 15.0313 21.9206 15.5571 21.9206 16.2057C21.9206 17.6303 20.7617 18.7893 19.3371 18.7893C17.9125 18.7893 16.7536 17.6303 16.7536 16.2057C16.7536 14.7812 17.9125 13.6222 19.3371 13.6222C19.9856 13.6222 20.5115 13.0964 20.5115 12.4478C20.5115 11.7993 19.9857 11.2734 19.3371 11.2734C16.6175 11.2734 14.405 13.4861 14.405 16.2056C14.405 18.925 16.6176 21.1377 19.3371 21.1377C22.0567 21.1377 24.2692 18.925 24.2692 16.2056C24.2692 15.5571 23.7435 15.0313 23.095 15.0313Z" fill="black"/>
<path d="M23.095 28.81C22.4465 28.81 21.9206 29.3357 21.9206 29.9843C21.9206 31.4089 20.7617 32.5679 19.3371 32.5679C17.9125 32.5679 16.7536 31.4089 16.7536 29.9843C16.7536 28.5598 17.9125 27.4008 19.3371 27.4008C19.9856 27.4008 20.5115 26.875 20.5115 26.2264C20.5115 25.5778 19.9857 25.052 19.3371 25.052C16.6175 25.052 14.405 27.2647 14.405 29.9842C14.405 32.7037 16.6176 34.9163 19.3371 34.9163C22.0567 34.9163 24.2692 32.7037 24.2692 29.9842C24.2692 29.3358 23.7435 28.81 23.095 28.81Z" fill="black"/>
<path d="M36.8736 31.3153H28.1054C27.4569 31.3153 26.931 31.841 26.931 32.4896C26.931 33.1383 27.4567 33.664 28.1054 33.664H36.8736C37.5221 33.664 38.048 33.1383 38.048 32.4896C38.048 31.841 37.5223 31.3153 36.8736 31.3153Z" fill="black"/>
<path d="M36.8736 26.3048H28.1054C27.4569 26.3048 26.931 26.8305 26.931 27.4791C26.931 28.1278 27.4567 28.6535 28.1054 28.6535H36.8736C37.5221 28.6535 38.048 28.1278 38.048 27.4791C38.048 26.8305 37.5223 26.3048 36.8736 26.3048Z" fill="black"/>
<path d="M35.5428 46.2683C35.5428 45.6198 35.0171 45.0939 34.3685 45.0939H28.1054C27.4569 45.0939 26.931 45.6196 26.931 46.2683C26.931 46.9168 27.4567 47.4426 28.1054 47.4426H34.3685C35.0169 47.4426 35.5428 46.9168 35.5428 46.2683Z" fill="black"/>
<path d="M36.8736 40.0836H28.1054C27.4569 40.0836 26.931 40.6093 26.931 41.2579C26.931 41.9064 27.4567 42.4323 28.1054 42.4323H36.8736C37.5221 42.4323 38.048 41.9066 38.048 41.2579C38.048 40.6093 37.5223 40.0836 36.8736 40.0836Z" fill="black"/>
<path d="M49.3214 18.7109C49.3214 18.0624 48.7957 17.5365 48.1471 17.5365H28.1054C27.4569 17.5365 26.931 18.0623 26.931 18.7109C26.931 19.3594 27.4567 19.8853 28.1054 19.8853H48.1471C48.7957 19.8851 49.3214 19.3594 49.3214 18.7109Z" fill="black"/>
<path d="M28.1054 14.8748H43.1367C43.7852 14.8748 44.3111 14.349 44.3111 13.7004C44.3111 13.0519 43.7853 12.526 43.1367 12.526H28.1054C27.4569 12.526 26.931 13.0518 26.931 13.7004C26.9311 14.349 27.4569 14.8748 28.1054 14.8748Z" fill="black"/>
<path d="M19.3371 41.1795C19.9856 41.1795 20.5115 40.6538 20.5115 40.0052C20.5115 39.3567 19.9857 38.8308 19.3371 38.8308C16.6175 38.8308 14.405 41.0435 14.405 43.7629C14.405 46.4826 16.6176 48.6951 19.3371 48.6951C22.0567 48.6951 24.2692 46.4824 24.2692 43.7629C24.2692 43.1145 23.7435 42.5886 23.0949 42.5886C22.4464 42.5886 21.9205 43.1143 21.9205 43.7629C21.9205 45.1875 20.7615 46.3465 19.337 46.3465C17.9124 46.3465 16.7534 45.1875 16.7534 43.7629C16.7537 42.3385 17.9127 41.1795 19.3371 41.1795Z" fill="black"/>
<path d="M31.8633 57.6201H10.5689C9.83497 57.6201 9.2379 57.023 9.2379 56.2891V3.67954C9.2379 2.94565 9.83497 2.34858 10.5689 2.34858H53.1576C53.8915 2.34858 54.4885 2.94565 54.4885 3.67954V42.5106C54.4885 43.1591 55.0143 43.685 55.6629 43.685C56.3114 43.685 56.8373 43.1593 56.8373 42.5106V3.67954C56.8371 1.65059 55.1865 0 53.1576 0H10.5689C8.54005 0 6.88931 1.65059 6.88931 3.67954V56.2891C6.88931 58.3181 8.5399 59.9687 10.5689 59.9687H31.8633C32.5118 59.9687 33.0377 59.4429 33.0377 58.7943C33.0377 58.1458 32.5118 57.6201 31.8633 57.6201Z" fill="black"/>
<path d="M64.2448 47.6212C63.1534 47.5124 62.0625 47.8217 61.1991 48.4773C60.5114 47.3232 59.3386 46.5045 57.9818 46.3686C56.89 46.2599 55.7993 46.5693 54.9361 47.2247C54.2483 46.0707 53.0756 45.252 51.7187 45.116C50.8852 45.0328 50.0528 45.1934 49.3215 45.5656V30.6107C49.3215 29.3965 48.8049 28.2325 47.9039 27.4173C47.0038 26.6029 45.7907 26.2053 44.5757 26.3269C42.4078 26.5439 40.7098 28.5041 40.7098 30.7893V45.7819L37.2577 49.234C35.4233 51.0684 34.6828 53.6712 35.2771 56.1964L37.8979 67.3346C38.9597 71.848 42.9396 75 47.5761 75H58.1679C63.6503 75 68.1106 70.5399 68.1106 65.0574V52.0837C68.1107 49.7984 66.4127 47.8383 64.2448 47.6212ZM65.762 65.0574C65.762 69.2446 62.3553 72.6513 58.1681 72.6513H47.5762C44.035 72.6513 40.9951 70.2438 40.1841 66.7966L37.5633 55.6584C37.1567 53.9306 37.6634 52.1496 38.9184 50.8945L40.7098 49.1032V53.1576C40.7098 53.8061 41.2355 54.3319 41.8841 54.3319C42.5326 54.3319 43.0585 53.8062 43.0585 53.1576V30.7893C43.0585 29.6958 43.8277 28.7621 44.8099 28.6639C45.374 28.6072 45.9135 28.7832 46.3283 29.1589C46.7381 29.5296 46.973 30.0589 46.973 30.6108V51.2789C46.973 51.9274 47.4987 52.4533 48.1474 52.4533C48.7959 52.4533 49.3217 51.9275 49.3217 51.2789V49.4C49.3217 48.848 49.5566 48.3188 49.9664 47.948C50.3816 47.5724 50.9208 47.3962 51.4849 47.453C52.4669 47.5513 53.2362 48.485 53.2362 49.5785V52.5312C53.2362 53.1797 53.762 53.7056 54.4106 53.7056C55.0591 53.7056 55.585 53.1798 55.585 52.5312V50.6523C55.585 50.1003 55.8198 49.5711 56.2297 49.2003C56.6448 48.8247 57.1841 48.6486 57.7481 48.7053C58.7301 48.8036 59.4995 49.7373 59.4995 50.8308V53.7836C59.4995 54.4321 60.0252 54.958 60.6738 54.958C61.3223 54.958 61.8482 54.4323 61.8482 53.7836V51.9047C61.8482 51.3527 62.083 50.8235 62.4929 50.4527C62.908 50.0773 63.4469 49.9009 64.0113 49.9579C64.9934 50.0561 65.7627 50.9898 65.7627 52.0833V65.0574H65.762Z" fill="black"/>
</svg>
