<?xml version="1.0" encoding="iso-8859-1"?>
<!-- Generator: Adobe Illustrator 18.0.0, SVG Export Plug-In . SVG Version: 6.00 Build 0)  -->
<!DOCTYPE svg PUBLIC "-//W3C//DTD SVG 1.1//EN" "http://www.w3.org/Graphics/SVG/1.1/DTD/svg11.dtd">
<svg version="1.1" id="Capa_1" xmlns="http://www.w3.org/2000/svg" xmlns:xlink="http://www.w3.org/1999/xlink" x="0px" y="0px"
	 viewBox="0 0 446.756 446.756" style="enable-background:new 0 0 446.756 446.756;" xml:space="preserve">
<g>
	<path style="fill:#496A72;" d="M80.003,161.545L80.003,161.545c-16.27,14.084-25.619,34.542-25.619,56.062v49.175h53.191"/>
	<path style="fill:#496A72;" d="M170.637,161.545L170.637,161.545c16.27,14.084,25.619,34.542,25.619,56.062v49.175h-53.191"/>
	<polygon style="fill:#738B93;" points="170.637,266.781 80.003,266.781 80.003,161.545 125.32,157.945 170.637,161.545 	"/>
	<polygon style="fill:#496A72;" points="125.316,171.038 121.224,177.11 111.257,191.905 98.164,160.4 110.586,156.308 	"/>
	<polygon style="fill:#496A72;" points="152.476,160.4 139.383,191.905 129.407,177.11 125.316,171.038 140.045,156.308 	"/>
	<polygon style="fill:#496A72;" points="129.407,166.946 129.407,266.781 121.224,266.781 121.224,166.946 125.316,171.038 	"/>
	<path style="fill:#EDCEB2;" d="M125.32,171.038L125.32,171.038c-8.135,0-14.73-6.595-14.73-14.73v-16.366h29.459v16.366
		C140.05,164.443,133.455,171.038,125.32,171.038z"/>
	<path style="fill:#F9D8B7;" d="M86.02,88.298l4.124,30.556c2.373,17.61,17.406,30.752,35.171,30.752h0.008
		c17.766,0,32.798-13.142,35.171-30.752l4.124-30.556H86.02z"/>
	<g>
		<path style="fill:#EDA856;" d="M172.318,88.295H78.322c0-4.523,0.641-8.897,1.841-13.033h90.315
			C171.677,79.398,172.318,83.771,172.318,88.295z"/>
		<path style="fill:#EDA856;" d="M137.465,35.993l-3.006,39.269h-18.273l-3.009-39.269l-0.203-2.646
			c3.931-1.082,8.071-1.664,12.347-1.664c4.276,0,8.416,0.581,12.347,1.664L137.465,35.993z"/>
		<polygon style="fill:#EDA856;" points="150.515,88.295 148.442,91.47 144.217,97.938 106.422,97.938 102.198,91.47 
			100.124,88.295 		"/>
		<g>
			<path style="fill:#CC731B;" d="M116.186,75.261h18.273l0,0.001h32c0-1.521-0.082-3.024-0.245-4.503
				c-1.581-14.54-10.741-26.805-23.444-32.762c-1.644-0.773-3.347-1.439-5.102-1.989l-0.203-0.016l-2.662,34.767h-18.962
				l-2.664-34.767l-0.203,0.016c-1.755,0.55-3.459,1.216-5.102,1.989c-12.705,5.957-21.865,18.222-23.446,32.762
				c-0.163,1.479-0.245,2.982-0.245,4.503L116.186,75.261L116.186,75.261z"/>
			<polygon style="fill:#CC731B;" points="102.198,91.47 148.442,91.47 150.515,88.295 100.124,88.295 			"/>
		</g>
		<g>
			<path style="fill:#EDA856;" d="M107.872,37.997l3.143,32.762h-26.59C86.007,56.219,95.167,43.954,107.872,37.997z"/>
			<path style="fill:#EDA856;" d="M166.214,70.759h-26.587l3.143-32.762C155.473,43.954,164.632,56.219,166.214,70.759z"/>
		</g>
	</g>
	<g>
		<rect x="137.39" y="202.952" style="fill:#496A72;" width="26.595" height="9.411"/>
		<rect x="86.654" y="202.952" style="fill:#496A72;" width="26.595" height="9.411"/>
	</g>
	<path style="fill:#496A72;" d="M279.897,161.545L279.897,161.545c-16.27,14.084-25.619,34.542-25.619,56.062v49.175h53.191"/>
	<path style="fill:#496A72;" d="M370.531,161.545L370.531,161.545c16.27,14.084,25.619,34.542,25.619,56.062v49.175h-53.191"/>
	<polygon style="fill:#738B93;" points="370.531,266.781 279.897,266.781 279.897,161.545 325.214,157.945 370.531,161.545 	"/>
	<polygon style="fill:#496A72;" points="325.21,171.038 321.118,177.11 311.151,191.905 298.058,160.4 310.48,156.308 	"/>
	<polygon style="fill:#496A72;" points="352.37,160.4 339.277,191.905 329.301,177.11 325.21,171.038 339.939,156.308 	"/>
	<polygon style="fill:#496A72;" points="329.301,166.946 329.301,266.781 321.118,266.781 321.118,166.946 325.21,171.038 	"/>
	<path style="fill:#EDCEB2;" d="M325.214,171.038L325.214,171.038c-8.135,0-14.73-6.595-14.73-14.73v-16.366h29.459v16.366
		C339.944,164.443,333.349,171.038,325.214,171.038z"/>
	<path style="fill:#F9D8B7;" d="M285.914,88.298l4.124,30.556c2.373,17.61,17.406,30.752,35.171,30.752h0.008
		c17.766,0,32.798-13.142,35.171-30.752l4.124-30.556H285.914z"/>
	<g>
		<path style="fill:#EDA856;" d="M372.212,88.295h-93.996c0-4.523,0.641-8.897,1.841-13.033h90.315
			C371.571,79.398,372.212,83.771,372.212,88.295z"/>
		<path style="fill:#EDA856;" d="M337.359,35.993l-3.006,39.269H316.08l-3.009-39.269l-0.203-2.646
			c3.931-1.082,8.071-1.664,12.347-1.664c4.276,0,8.416,0.581,12.347,1.664L337.359,35.993z"/>
		<polygon style="fill:#EDA856;" points="350.409,88.295 348.336,91.47 344.111,97.938 306.316,97.938 302.092,91.47 
			300.018,88.295 		"/>
		<g>
			<path style="fill:#CC731B;" d="M316.08,75.261h18.273l0,0.001h32c0-1.521-0.082-3.024-0.245-4.503
				c-1.581-14.54-10.741-26.805-23.444-32.762c-1.644-0.773-3.347-1.439-5.102-1.989l-0.203-0.016l-2.662,34.767h-18.962
				l-2.664-34.767l-0.203,0.016c-1.755,0.55-3.459,1.216-5.102,1.989c-12.705,5.957-21.865,18.222-23.446,32.762
				c-0.163,1.479-0.245,2.982-0.245,4.503L316.08,75.261L316.08,75.261z"/>
			<polygon style="fill:#CC731B;" points="302.092,91.47 348.336,91.47 350.409,88.295 300.018,88.295 			"/>
		</g>
		<g>
			<path style="fill:#EDA856;" d="M307.766,37.997l3.143,32.762h-26.59C285.901,56.219,295.061,43.954,307.766,37.997z"/>
			<path style="fill:#EDA856;" d="M366.108,70.759H339.52l3.143-32.762C355.367,43.954,364.526,56.219,366.108,70.759z"/>
		</g>
	</g>
	<g>
		<rect x="337.284" y="202.952" style="fill:#496A72;" width="26.595" height="9.411"/>
		<rect x="286.548" y="202.952" style="fill:#496A72;" width="26.595" height="9.411"/>
	</g>
	<path style="fill:#999999;" d="M422.974,314.345H23.782C10.648,314.345,0,303.698,0,290.563v0
		c0-13.134,10.648-23.782,23.782-23.782h399.192c13.134,0,23.782,10.648,23.782,23.782v0
		C446.756,303.698,436.109,314.345,422.974,314.345z"/>
	<path style="fill:#B3B3B3;" d="M422.974,314.345H88.163c-13.134,0-23.782-10.648-23.782-23.782v0
		c0-13.134,10.648-23.782,23.782-23.782h334.811c13.135,0,23.782,10.648,23.782,23.782v0
		C446.756,303.698,436.109,314.345,422.974,314.345z"/>
	<path style="fill:#637D84;" d="M434.761,290.563c0,6.5-5.29,11.78-11.79,11.78H88.161c-6.49,0-11.78-5.28-11.78-11.78
		s5.29-11.78,11.78-11.78h334.81C429.471,278.783,434.761,284.063,434.761,290.563z"/>
	<path style="fill:#738B93;" d="M413.761,290.563c0,6.5-5.29,11.78-11.79,11.78H88.161c-6.49,0-11.78-5.28-11.78-11.78
		s5.29-11.78,11.78-11.78h313.81C408.471,278.783,413.761,284.063,413.761,290.563z"/>
	<g>
		<rect x="78.471" y="314.345" style="fill:#999999;" width="346.206" height="100.728"/>
		<rect x="22.079" y="314.345" style="fill:#808080;" width="56.393" height="100.728"/>
		<rect x="103.449" y="339.736" style="fill:#808080;" width="296.251" height="49.945"/>
		<rect x="384.55" y="339.736" style="fill:#666666;" width="15.15" height="49.945"/>
	</g>
	<rect x="41.384" y="240.291" style="fill:#D3674A;" width="159.997" height="26.49"/>
	<rect x="94.575" y="240.291" style="fill:#EF7954;" width="106.807" height="26.49"/>
	<rect x="250.384" y="240.291" style="fill:#D3674A;" width="159.997" height="26.49"/>
	<rect x="303.575" y="240.291" style="fill:#EF7954;" width="106.807" height="26.49"/>
</g>
<g>
</g>
<g>
</g>
<g>
</g>
<g>
</g>
<g>
</g>
<g>
</g>
<g>
</g>
<g>
</g>
<g>
</g>
<g>
</g>
<g>
</g>
<g>
</g>
<g>
</g>
<g>
</g>
<g>
</g>
</svg>
