<svg width="63" height="70" viewBox="0 0 63 70" fill="none" xmlns="http://www.w3.org/2000/svg">
<path d="M38.1411 50.3131H24.6795C24.1328 50.313 23.6049 50.1182 23.1951 49.7653C22.7853 49.4125 22.5217 48.9259 22.4539 48.3969L22.2744 46.9904C21.4311 41.3729 19.0527 36.0802 15.3888 31.6674C13.6983 29.5183 12.4808 27.0522 11.8125 24.4234C11.1441 21.7946 11.0393 19.0596 11.5046 16.3895C11.9699 13.7193 12.9953 11.1715 14.5166 8.90541C16.0379 6.63929 18.0224 4.70358 20.3461 3.21936C22.6697 1.73514 25.2825 0.73434 28.0209 0.279546C30.7594 -0.175248 33.5647 -0.0742496 36.2613 0.576225C38.9579 1.2267 41.4878 2.41266 43.6929 4.05992C45.8979 5.70719 47.7306 7.78033 49.0763 10.1497C49.2299 10.4013 49.33 10.6804 49.3708 10.9705C49.4117 11.2605 49.3924 11.5556 49.3141 11.8383C49.2358 12.1209 49.1001 12.3854 48.915 12.616C48.7299 12.8465 48.4993 13.0385 48.2367 13.1806C47.9741 13.3227 47.685 13.4119 47.3864 13.443C47.0878 13.4741 46.7858 13.4464 46.4984 13.3616C46.211 13.2769 45.9439 13.1367 45.7131 12.9494C45.4822 12.7622 45.2923 12.5316 45.1545 12.2715C44.1077 10.4296 42.6824 8.81802 40.9678 7.53749C39.2532 6.25696 37.2861 5.33501 35.1894 4.82926C33.0928 4.32351 30.9117 4.24483 28.7825 4.59814C26.6533 4.95145 24.6217 5.72916 22.8147 6.88265C21.0077 8.03614 19.4642 9.54062 18.2806 11.3021C17.0969 13.0635 16.2987 15.044 15.9357 17.1199C15.5728 19.1957 15.6529 21.3222 16.171 23.3665C16.6892 25.4108 17.6342 27.3289 18.9472 29.001C22.9831 33.8975 25.6401 39.7352 26.6561 45.9382H36.1645C37.064 39.8304 39.6478 34.0754 43.6401 29.2875C45.9022 26.5762 47.1304 23.1841 47.1154 19.6891C47.1154 19.1089 47.3518 18.5525 47.7726 18.1423C48.1933 17.7321 48.764 17.5016 49.359 17.5016C49.9541 17.5016 50.5247 17.7321 50.9455 18.1423C51.3662 18.5525 51.6026 19.1089 51.6026 19.6891C51.5984 24.1805 50.0217 28.536 47.1334 32.0349C43.5538 36.3214 41.2732 41.4973 40.5485 46.9795L40.3667 48.3969C40.2989 48.9259 40.0354 49.4125 39.6255 49.7653C39.2157 50.1182 38.6878 50.313 38.1411 50.3131V50.3131Z" fill="#04009A"/>
<path d="M44.8717 59.0628H17.9487C17.3536 59.0628 16.783 58.8324 16.3622 58.4221C15.9415 58.0119 15.7051 57.4555 15.7051 56.8754V52.5005C15.7051 50.7601 16.4142 49.091 17.6765 47.8603C18.9387 46.6296 20.6507 45.9382 22.4358 45.9382H40.3846C42.1697 45.9382 43.8817 46.6296 45.1439 47.8603C46.4062 49.091 47.1153 50.7601 47.1153 52.5005V56.8754C47.1153 57.4555 46.879 58.0119 46.4582 58.4221C46.0374 58.8324 45.4668 59.0628 44.8717 59.0628ZM20.1923 54.688H42.6282V52.5005C42.6282 51.9204 42.3918 51.364 41.971 50.9538C41.5503 50.5436 40.9796 50.3131 40.3846 50.3131H22.4358C21.8408 50.3131 21.2701 50.5436 20.8494 50.9538C20.4286 51.364 20.1923 51.9204 20.1923 52.5005V54.688Z" fill="#77ACF1"/>
<path d="M60.5769 65.6251H58.3333V61.2503C58.3333 59.5098 57.6242 57.8407 56.3619 56.61C55.0997 55.3794 53.3877 54.688 51.6026 54.688H11.2179C9.43284 54.688 7.72084 55.3794 6.45858 56.61C5.19631 57.8407 4.48718 59.5098 4.48718 61.2503V65.6251H2.24359C1.64855 65.6251 1.07789 65.8556 0.657132 66.2658C0.236377 66.676 0 67.2324 0 67.8126C0 68.3927 0.236377 68.9491 0.657132 69.3593C1.07789 69.7695 1.64855 70 2.24359 70H15.7051C16.3002 70 16.8708 69.7695 17.2916 69.3593C17.7123 68.9491 17.9487 68.3927 17.9487 67.8126C17.9487 67.2324 17.7123 66.676 17.2916 66.2658C16.8708 65.8556 16.3002 65.6251 15.7051 65.6251H8.97436V61.2503C8.97436 60.6701 9.21074 60.1137 9.63149 59.7035C10.0522 59.2933 10.6229 59.0628 11.2179 59.0628H51.6026C52.1976 59.0628 52.7683 59.2933 53.189 59.7035C53.6098 60.1137 53.8462 60.6701 53.8462 61.2503V65.6251H24.6795C24.0844 65.6251 23.5138 65.8556 23.093 66.2658C22.6723 66.676 22.4359 67.2324 22.4359 67.8126C22.4359 68.3927 22.6723 68.9491 23.093 69.3593C23.5138 69.7695 24.0844 70 24.6795 70H60.5769C61.172 70 61.7426 69.7695 62.1634 69.3593C62.5841 68.9491 62.8205 68.3927 62.8205 67.8126C62.8205 67.2324 62.5841 66.676 62.1634 66.2658C61.7426 65.8556 61.172 65.6251 60.5769 65.6251Z" fill="#04009A"/>
</svg>
