<svg width="70" height="70" viewBox="0 0 70 70" fill="none" xmlns="http://www.w3.org/2000/svg">
<g clip-path="url(#clip0_312_210)">
<path d="M59.4982 20.8866V9.33739L54.8319 4.67109L51.3322 1.17133H15.168V68.8333H28.0005L19.8345 60.6673L59.4982 20.8866Z" fill="#FFDD09"/>
<path d="M28.0004 68.8333H59.4982V37.4522L28.0004 68.8333Z" fill="#FFDD09"/>
<path d="M55.9985 20.8866V9.33739L52.0321 4.67109L49.1157 1.17133H18.6678V68.8333H29.517L22.6341 60.6673L55.9985 20.8866Z" fill="#FFDD09"/>
<path d="M29.517 68.8333H55.9986V37.4522L29.517 68.8333Z" fill="#FFDD09"/>
<path d="M15.168 68.8333H18.6678V1.17133H15.168V68.8333Z" fill="white"/>
<path d="M59.4983 20.8866V9.33739L54.832 4.67109L51.3322 1.17133H49.1157L52.0321 4.67109L55.9985 9.33739V24.503" fill="#FD9808"/>
<path d="M55.9985 40.952V68.9501H59.4982V37.4522L55.9985 40.952Z" fill="#FD9808"/>
<path d="M28.0004 68.8333L19.8344 60.6673L60.5482 19.8367L68.831 28.1195L28.0004 68.8333Z" fill="#1CD759"/>
<path d="M46.6659 33.8357V25.6696H25.6673V44.335H36.1666L46.6659 33.8357Z" fill="#54C9FD"/>
<path d="M38.4997 41.8852V37.3355H32.6667V44.335H36.1664L38.4997 41.8852Z" fill="#54C9FD"/>
<path d="M36.1666 11.6706L50.1656 25.6697H22.1675L36.1666 11.6706Z" fill="#54C9FD"/>
<path d="M25.6673 12.8371V21.0032H26.0173L30.3336 17.0369V12.8371H25.6673Z" fill="#33A9F8"/>
<path d="M8.16853 56.001V4.67109C8.16853 2.68784 6.65201 1.17133 4.66877 1.17133C2.68552 1.17133 1.16901 2.68784 1.16901 4.67109V56.001H8.16853Z" fill="white"/>
<path d="M8.16851 56.001V4.67109C8.16851 2.68784 7.11859 1.17133 5.83529 1.17133C4.552 1.17133 3.50208 2.68784 3.50208 4.67109V56.001H8.16851Z" fill="#FFDD09"/>
<path d="M3.50208 11.6706H8.16838V7.0043H3.50208V11.6706Z" fill="#FCC309"/>
<path d="M1.16901 56.001V59.5007L4.66877 68.8335L8.16853 59.5007V56.001H1.16901Z" fill="white"/>
<path d="M3.50208 56.001V59.5007L4.66862 68.8335L8.16838 59.5007V56.001H3.50208Z" fill="#FCC309"/>
<path d="M28.0004 70C27.6504 70 27.4171 69.8834 27.1839 69.65L19.0178 61.484C18.5512 61.0174 18.5512 60.3174 19.0178 59.8507L59.7316 19.0201C59.965 18.7867 60.1982 18.6701 60.5482 18.6701C60.8982 18.6701 61.1315 18.7867 61.3648 19.0201L69.6476 27.3029C69.8809 27.5363 69.9976 27.7695 69.9976 28.1195C69.9976 28.4695 69.8809 28.7028 69.6476 28.936L28.8171 69.65C28.5838 69.8832 28.3504 70 28.0004 70ZM21.4676 60.6673L28.0006 67.2002L67.1979 28.1195L60.5483 21.4699L21.4676 60.6673Z" fill="black"/>
<path d="M59.4983 10.5041H51.3322C50.6322 10.5041 50.1656 10.0375 50.1656 9.33755V1.17135C50.1656 0.704762 50.399 0.238036 50.8656 0.121423C51.3322 -0.11194 51.7989 0.00481001 52.1489 0.354786L60.315 8.52085C60.6649 8.87083 60.7815 9.33741 60.5483 9.80414C60.4316 10.2707 59.965 10.5041 59.4983 10.5041ZM52.4987 8.17087H56.6984L52.4987 3.97116V8.17087Z" fill="black"/>
<path d="M50.1656 26.8362H22.1675C21.7009 26.8362 21.2342 26.6028 21.1176 26.1362C20.8842 25.6697 21.001 25.2029 21.351 24.853L35.35 10.8539C35.8166 10.3873 36.5166 10.3873 36.9833 10.8539L50.9823 24.853C51.3323 25.2029 51.4489 25.6695 51.2157 26.1362C51.0988 26.603 50.6322 26.8362 50.1656 26.8362ZM24.9673 24.5031H47.3658L36.1666 13.3039L24.9673 24.5031Z" fill="black"/>
<path d="M26.0173 22.1699H25.6673C24.9674 22.1699 24.5008 21.7033 24.5008 21.0033V12.8372C24.5008 12.1372 24.9674 11.6706 25.6673 11.6706H30.3336C31.0336 11.6706 31.5002 12.1372 31.5002 12.8372V17.0369C31.5002 17.3868 31.3836 17.6202 31.1502 17.8534L26.8339 21.8198C26.6005 22.0533 26.3673 22.1699 26.0173 22.1699ZM26.8339 14.0038V18.6701L29.1671 16.5703V14.0038H26.8339Z" fill="black"/>
<path d="M59.7316 28.4695C59.3816 28.4695 59.1483 28.3528 58.915 28.1195L55.6486 24.8531C55.1821 24.3865 55.1821 23.6865 55.6486 23.2198C56.1152 22.7532 56.8152 22.7532 57.2819 23.2198L60.5483 26.4862C61.0149 26.9528 61.0149 27.6528 60.5483 28.1195C60.3149 28.3528 60.0816 28.4695 59.7316 28.4695Z" fill="black"/>
<path d="M57.2817 34.1857C56.9318 34.1857 56.6984 34.0691 56.4652 33.8357L51.5655 28.936C51.0989 28.4695 51.0989 27.7695 51.5655 27.3028C52.0321 26.8362 52.7321 26.8362 53.1988 27.3028L58.0984 32.2024C58.565 32.669 58.565 33.369 58.0984 33.8357C57.8651 34.0691 57.6317 34.1857 57.2817 34.1857Z" fill="black"/>
<path d="M51.5655 36.6355C51.2156 36.6355 50.9822 36.5189 50.749 36.2855L47.4826 33.0191C47.016 32.5526 47.016 31.8526 47.4826 31.3859C47.9492 30.9193 48.6491 30.9193 49.1158 31.3859L52.3822 34.6523C52.8488 35.1189 52.8488 35.8188 52.3822 36.2855C52.1487 36.5189 51.7988 36.6355 51.5655 36.6355Z" fill="black"/>
<path d="M48.999 42.4685C48.649 42.4685 48.4156 42.3519 48.1824 42.1185L43.2827 37.2189C42.8162 36.7523 42.8162 36.0523 43.2827 35.5856C43.7493 35.119 44.4493 35.119 44.916 35.5856L49.8157 40.4853C50.2823 40.9519 50.2823 41.6518 49.8157 42.1185C49.5823 42.3519 49.3489 42.4685 48.999 42.4685Z" fill="black"/>
<path d="M43.2828 44.9183C42.9328 44.9183 42.6994 44.8017 42.4662 44.5684L39.1998 41.302C38.7332 40.8354 38.7332 40.1354 39.1998 39.6687C39.6664 39.2021 40.3663 39.2021 40.8331 39.6687L44.0995 42.9351C44.5661 43.4017 44.5661 44.1016 44.0995 44.5684C43.8661 44.8017 43.5161 44.9183 43.2828 44.9183Z" fill="black"/>
<path d="M40.8329 50.7513C40.4829 50.7513 40.2495 50.6347 40.0163 50.4013L35 45.3851C34.5334 44.9185 34.5334 44.2185 35 43.7518C35.4666 43.2852 36.1666 43.2852 36.6333 43.7518L41.533 48.6515C41.9995 49.1181 41.9995 49.818 41.533 50.2847C41.4162 50.6346 41.0662 50.7513 40.8329 50.7513Z" fill="black"/>
<path d="M34.9999 53.2011C34.6499 53.2011 34.4166 53.0845 34.1834 52.8512L30.917 49.5848C30.4504 49.1182 30.4504 48.4182 30.917 47.9515C31.3835 47.4849 32.0835 47.4849 32.5502 47.9515L35.8166 51.2179C36.2832 51.6845 36.2832 52.3844 35.8166 52.8512C35.5833 53.0844 35.3499 53.2011 34.9999 53.2011Z" fill="black"/>
<path d="M32.5501 58.9174C32.2001 58.9174 31.9668 58.8008 31.7335 58.5674L26.7173 53.6677C26.2507 53.2011 26.2507 52.5012 26.7173 52.0345C27.1838 51.5679 27.8838 51.5679 28.3505 52.0345L33.2502 56.9341C33.7168 57.4007 33.7168 58.1007 33.2502 58.5674C33.1334 58.8008 32.7835 58.9174 32.5501 58.9174Z" fill="black"/>
<path d="M26.7172 61.3672C26.3672 61.3672 26.1339 61.2506 25.9006 61.0172L22.6342 57.7508C22.1677 57.2842 22.1677 56.5843 22.6342 56.1176C23.1008 55.651 23.8008 55.651 24.2675 56.1176L27.5339 59.384C28.0005 59.8506 28.0005 60.5505 27.5339 61.0172C27.3004 61.3672 27.0672 61.3672 26.7172 61.3672Z" fill="black"/>
<path d="M36.1666 45.5017H25.6673C24.9674 45.5017 24.5008 45.0351 24.5008 44.3351V25.6697C24.5008 24.9697 24.9674 24.5031 25.6673 24.5031H46.6659C47.3659 24.5031 47.8324 24.9697 47.8324 25.6697V33.8357C47.8324 34.1857 47.7158 34.4191 47.4825 34.6523L36.9832 45.1516C36.7498 45.3849 36.3998 45.5017 36.1666 45.5017ZM26.8339 43.1685H35.6999L45.4992 33.2525V26.8363H26.8339V43.1685Z" fill="black"/>
<path d="M36.1666 45.5017H32.6668C31.9669 45.5017 31.5003 45.0351 31.5003 44.3351V37.3356C31.5003 36.6357 31.9669 36.1691 32.6668 36.1691H38.4998C39.1998 36.1691 39.6664 36.6357 39.6664 37.3356V41.8853C39.6664 42.2353 39.5498 42.4686 39.3164 42.7019L36.9832 45.1517C36.7498 45.3849 36.5166 45.5017 36.1666 45.5017ZM33.8334 43.1685H35.6999L37.3332 41.4186V38.5022H33.8334V43.1685Z" fill="black"/>
<path d="M28.0004 70H15.1679C14.4679 70 14.0013 69.5334 14.0013 68.8335V1.17132C14.0013 0.471365 14.4679 0.004776 15.1679 0.004776H51.332C51.682 0.004776 51.9154 0.121389 52.1486 0.354752L60.3147 8.52082C60.548 8.75418 60.6646 8.9874 60.6646 9.33738V20.8866C60.6646 21.2366 60.548 21.4699 60.3147 21.7032L21.4673 60.6671L28.8168 68.0166C29.1668 68.3666 29.2834 68.8332 29.0502 69.2999C28.8171 69.7666 28.4671 70 28.0004 70ZM16.3346 67.6668H25.2006L19.0176 61.4838C18.551 61.0172 18.551 60.3173 19.0176 59.8506L58.3316 20.4199V9.80411L50.8655 2.338H16.3346V67.6668Z" fill="black"/>
<path d="M59.4983 70H28.0004C27.5338 70 27.0671 69.7666 26.9505 69.3C26.7171 68.8335 26.8339 68.3667 27.1839 68.0168L58.6817 36.6355C59.0317 36.2855 59.4983 36.1689 59.965 36.4022C60.4316 36.6355 60.6649 36.9855 60.6649 37.4521V68.8333C60.6649 69.5333 60.1982 70 59.4983 70ZM30.8002 67.6668H58.3317V40.252L30.8002 67.6668Z" fill="black"/>
<path d="M8.1685 57.1675H1.16898C0.469031 57.1675 0.00244141 56.7009 0.00244141 56.0009V4.67108C0.00244141 2.10463 2.1023 0.004776 4.66874 0.004776C7.23519 0.004776 9.33505 2.10463 9.33505 4.67108V56.0009C9.33505 56.7009 8.86846 57.1675 8.1685 57.1675ZM2.33552 54.8343H7.00183V4.67108C7.00183 3.38779 5.9519 2.33786 4.66861 2.33786C3.38532 2.33786 2.33539 3.38779 2.33539 4.67108V54.8343H2.33552Z" fill="black"/>
<path d="M8.1685 12.8372H1.16898C0.469031 12.8372 0.00244141 12.3706 0.00244141 11.6706V7.00431C0.00244141 6.30436 0.469031 5.83777 1.16898 5.83777H8.1685C8.86846 5.83777 9.33505 6.30436 9.33505 7.00431V11.6706C9.33505 12.3706 8.86846 12.8372 8.1685 12.8372ZM2.33552 10.5041H7.00183V8.17085H2.33552V10.5041Z" fill="black"/>
<path d="M4.66874 70C4.20215 70 3.73543 69.65 3.61882 69.3L0.119055 59.9673C0.00244141 59.7339 0.00244141 59.6173 0.00244141 59.5007V56.001C0.00244141 55.301 0.469031 54.8344 1.16898 54.8344H8.1685C8.86846 54.8344 9.33505 55.301 9.33505 56.001V59.5007C9.33505 59.6173 9.33505 59.7341 9.21843 59.9673L5.71867 69.3C5.60192 69.65 5.13533 70 4.66874 70ZM2.33552 59.2674L4.66874 65.4503L7.00196 59.2674V57.1675H2.33552V59.2674Z" fill="black"/>
</g>
<defs>
<clipPath id="clip0_312_210">
<rect width="70" height="70" fill="white"/>
</clipPath>
</defs>
</svg>
