<svg width="70" height="70" viewBox="0 0 70 70" fill="none" xmlns="http://www.w3.org/2000/svg">
<path d="M17.8457 38.9566L30.6395 51.7504L60.4892 21.9004L47.6952 9.10643L17.8457 38.9566ZM51.164 18.4318C51.9389 19.2068 51.9389 20.4633 51.164 21.2382L30.1986 42.2034C29.811 42.5908 29.3033 42.7846 28.7952 42.7846C28.2875 42.7846 27.7797 42.5909 27.3922 42.2034C26.6172 41.4283 26.6172 40.1718 27.3922 39.3969L48.3574 18.4318C49.1323 17.6569 50.389 17.6569 51.164 18.4318Z" fill="#73D0F4"/>
<path d="M27.3922 42.2035C27.7799 42.5909 28.2876 42.7846 28.7953 42.7846C29.3033 42.7846 29.811 42.5908 30.1987 42.2035L51.164 21.2382C51.939 20.4631 51.939 19.2066 51.164 18.4318C50.3893 17.6569 49.1324 17.6569 48.3575 18.4318L27.3922 39.3969C26.6173 40.172 26.6173 41.4283 27.3922 42.2035Z" fill="#3D6889"/>
<path d="M69.1021 12.6473C68.3355 10.3532 66.6383 7.84825 64.1927 5.40333C61.7281 2.9384 57.9751 0 54.0927 0C52.3511 0 50.7465 0.612387 49.4398 1.773C49.3717 1.82525 49.3067 1.88231 49.2454 1.94366L41.7166 9.47224H2.38344C1.28749 9.47224 0.398926 10.3608 0.398926 11.4567V68.0155C0.398926 69.1114 1.28749 70 2.38344 70H58.9422C60.0381 70 60.9267 69.1114 60.9267 68.0155V27.4727C60.9267 27.349 60.9138 27.2287 60.8921 27.1112L67.4829 20.5203C67.4961 20.5073 67.5093 20.4944 67.5222 20.4811C67.5225 20.481 67.5229 20.4807 67.5232 20.4803L67.6524 20.351C67.7134 20.29 67.7693 20.2263 67.8205 20.1597C69.6253 18.1353 70.0688 15.5419 69.1021 12.6473ZM27.0094 53.7335L13.0075 57.7746L16.1869 42.9109L27.0094 53.7335ZM30.6396 51.7504L17.8458 38.9566L47.6953 9.10659L60.4893 21.9006L30.6396 51.7504ZM56.9577 66.031H4.36795V13.4413H37.7479L13.5903 37.599C13.3196 37.8698 13.1329 38.2129 13.0528 38.5873L8.43322 60.1849C8.28719 60.8671 8.51045 61.5759 9.0208 62.0517C9.39323 62.3987 9.87844 62.5845 10.3742 62.5845C10.4802 62.5845 48.6621 62.5845 48.6621 62.5845C49.7584 62.5845 50.6466 61.696 50.6466 60.6C50.6466 59.5041 49.7584 58.6155 48.6621 58.6155H24.4067L30.9171 56.7365C31.2394 56.6434 31.5328 56.4703 31.7701 56.2331L56.9577 31.0455V66.031ZM64.7947 17.5879C64.773 17.611 64.752 17.6347 64.7317 17.6587L64.7174 17.6727C64.7107 17.6795 64.7035 17.6863 64.6968 17.6931L63.2959 19.0938L50.5019 6.3L51.935 4.86685C51.9598 4.84585 51.9845 4.82418 52.0083 4.80153C52.6162 4.23362 53.2787 3.96902 54.0927 3.96902C56.0329 3.96902 58.6916 5.51463 61.3863 8.20992C62.8624 9.68574 67.4706 14.7239 64.7947 17.5879Z" fill="#3D6889"/>
</svg>
