<?xml version="1.0" encoding="iso-8859-1"?>
<!-- Generator: Adobe Illustrator 19.0.0, SVG Export Plug-In . SVG Version: 6.00 Build 0)  -->
<svg version="1.1" id="Layer_1" xmlns="http://www.w3.org/2000/svg" xmlns:xlink="http://www.w3.org/1999/xlink" x="0px" y="0px"
	 viewBox="0 0 512 512" style="enable-background:new 0 0 512 512;" xml:space="preserve">
<path style="fill:#EFEFEF;" d="M430.645,108.971v369.739c0,12.495-10.129,22.624-22.624,22.624H103.979
	c-12.495,0-22.624-10.129-22.624-22.624V33.291c0-12.495,10.129-22.624,22.624-22.624h228.352L430.645,108.971z"/>
<polygon style="fill:#D1D5D8;" points="430.645,108.971 332.331,108.971 332.331,10.667 "/>
<path style="fill:#FF7D46;" d="M301.025,242.635c0-5.954-0.721-11.74-2.044-17.295l18.873-10.896l-21.333-36.95l-18.911,10.918
	c-8.382-7.926-18.586-13.936-29.918-17.322v-21.789h-42.667v21.789c-11.333,3.386-21.536,9.395-29.918,17.322l-18.911-10.918
	l-21.333,36.95l18.873,10.896c-1.323,5.555-2.044,11.341-2.044,17.295c0,5.954,0.721,11.74,2.044,17.295l-18.873,10.896
	l21.333,36.95l18.911-10.918c8.381,7.926,18.585,13.936,29.918,17.322v21.789h42.667v-21.789
	c11.332-3.386,21.536-9.395,29.918-17.322l18.911,10.918l21.333-36.95l-18.873-10.896
	C300.304,254.374,301.025,248.589,301.025,242.635z M226.358,274.635c-17.673,0-32-14.326-32-32c0-17.673,14.327-32,32-32
	c17.674,0,32,14.327,32,32C258.358,260.308,244.032,274.635,226.358,274.635z"/>
<g>
	<path style="fill:#231F20;" d="M438.187,101.428L339.872,3.124c-2-2-4.713-3.124-7.541-3.124H103.979
		C85.622,0,70.688,14.934,70.688,33.291v445.419c0,18.356,14.934,33.291,33.291,33.291h304.043
		c18.356,0,33.291-14.934,33.291-33.291V108.971C441.312,106.142,440.188,103.428,438.187,101.428z M342.995,36.414l61.897,61.89
		h-61.894V36.416L342.995,36.414z M408.021,490.667H103.979c-6.594,0-11.957-5.363-11.957-11.957V33.291
		c0-6.594,5.363-11.957,11.957-11.957h217.685v87.637c0,5.89,4.777,10.667,10.667,10.667h87.648v359.072
		C419.979,485.303,414.615,490.667,408.021,490.667z"/>
	<path style="fill:#231F20;" d="M226.358,199.968c-23.526,0-42.667,19.14-42.667,42.667s19.14,42.667,42.667,42.667
		s42.667-19.14,42.667-42.667S249.885,199.968,226.358,199.968z M226.358,263.968c-11.763,0-21.333-9.57-21.333-21.333
		c0-11.763,9.57-21.333,21.333-21.333c11.763,0,21.333,9.57,21.333,21.333C247.692,254.398,238.123,263.968,226.358,263.968z"/>
	<path style="fill:#231F20;" d="M299.282,318.08c2.734-0.733,5.062-2.519,6.477-4.97l21.333-36.951
		c2.946-5.102,1.198-11.625-3.904-14.571l-12.33-7.119c0.555-3.933,0.833-7.89,0.833-11.836s-0.279-7.903-0.833-11.836l12.33-7.118
		c2.45-1.414,4.238-3.744,4.97-6.477c0.733-2.733,0.349-5.644-1.066-8.094l-21.333-36.951c-2.945-5.101-9.466-6.85-14.571-3.904
		l-12.373,7.142c-6.243-4.871-13.152-8.874-20.457-11.846v-14.249c0-5.89-4.777-10.667-10.667-10.667h-42.667
		c-5.89,0-10.667,4.777-10.667,10.667v14.25c-7.305,2.973-14.213,6.974-20.458,11.846l-12.372-7.142
		c-5.103-2.945-11.627-1.198-14.571,3.904l-21.333,36.951c-1.414,2.45-1.798,5.361-1.066,8.094c0.733,2.734,2.519,5.062,4.97,6.477
		l12.33,7.118c-0.555,3.933-0.833,7.89-0.833,11.836c0,3.946,0.279,7.903,0.833,11.836l-12.33,7.119
		c-5.102,2.946-6.85,9.469-3.904,14.571l21.333,36.951c1.414,2.45,3.744,4.238,6.477,4.97c2.732,0.734,5.644,0.35,8.094-1.066
		l12.372-7.142c6.244,4.871,13.152,8.872,20.458,11.846v14.249c0,5.89,4.777,10.667,10.667,10.667h42.667
		c5.89,0,10.667-4.777,10.667-10.667v-14.251c7.307-2.974,14.213-6.974,20.457-11.846l12.373,7.143
		C293.637,318.429,296.548,318.814,299.282,318.08z M270.281,289.108c-7.27,6.876-16.138,12.012-25.642,14.85
		c-4.517,1.35-7.614,5.506-7.614,10.221v11.122h-21.333v-11.122c0-4.716-3.095-8.87-7.614-10.221
		c-9.504-2.838-18.371-7.974-25.642-14.85c-3.427-3.242-8.578-3.847-12.662-1.488l-9.674,5.585l-10.667-18.476l9.635-5.564
		c4.085-2.358,6.137-7.121,5.043-11.71c-1.164-4.884-1.754-9.872-1.754-14.822s0.59-9.938,1.754-14.822
		c1.093-4.59-0.957-9.351-5.043-11.71l-9.635-5.563l10.667-18.476l9.674,5.584c4.087,2.361,9.235,1.755,12.661-1.488
		c7.274-6.877,16.141-12.012,25.643-14.85c4.517-1.35,7.614-5.505,7.614-10.221v-11.12h21.333v11.122
		c0,4.715,3.095,8.87,7.614,10.221c9.503,2.838,18.37,7.974,25.643,14.85c3.426,3.241,8.573,3.846,12.661,1.488l9.674-5.584
		l10.667,18.476l-9.635,5.563c-4.085,2.358-6.137,7.12-5.043,11.71c1.164,4.884,1.754,9.872,1.754,14.822s-0.59,9.938-1.754,14.822
		c-1.093,4.589,0.957,9.351,5.043,11.71l9.635,5.564l-10.667,18.476l-9.674-5.585C278.858,285.263,273.709,285.868,270.281,289.108z
		"/>
	<path style="fill:#231F20;" d="M374.464,378.597h-6.361c-0.74-2.478-1.724-4.85-2.937-7.084l4.499-4.499
		c4.165-4.165,4.165-10.919,0-15.086c-4.166-4.164-10.918-4.164-15.086,0l-4.499,4.499c-2.234-1.213-4.607-2.196-7.084-2.937v-6.361
		c0-5.89-4.777-10.667-10.667-10.667s-10.667,4.777-10.667,10.667v6.361c-2.478,0.74-4.85,1.724-7.084,2.937l-4.499-4.499
		c-4.166-4.164-10.918-4.164-15.086,0c-4.165,4.165-4.165,10.919,0,15.086l4.499,4.499c-1.213,2.234-2.196,4.606-2.937,7.084h-6.361
		c-5.89,0-10.667,4.777-10.667,10.667s4.777,10.667,10.667,10.667h6.361c0.74,2.478,1.724,4.85,2.937,7.084l-4.499,4.499
		c-4.165,4.165-4.165,10.919,0,15.086c2.083,2.082,4.813,3.124,7.542,3.124s5.459-1.042,7.542-3.124l4.499-4.499
		c2.234,1.213,4.607,2.196,7.084,2.937v6.361c0,5.89,4.777,10.667,10.667,10.667s10.667-4.777,10.667-10.667v-6.361
		c2.478-0.74,4.85-1.724,7.084-2.937l4.499,4.499c2.083,2.082,4.813,3.124,7.542,3.124s5.459-1.042,7.542-3.124
		c4.165-4.165,4.165-10.919,0-15.086l-4.499-4.499c1.213-2.234,2.196-4.606,2.937-7.084h6.361c5.89,0,10.667-4.777,10.667-10.667
		S380.355,378.597,374.464,378.597z M316.331,389.264c0-8.822,7.178-16,16-16s16,7.178,16,16c0,8.822-7.178,16-16,16
		S316.331,398.086,316.331,389.264z"/>
	<path style="fill:#231F20;" d="M194.358,442.837h-59.495c-5.89,0-10.667,4.777-10.667,10.667s4.777,10.667,10.667,10.667h59.495
		c5.89,0,10.667-4.777,10.667-10.667S200.25,442.837,194.358,442.837z"/>
	<path style="fill:#231F20;" d="M239.776,442.837h-1.067c-5.89,0-10.667,4.777-10.667,10.667s4.777,10.667,10.667,10.667h1.067
		c5.89,0,10.667-4.777,10.667-10.667S245.666,442.837,239.776,442.837z"/>
</g>
<g>
</g>
<g>
</g>
<g>
</g>
<g>
</g>
<g>
</g>
<g>
</g>
<g>
</g>
<g>
</g>
<g>
</g>
<g>
</g>
<g>
</g>
<g>
</g>
<g>
</g>
<g>
</g>
<g>
</g>
</svg>
