<svg width="50" height="50" viewBox="0 0 50 50" fill="none" xmlns="http://www.w3.org/2000/svg">
<path d="M25 50C38.8071 50 50 38.8071 50 25C50 11.1929 38.8071 0 25 0C11.1929 0 0 11.1929 0 25C0 38.8071 11.1929 50 25 50Z" fill="#324A5E"/>
<path d="M9.92126 11.4567V37.0079H35.4724L9.92126 11.4567ZM14.7244 23.0315L23.937 32.2441H14.7244V23.0315Z" fill="white"/>
<path d="M13.4252 35.6299H12.8347V37.0079H13.4252V35.6299Z" fill="#E6E9EE"/>
<path d="M15 35.6299H14.4094V37.0079H15V35.6299Z" fill="#E6E9EE"/>
<path d="M16.5748 35.6299H15.9843V37.0079H16.5748V35.6299Z" fill="#E6E9EE"/>
<path d="M18.1496 35.6299H17.5591V37.0079H18.1496V35.6299Z" fill="#E6E9EE"/>
<path d="M19.7244 35.6299H19.1339V37.0079H19.7244V35.6299Z" fill="#E6E9EE"/>
<path d="M21.2992 35.6299H20.7087V37.0079H21.2992V35.6299Z" fill="#E6E9EE"/>
<path d="M22.874 35.6299H22.2834V37.0079H22.874V35.6299Z" fill="#E6E9EE"/>
<path d="M24.4882 35.6299H23.8976V37.0079H24.4882V35.6299Z" fill="#E6E9EE"/>
<path d="M26.063 35.6299H25.4725V37.0079H26.063V35.6299Z" fill="#E6E9EE"/>
<path d="M27.6378 35.6299H27.0472V37.0079H27.6378V35.6299Z" fill="#E6E9EE"/>
<path d="M29.2126 35.6299H28.6221V37.0079H29.2126V35.6299Z" fill="#E6E9EE"/>
<path d="M30.7874 35.6299H30.1968V37.0079H30.7874V35.6299Z" fill="#E6E9EE"/>
<path d="M11.2992 15.1969H9.92126V15.7874H11.2992V15.1969Z" fill="#E6E9EE"/>
<path d="M11.2992 16.7717H9.92126V17.3622H11.2992V16.7717Z" fill="#E6E9EE"/>
<path d="M11.2992 18.3465H9.92126V18.937H11.2992V18.3465Z" fill="#E6E9EE"/>
<path d="M11.2992 19.9213H9.92126V20.5118H11.2992V19.9213Z" fill="#E6E9EE"/>
<path d="M11.2992 21.4961H9.92126V22.0866H11.2992V21.4961Z" fill="#E6E9EE"/>
<path d="M11.2992 23.1102H9.92126V23.7008H11.2992V23.1102Z" fill="#E6E9EE"/>
<path d="M11.2992 24.685H9.92126V25.2756H11.2992V24.685Z" fill="#E6E9EE"/>
<path d="M11.2992 26.2598H9.92126V26.8504H11.2992V26.2598Z" fill="#E6E9EE"/>
<path d="M11.2992 27.8347H9.92126V28.4252H11.2992V27.8347Z" fill="#E6E9EE"/>
<path d="M11.2992 29.4095H9.92126V30H11.2992V29.4095Z" fill="#E6E9EE"/>
<path d="M11.2992 30.9843H9.92126V31.5748H11.2992V30.9843Z" fill="#E6E9EE"/>
<path d="M11.2992 32.5591H9.92126V33.1496H11.2992V32.5591Z" fill="#E6E9EE"/>
<path d="M38.1496 24.8031H24.0551V25.3937H38.1496V24.8031Z" fill="white"/>
<path d="M31.4567 10.2362H30.7874V20.7874H31.4567V10.2362Z" fill="#E6E9EE"/>
<path d="M33.8583 19.9213L40.0787 36.1024L39.0551 40.5512L33.6221 26.4567L33.937 26.4173L32.9921 23.937L32.6772 23.9764L31.6929 21.378C31.4961 20.8268 31.6142 20.2756 32.0473 19.8032C32.441 19.2913 33.6614 19.4095 33.8583 19.9213Z" fill="#4CDBC4"/>
<path d="M38.3464 38.6614L39.0551 40.5512L39.5275 38.5039L38.3464 38.6614Z" fill="#2C9984"/>
<path d="M28.3858 19.9213L22.1653 36.1024L23.189 40.5512L28.622 26.4173L28.3071 26.378L29.252 23.8976L29.5669 23.937L30.5512 21.3386C30.748 20.7874 30.6299 20.2362 30.1968 19.7638C29.8031 19.2913 28.5827 19.4095 28.3858 19.9213Z" fill="#4CDBC4"/>
<path d="M23.8977 38.6614L23.189 40.5512L22.7166 38.5039L23.8977 38.6614Z" fill="#2C9984"/>
<path d="M38.5039 25.8662C38.3071 25.8662 38.1496 25.7087 38.1496 25.5118V24.6457C38.1496 24.4488 38.3071 24.2914 38.5039 24.2914C38.7008 24.2914 38.8583 24.4488 38.8583 24.6457V25.5118C38.8583 25.7087 38.7008 25.8662 38.5039 25.8662Z" fill="#4CDBC4"/>
<path d="M24.3307 25.8662C24.1339 25.8662 23.9764 25.7087 23.9764 25.5118V24.6457C23.9764 24.4488 24.1339 24.2914 24.3307 24.2914C24.5276 24.2914 24.685 24.4488 24.685 24.6457V25.5118C24.685 25.7087 24.5276 25.8662 24.3307 25.8662Z" fill="#4CDBC4"/>
<path d="M31.1024 26.7717C30.8268 26.7717 30.5512 26.5354 30.5512 26.2205V23.937C30.5512 23.6614 30.7874 23.3858 31.1024 23.3858C31.378 23.3858 31.6536 23.6221 31.6536 23.937V26.2205C31.6536 26.5354 31.4174 26.7717 31.1024 26.7717Z" fill="#4CDBC4"/>
<path d="M32.4803 20.7874C32.3622 20.7874 32.2834 20.748 32.2441 20.6299C32.2047 20.5118 32.2441 20.3543 32.3622 20.2756C33.5039 19.7638 34.2126 18.6614 34.2126 17.4016C34.2126 15.6693 32.7952 14.2913 31.1023 14.2913C29.3701 14.2913 27.9921 15.7087 27.9921 17.4016C27.9921 18.622 28.7401 19.7638 29.8425 20.2756C29.9606 20.315 30.0393 20.4724 29.9606 20.6299C29.9212 20.748 29.7638 20.8268 29.6063 20.748C28.2677 20.1575 27.4409 18.8583 27.4409 17.4016C27.4409 15.3937 29.0945 13.7402 31.1023 13.7402C33.1102 13.7402 34.7638 15.3937 34.7638 17.4016C34.7638 18.8583 33.8976 20.1575 32.5984 20.748C32.559 20.7874 32.5197 20.7874 32.4803 20.7874Z" fill="white"/>
<path d="M31.1023 21.9291C31.7546 21.9291 32.2834 21.4003 32.2834 20.748C32.2834 20.0957 31.7546 19.5669 31.1023 19.5669C30.45 19.5669 29.9212 20.0957 29.9212 20.748C29.9212 21.4003 30.45 21.9291 31.1023 21.9291Z" fill="white"/>
<path d="M31.1024 21.3386C31.4285 21.3386 31.6929 21.0742 31.6929 20.748C31.6929 20.4219 31.4285 20.1575 31.1024 20.1575C30.7762 20.1575 30.5118 20.4219 30.5118 20.748C30.5118 21.0742 30.7762 21.3386 31.1024 21.3386Z" fill="#E6E9EE"/>
<path d="M31.5354 12.9528H30.7086C30.4724 12.9528 30.3149 12.7559 30.3149 12.5591V9.84252C30.3149 9.6063 30.5118 9.44882 30.7086 9.44882H31.5354C31.7716 9.44882 31.9291 9.64567 31.9291 9.84252V12.5591C31.9291 12.7953 31.7716 12.9528 31.5354 12.9528Z" fill="white"/>
</svg>
