<svg width="119" height="62" viewBox="0 0 119 62" fill="none" xmlns="http://www.w3.org/2000/svg">
<path d="M15.3871 31.015C14.9438 30.9917 14.3371 30.9333 13.5671 30.84C12.1204 30.7 10.9538 30.63 10.0671 30.63H8.91211V25.87C10.5688 25.87 12.1438 25.9867 13.6371 26.22L15.3871 26.535V31.015ZM10.3121 38.575C10.3121 38.225 10.2538 38.0033 10.1371 37.91C10.0204 37.8167 9.77544 37.7467 9.40211 37.7L5.62211 37.175C4.68878 37.035 3.93044 36.8133 3.34711 36.51C2.78711 36.2067 2.36711 35.7983 2.08711 35.285C1.80711 34.8417 1.62044 34.305 1.52711 33.675C1.43378 33.045 1.38711 32.2633 1.38711 31.33C1.38711 29.4167 1.95878 28.0167 3.10211 27.13C4.05878 26.43 5.50544 26.0217 7.44211 25.905V31.4C7.44211 31.75 7.48878 31.9833 7.58211 32.1C7.67544 32.1933 7.96711 32.275 8.45711 32.345L12.6571 32.905C13.2638 32.975 13.7888 33.1033 14.2321 33.29C14.6754 33.4533 15.0488 33.71 15.3521 34.06C16.0288 34.8067 16.3671 36.2417 16.3671 38.365C16.3671 40.605 15.7954 42.1683 14.6521 43.055C13.6488 43.8017 12.2021 44.1983 10.3121 44.245V38.575ZM8.84211 44.28C6.97544 44.2567 5.34211 44.14 3.94211 43.93L1.94711 43.615V39.135C2.88044 39.2283 4.14044 39.3217 5.72711 39.415C6.61378 39.4617 7.24378 39.485 7.61711 39.485H8.84211V44.28ZM29.3538 33.115C29.3538 32.555 29.2954 32.1233 29.1788 31.82C29.0854 31.5867 28.9338 31.4467 28.7238 31.4C28.5371 31.33 28.1988 31.295 27.7088 31.295H27.5338V26.92C28.4438 26.2433 29.7038 25.905 31.3138 25.905C32.0371 25.905 32.6671 25.9983 33.2038 26.185C33.7404 26.3483 34.1954 26.6517 34.5688 27.095C35.4088 28.1217 35.8288 30.035 35.8288 32.835V44H29.3538V33.115ZM39.1188 33.115C39.1188 32.555 39.0604 32.1233 38.9438 31.82C38.8504 31.5867 38.6988 31.4467 38.4888 31.4C38.3021 31.33 37.9638 31.295 37.4738 31.295H37.2988C37.2521 30.6883 37.1821 30.0583 37.0888 29.405C36.9021 28.4717 36.7038 27.795 36.4938 27.375C37.4738 26.395 38.8738 25.905 40.6938 25.905C42.6771 25.905 44.0304 26.5467 44.7538 27.83C45.0804 28.39 45.3021 29.0783 45.4188 29.895C45.5354 30.6883 45.5938 31.6683 45.5938 32.835V44H39.1188V33.115ZM19.5888 26.15H26.0638V44H19.5888V26.15ZM61.1135 44.245C60.2735 44.245 59.5852 44.175 59.0485 44.035C58.5118 43.9183 58.0102 43.6733 57.5435 43.3V38.855H57.9285C58.4418 38.855 58.8035 38.8317 59.0135 38.785C59.2468 38.715 59.4218 38.575 59.5385 38.365C59.6552 38.1083 59.7252 37.735 59.7485 37.245C59.7718 36.895 59.7835 36.1717 59.7835 35.075C59.7835 33.9783 59.7718 33.255 59.7485 32.905C59.7252 32.3917 59.6552 32.0183 59.5385 31.785C59.4452 31.5517 59.2702 31.4117 59.0135 31.365C58.6868 31.3183 58.3252 31.295 57.9285 31.295H57.5435V26.85C58.0102 26.5 58.5235 26.255 59.0835 26.115C59.6668 25.975 60.3435 25.905 61.1135 25.905C62.0468 25.905 62.8402 26.0567 63.4935 26.36C64.1702 26.6633 64.7185 27.1533 65.1385 27.83C65.9552 29.1833 66.3635 31.575 66.3635 35.005C66.3635 38.4117 65.9552 40.815 65.1385 42.215C64.3218 43.5683 62.9802 44.245 61.1135 44.245ZM49.5985 26.15H56.0735V50.965H49.5985V26.15Z" fill="#427583"/>
<path d="M116 16.9039V21.6527V41.8676C116 42.8872 115.482 43.8371 114.625 44.3894L94.2103 57.5431C93.2052 58.1907 91.9115 58.1796 90.9176 57.5149L71.3323 44.4165C70.4998 43.8597 70.0001 42.9243 70.0001 41.9228V16.852C70.0001 15.735 70.6207 14.7105 71.6106 14.1931L70.6843 12.4206L71.6106 14.1931L91.1873 3.96271C92.0436 3.51525 93.0629 3.50753 93.9258 3.94198L114.349 14.2244C115.361 14.734 116 15.7706 116 16.9039Z" fill="#427583" stroke="#427583" stroke-width="4" stroke-linecap="round"/>
<path d="M117.453 11.275L93.3126 1.0625C93.2722 1.04491 93.231 1.04948 93.1899 1.03932C93.1263 1.02264 93.0644 1.0022 92.9983 1.0022C92.9297 1.0022 92.8669 1.02264 92.8018 1.04023C92.7631 1.0504 92.7245 1.04674 92.6868 1.0625L92.6542 1.07644L68.5452 11.275C68.1435 11.4459 67.9426 11.9063 68.0379 12.3483C68.0148 12.4319 68.0001 12.5191 68.0001 12.6091V46.1477C68.0001 46.4902 68.1752 46.8059 68.4542 46.9675L92.5958 60.8936C92.6352 60.9158 92.6773 60.9289 92.7185 60.9446C92.7399 60.953 92.7605 60.9642 92.7829 60.9707C92.8542 60.9902 92.9271 61.0022 93.0001 61.0022C93.0731 61.0022 93.146 60.9901 93.2173 60.9707C93.2396 60.9642 93.2602 60.9521 93.2817 60.9446C93.3229 60.9289 93.3649 60.9168 93.4044 60.8936L117.546 46.9675C117.826 46.806 118 46.4903 118 46.1477V12.609C118 12.519 117.985 12.4327 117.962 12.3482C118.057 11.9072 117.856 11.4457 117.453 11.275ZM92.9992 23.6561L70.5374 12.4262L93.0001 2.92489L115.462 12.4262L92.9992 23.6561ZM69.716 14.0621L92.1408 25.2726V58.526L69.716 45.5914V14.0621ZM116.282 45.5914L93.8576 58.526V25.2724L116.282 14.0619V45.5914Z" fill="white" stroke="white" stroke-width="1.5"/>
<mask id="path-4-outside-1_108_48" maskUnits="userSpaceOnUse" x="71.9288" y="26.8457" width="18.1619" height="19.1533" fill="black">
<rect fill="white" x="71.9288" y="26.8457" width="18.1619" height="19.1533"/>
<path d="M73.9116 28.4708L78.7114 28.4297L78.8527 44.9411L74.0528 44.9822L73.9116 28.4708ZM83.2621 38.5432L79.8062 38.5727L79.7734 34.7329L83.2292 34.7033L83.1753 28.3915L87.9751 28.3505L88.1163 44.8619L83.3165 44.9029L83.2621 38.5432Z"/>
</mask>
<path d="M73.9116 28.4708L78.7114 28.4297L78.8527 44.9411L74.0528 44.9822L73.9116 28.4708ZM83.2621 38.5432L79.8062 38.5727L79.7734 34.7329L83.2292 34.7033L83.1753 28.3915L87.9751 28.3505L88.1163 44.8619L83.3165 44.9029L83.2621 38.5432Z" fill="white"/>
<path d="M73.9116 28.4708L73.903 27.4708L72.9031 27.4794L72.9116 28.4793L73.9116 28.4708ZM78.7114 28.4297L79.7114 28.4212L79.7028 27.4212L78.7029 27.4297L78.7114 28.4297ZM78.8527 44.9411L78.8612 45.9411L79.8612 45.9325L79.8526 44.9326L78.8527 44.9411ZM74.0528 44.9822L73.0529 44.9907L73.0614 45.9907L74.0614 45.9821L74.0528 44.9822ZM83.2621 38.5432L84.2621 38.5346L84.2535 37.5346L83.2535 37.5432L83.2621 38.5432ZM79.8062 38.5727L78.8063 38.5813L78.8148 39.5812L79.8148 39.5727L79.8062 38.5727ZM79.7734 34.7329L79.7648 33.7329L78.7649 33.7414L78.7734 34.7414L79.7734 34.7329ZM83.2292 34.7033L83.2378 35.7033L84.2378 35.6947L84.2292 34.6947L83.2292 34.7033ZM83.1753 28.3915L83.1667 27.3916L82.1667 27.4001L82.1753 28.4001L83.1753 28.3915ZM87.9751 28.3505L88.975 28.3419L88.9665 27.342L87.9665 27.3505L87.9751 28.3505ZM88.1163 44.8619L88.1249 45.8618L89.1248 45.8533L89.1163 44.8533L88.1163 44.8619ZM83.3165 44.9029L82.3165 44.9115L82.3251 45.9114L83.325 45.9029L83.3165 44.9029ZM73.9202 29.4707L78.72 29.4297L78.7029 27.4297L73.903 27.4708L73.9202 29.4707ZM77.7115 28.4383L77.8527 44.9497L79.8526 44.9326L79.7114 28.4212L77.7115 28.4383ZM78.8441 43.9411L74.0443 43.9822L74.0614 45.9821L78.8612 45.9411L78.8441 43.9411ZM75.0528 44.9736L74.9116 28.4622L72.9116 28.4793L73.0529 44.9907L75.0528 44.9736ZM83.2535 37.5432L79.7977 37.5728L79.8148 39.5727L83.2706 39.5431L83.2535 37.5432ZM80.8062 38.5642L80.7733 34.7243L78.7734 34.7414L78.8063 38.5813L80.8062 38.5642ZM79.7819 35.7328L83.2378 35.7033L83.2207 33.7033L79.7648 33.7329L79.7819 35.7328ZM84.2292 34.6947L84.1752 28.383L82.1753 28.4001L82.2293 34.7118L84.2292 34.6947ZM83.1838 29.3915L87.9836 29.3504L87.9665 27.3505L83.1667 27.3916L83.1838 29.3915ZM86.9751 28.359L87.1164 44.8704L89.1163 44.8533L88.975 28.3419L86.9751 28.359ZM88.1078 43.8619L83.3079 43.903L83.325 45.9029L88.1249 45.8618L88.1078 43.8619ZM84.3165 44.8944L84.2621 38.5346L82.2621 38.5517L82.3165 44.9115L84.3165 44.8944Z" fill="#427583" mask="url(#path-4-outside-1_108_48)"/>
<mask id="path-6-outside-2_108_48" maskUnits="userSpaceOnUse" x="95.3613" y="26.8104" width="17.2103" height="19.1879" fill="black">
<rect fill="white" x="95.3613" y="26.8104" width="17.2103" height="19.1879"/>
<path d="M97.2034 28.467L102.003 28.4137L102.187 44.9246L97.387 44.978L97.2034 28.467ZM103.097 36.106L103.673 36.0996C104.185 36.0939 104.56 36.0737 104.8 36.039C105.056 35.9882 105.254 35.89 105.397 35.7444C105.539 35.6148 105.625 35.4298 105.655 35.1895C105.7 34.9329 105.72 34.5567 105.714 34.0607C105.709 33.5648 105.681 33.1971 105.63 32.9576C105.595 32.702 105.505 32.503 105.359 32.3606C105.214 32.2342 105.013 32.1564 104.757 32.1273C104.5 32.0821 104.124 32.0623 103.628 32.0678L103.052 32.0742L103.011 28.4024L105.003 28.3803C106.187 28.3671 107.148 28.4764 107.887 28.7082C108.641 28.9239 109.213 29.2695 109.602 29.7452C109.975 30.1891 110.23 30.7543 110.365 31.4408C110.501 32.1114 110.574 32.9666 110.586 34.0065C110.597 34.9985 110.542 35.8231 110.421 36.4805C110.317 37.1377 110.091 37.6923 109.744 38.1442C109.35 38.6606 108.778 39.059 108.029 39.3393C107.296 39.6035 106.329 39.7422 105.129 39.7556L103.138 39.7777L103.097 36.106Z"/>
</mask>
<path d="M97.2034 28.467L102.003 28.4137L102.187 44.9246L97.387 44.978L97.2034 28.467ZM103.097 36.106L103.673 36.0996C104.185 36.0939 104.56 36.0737 104.8 36.039C105.056 35.9882 105.254 35.89 105.397 35.7444C105.539 35.6148 105.625 35.4298 105.655 35.1895C105.7 34.9329 105.72 34.5567 105.714 34.0607C105.709 33.5648 105.681 33.1971 105.63 32.9576C105.595 32.702 105.505 32.503 105.359 32.3606C105.214 32.2342 105.013 32.1564 104.757 32.1273C104.5 32.0821 104.124 32.0623 103.628 32.0678L103.052 32.0742L103.011 28.4024L105.003 28.3803C106.187 28.3671 107.148 28.4764 107.887 28.7082C108.641 28.9239 109.213 29.2695 109.602 29.7452C109.975 30.1891 110.23 30.7543 110.365 31.4408C110.501 32.1114 110.574 32.9666 110.586 34.0065C110.597 34.9985 110.542 35.8231 110.421 36.4805C110.317 37.1377 110.091 37.6923 109.744 38.1442C109.35 38.6606 108.778 39.059 108.029 39.3393C107.296 39.6035 106.329 39.7422 105.129 39.7556L103.138 39.7777L103.097 36.106Z" fill="white"/>
<path d="M97.2034 28.467L97.1923 27.4671L96.1923 27.4782L96.2035 28.4782L97.2034 28.467ZM102.003 28.4137L103.003 28.4025L102.992 27.4026L101.992 27.4137L102.003 28.4137ZM102.187 44.9246L102.198 45.9246L103.198 45.9135L103.187 44.9135L102.187 44.9246ZM97.387 44.978L96.3871 44.9891L96.3982 45.9891L97.3982 45.978L97.387 44.978ZM103.097 36.106L103.086 35.106L102.086 35.1172L102.097 36.1171L103.097 36.106ZM104.8 36.039L104.943 37.0287L104.969 37.0249L104.995 37.0198L104.8 36.039ZM105.397 35.7444L104.724 35.0044L104.702 35.0242L104.682 35.0452L105.397 35.7444ZM105.655 35.1895L104.67 35.0161L104.665 35.0421L104.662 35.0683L105.655 35.1895ZM105.63 32.9576L104.639 33.0927L104.644 33.1289L104.652 33.1646L105.63 32.9576ZM105.359 32.3606L106.058 31.6457L106.037 31.6251L106.015 31.6058L105.359 32.3606ZM104.757 32.1273L104.583 33.1121L104.613 33.1174L104.644 33.1209L104.757 32.1273ZM103.052 32.0742L102.052 32.0853L102.063 33.0853L103.063 33.0742L103.052 32.0742ZM103.011 28.4024L103 27.4025L102 27.4136L102.011 28.4136L103.011 28.4024ZM107.887 28.7082L107.587 29.6624L107.6 29.6662L107.612 29.6697L107.887 28.7082ZM109.602 29.7452L108.828 30.3786L108.837 30.3885L109.602 29.7452ZM110.365 31.4408L109.384 31.6347L109.385 31.6389L110.365 31.4408ZM110.421 36.4805L109.438 36.3L109.436 36.3116L109.434 36.3232L110.421 36.4805ZM109.744 38.1442L108.951 37.5351L108.949 37.5373L109.744 38.1442ZM108.029 39.3393L108.368 40.2802L108.38 40.2759L108.029 39.3393ZM103.138 39.7777L102.138 39.7889L102.149 40.7888L103.149 40.7777L103.138 39.7777ZM97.2145 29.467L102.014 29.4136L101.992 27.4137L97.1923 27.4671L97.2145 29.467ZM101.003 28.4248L101.187 44.9358L103.187 44.9135L103.003 28.4025L101.003 28.4248ZM102.176 43.9247L97.3759 43.9781L97.3982 45.978L102.198 45.9246L102.176 43.9247ZM98.387 44.9669L98.2033 28.4559L96.2035 28.4782L96.3871 44.9891L98.387 44.9669ZM103.108 37.1059L103.684 37.0995L103.662 35.0996L103.086 35.106L103.108 37.1059ZM103.684 37.0995C104.203 37.0937 104.634 37.0734 104.943 37.0287L104.657 35.0493C104.487 35.0739 104.167 35.094 103.662 35.0996L103.684 37.0995ZM104.995 37.0198C105.393 36.9405 105.794 36.7687 106.112 36.4436L104.682 35.0452C104.696 35.0304 104.705 35.027 104.698 35.0306C104.689 35.0349 104.661 35.047 104.605 35.0583L104.995 37.0198ZM106.069 36.4843C106.431 36.1554 106.597 35.7259 106.647 35.3106L104.662 35.0683C104.658 35.1034 104.653 35.1054 104.661 35.0871C104.666 35.0777 104.673 35.0644 104.684 35.049C104.695 35.0336 104.709 35.0184 104.724 35.0044L106.069 36.4843ZM106.64 35.3628C106.701 35.0132 106.72 34.5626 106.714 34.0496L104.714 34.0719C104.72 34.5508 104.699 34.8527 104.67 35.0161L106.64 35.3628ZM106.714 34.0496C106.708 33.5404 106.68 33.091 106.608 32.7506L104.652 33.1646C104.681 33.3031 104.709 33.5891 104.714 34.0719L106.714 34.0496ZM106.621 32.8225C106.564 32.4063 106.401 31.981 106.058 31.6457L104.66 33.0755C104.65 33.0655 104.641 33.0554 104.635 33.0463C104.629 33.0374 104.626 33.0312 104.625 33.0295C104.624 33.0265 104.632 33.044 104.639 33.0927L106.621 32.8225ZM106.015 31.6058C105.673 31.3085 105.26 31.1781 104.87 31.1337L104.644 33.1209C104.703 33.1276 104.732 33.1374 104.738 33.14C104.744 33.142 104.727 33.1364 104.703 33.1153L106.015 31.6058ZM104.93 31.1424C104.58 31.0809 104.13 31.0622 103.617 31.0679L103.639 33.0678C104.118 33.0624 104.42 33.0834 104.583 33.1121L104.93 31.1424ZM103.617 31.0679L103.041 31.0743L103.063 33.0742L103.639 33.0678L103.617 31.0679ZM104.052 32.0631L104.011 28.3913L102.011 28.4136L102.052 32.0853L104.052 32.0631ZM103.022 29.4024L105.014 29.3802L104.992 27.3804L103 27.4025L103.022 29.4024ZM105.014 29.3802C106.142 29.3677 106.987 29.4741 107.587 29.6624L108.186 27.7541C107.309 27.4788 106.231 27.3666 104.992 27.3804L105.014 29.3802ZM107.612 29.6697C108.225 29.8448 108.6 30.0991 108.829 30.3786L110.376 29.1119C109.826 28.4399 109.058 28.0029 108.162 27.7467L107.612 29.6697ZM108.837 30.3885C109.081 30.6789 109.275 31.0796 109.384 31.6347L111.346 31.247C111.185 30.429 110.87 29.6993 110.368 29.1019L108.837 30.3885ZM109.385 31.6389C109.503 32.2249 109.575 33.0117 109.586 34.0177L111.586 33.9954C111.574 32.9215 111.498 31.9978 111.345 31.2428L109.385 31.6389ZM109.586 34.0177C109.597 34.973 109.543 35.7282 109.438 36.3L111.405 36.6611C111.541 35.9181 111.597 35.024 111.586 33.9954L109.586 34.0177ZM109.434 36.3232C109.351 36.8437 109.18 37.2359 108.951 37.5351L110.537 38.7532C111.001 38.1487 111.282 37.4317 111.409 36.6379L109.434 36.3232ZM108.949 37.5373C108.693 37.8731 108.292 38.1731 107.678 38.4028L108.38 40.2759C109.264 39.9448 110.006 39.448 110.539 38.751L108.949 37.5373ZM107.69 38.3985C107.103 38.6101 106.26 38.743 105.118 38.7557L105.141 40.7555C106.399 40.7415 107.489 40.5969 108.368 40.2801L107.69 38.3985ZM105.118 38.7557L103.126 38.7778L103.149 40.7777L105.141 40.7555L105.118 38.7557ZM104.137 39.7666L104.097 36.0949L102.097 36.1171L102.138 39.7889L104.137 39.7666Z" fill="#427583" mask="url(#path-6-outside-2_108_48)"/>
<path d="M96.9681 15.2827L86.9892 19.7598L92.0481 14.4795L89.4628 11.2393L99.4417 6.76226L94.3828 12.0424L96.9681 15.2827Z" fill="white"/>
<path d="M97.2711 17.8924C95.0722 20.2898 91.1508 20.3615 88.5058 17.9477C85.8609 15.5338 85.5847 11.6313 87.7836 9.23386C89.9825 6.83647 93.9039 6.76476 96.5489 9.1786C99.1938 11.5924 99.47 15.495 97.2711 17.8924Z" stroke="white"/>
</svg>
