<svg width="76" height="58" viewBox="0 0 76 58" fill="none" xmlns="http://www.w3.org/2000/svg">
<path d="M47.0151 22.0849L66.4163 15.5894V42.2211L47.0151 48.7167V22.0849Z" fill="#427583"/>
<path d="M27.4997 14.765L47.3182 6.62165L67.0226 14.765L67.0226 42.3475L47.3182 49.3661L27.4997 42.3475" stroke="#427583" stroke-width="3" stroke-linecap="round"/>
<path d="M27.3107 14.7417L47.3182 21.4355L66.7195 14.7417" stroke="#427583" stroke-width="3"/>
<path d="M10.2687 26.5095C9.97734 26.4941 9.57867 26.4558 9.07267 26.3945C8.12201 26.3025 7.35534 26.2565 6.77267 26.2565H6.01367V23.1285C7.10234 23.1285 8.13734 23.2051 9.11867 23.3585L10.2687 23.5655V26.5095ZM6.93367 31.4775C6.93367 31.2475 6.89534 31.1018 6.81867 31.0405C6.74201 30.9791 6.58101 30.9331 6.33567 30.9025L3.85167 30.5575C3.23834 30.4655 2.74001 30.3198 2.35667 30.1205C1.98867 29.9211 1.71267 29.6528 1.52867 29.3155C1.34467 29.0241 1.22201 28.6715 1.16067 28.2575C1.09934 27.8435 1.06867 27.3298 1.06867 26.7165C1.06867 25.4591 1.44434 24.5391 2.19567 23.9565C2.82434 23.4965 3.77501 23.2281 5.04767 23.1515V26.7625C5.04767 26.9925 5.07834 27.1458 5.13967 27.2225C5.20101 27.2838 5.39267 27.3375 5.71467 27.3835L8.47467 27.7515C8.87334 27.7975 9.21834 27.8818 9.50967 28.0045C9.80101 28.1118 10.0463 28.2805 10.2457 28.5105C10.6903 29.0011 10.9127 29.9441 10.9127 31.3395C10.9127 32.8115 10.537 33.8388 9.78567 34.4215C9.12634 34.9121 8.17567 35.1728 6.93367 35.2035V31.4775ZM5.96767 35.2265C4.74101 35.2111 3.66767 35.1345 2.74767 34.9965L1.43667 34.7895V31.8455C2.05001 31.9068 2.87801 31.9681 3.92067 32.0295C4.50334 32.0601 4.91734 32.0755 5.16267 32.0755H5.96767V35.2265ZM19.4468 27.8895C19.4468 27.5215 19.4084 27.2378 19.3318 27.0385C19.2704 26.8851 19.1708 26.7931 19.0328 26.7625C18.9101 26.7165 18.6878 26.6935 18.3658 26.6935H18.2508V23.8185C18.8488 23.3738 19.6768 23.1515 20.7348 23.1515C21.2101 23.1515 21.6241 23.2128 21.9768 23.3355C22.3294 23.4428 22.6284 23.6421 22.8738 23.9335C23.4258 24.6081 23.7018 25.8655 23.7018 27.7055V35.0425H19.4468V27.8895ZM25.8638 27.8895C25.8638 27.5215 25.8254 27.2378 25.7488 27.0385C25.6874 26.8851 25.5878 26.7931 25.4498 26.7625C25.3271 26.7165 25.1048 26.6935 24.7828 26.6935H24.6678C24.6371 26.2948 24.5911 25.8808 24.5298 25.4515C24.4071 24.8381 24.2768 24.3935 24.1388 24.1175C24.7828 23.4735 25.7028 23.1515 26.8988 23.1515C28.2021 23.1515 29.0914 23.5731 29.5668 24.4165C29.7814 24.7845 29.9271 25.2368 30.0038 25.7735C30.0804 26.2948 30.1188 26.9388 30.1188 27.7055V35.0425H25.8638V27.8895ZM13.0298 23.3125H17.2848V35.0425H13.0298V23.3125ZM40.3175 35.2035C39.7655 35.2035 39.3131 35.1575 38.9605 35.0655C38.6078 34.9888 38.2781 34.8278 37.9715 34.5825V31.6615H38.2245C38.5618 31.6615 38.7995 31.6461 38.9375 31.6155C39.0908 31.5695 39.2058 31.4775 39.2825 31.3395C39.3591 31.1708 39.4051 30.9255 39.4205 30.6035C39.4358 30.3735 39.4435 29.8981 39.4435 29.1775C39.4435 28.4568 39.4358 27.9815 39.4205 27.7515C39.4051 27.4141 39.3591 27.1688 39.2825 27.0155C39.2211 26.8621 39.1061 26.7701 38.9375 26.7395C38.7228 26.7088 38.4851 26.6935 38.2245 26.6935H37.9715V23.7725C38.2781 23.5425 38.6155 23.3815 38.9835 23.2895C39.3668 23.1975 39.8115 23.1515 40.3175 23.1515C40.9308 23.1515 41.4521 23.2511 41.8815 23.4505C42.3261 23.6498 42.6865 23.9718 42.9625 24.4165C43.4991 25.3058 43.7675 26.8775 43.7675 29.1315C43.7675 31.3701 43.4991 32.9495 42.9625 33.8695C42.4258 34.7588 41.5441 35.2035 40.3175 35.2035ZM32.7505 23.3125H37.0055V39.6195H32.7505V23.3125Z" fill="#427583"/>
<path d="M49.075 30.6651L51.8748 30.6317L51.9748 40.2632L49.175 40.2966L49.075 30.6651ZM54.5401 36.5224L52.5242 36.5464L52.501 34.3065L54.5168 34.2825L54.4786 30.6007L57.2784 30.5673L57.3784 40.1988L54.5786 40.2322L54.5401 36.5224ZM59.0958 30.5457L61.8956 30.5123L61.9955 40.1438L59.1957 40.1772L59.0958 30.5457ZM62.5302 34.9991L62.8661 34.9951C63.1648 34.9915 63.384 34.9796 63.5238 34.9592C63.6728 34.9294 63.7889 34.8721 63.872 34.7871C63.9553 34.7114 64.0055 34.6035 64.0227 34.4632C64.0491 34.3136 64.0609 34.0941 64.0578 33.8048C64.0548 33.5155 64.0386 33.301 64.0092 33.1613C63.9889 33.0122 63.9364 32.8962 63.8515 32.8132C63.7668 32.7395 63.6496 32.6942 63.5001 32.6773C63.3505 32.6511 63.131 32.6397 62.8417 32.6432L62.5057 32.6472L62.4835 30.5053L63.6454 30.4915C64.336 30.4832 64.8967 30.5466 65.3275 30.6814C65.7675 30.8069 66.1009 31.0082 66.3278 31.2856C66.5452 31.5443 66.6933 31.8739 66.7721 32.2743C66.8508 32.6654 66.8933 33.1643 66.8996 33.7709C66.9057 34.3495 66.8733 34.8306 66.8026 35.2142C66.7413 35.5976 66.6093 35.9212 66.4067 36.185C66.1765 36.4864 65.8429 36.719 65.4059 36.8829C64.9781 37.0374 64.4143 37.1188 63.7143 37.1271L62.5524 37.1409L62.5302 34.9991Z" fill="white"/>
</svg>
