<svg width="110" height="58" viewBox="0 0 110 58" fill="none" xmlns="http://www.w3.org/2000/svg">
<path d="M108 19.0469V21.855V36.0799C108 37.3077 107.252 38.4116 106.111 38.8664L89.7551 45.3896C89.029 45.6792 88.2186 45.6739 87.4963 45.3749L71.8525 38.899C70.7312 38.4348 70 37.3407 70 36.1271V18.9966C70 17.8408 70.664 16.7877 71.707 16.2895L87.3552 8.81516C88.1594 8.43104 89.0928 8.42435 89.9024 8.79691L106.254 16.3216C107.318 16.8113 108 17.8755 108 19.0469Z" fill="#427583" stroke="#427583" stroke-width="4" stroke-linecap="round"/>
<mask id="path-2-outside-1_108_48" maskUnits="userSpaceOnUse" x="68" y="15" width="42" height="25" fill="black">
<rect fill="white" x="68" y="15" width="42" height="25"/>
<path d="M71.8903 18.424H77.2903V37H71.8903V18.424ZM82.3123 29.845H78.4243V25.525H82.3123V18.424H87.7123V37H82.3123V29.845ZM91.2174 18.424H96.6174V37H91.2174V18.424ZM97.7514 27.091H98.3994C98.9754 27.091 99.3984 27.073 99.6684 27.037C99.9564 26.983 100.181 26.875 100.343 26.713C100.505 26.569 100.604 26.362 100.64 26.092C100.694 25.804 100.721 25.381 100.721 24.823C100.721 24.265 100.694 23.851 100.64 23.581C100.604 23.293 100.505 23.068 100.343 22.906C100.181 22.762 99.9564 22.672 99.6684 22.636C99.3804 22.582 98.9574 22.555 98.3994 22.555H97.7514V18.424H99.9924C101.324 18.424 102.404 18.559 103.232 18.829C104.078 19.081 104.717 19.477 105.149 20.017C105.563 20.521 105.842 21.16 105.986 21.934C106.13 22.69 106.202 23.653 106.202 24.823C106.202 25.939 106.13 26.866 105.986 27.604C105.86 28.342 105.599 28.963 105.203 29.467C104.753 30.043 104.105 30.484 103.259 30.79C102.431 31.078 101.342 31.222 99.9924 31.222H97.7514V27.091Z"/>
</mask>
<path d="M71.8903 18.424H77.2903V37H71.8903V18.424ZM82.3123 29.845H78.4243V25.525H82.3123V18.424H87.7123V37H82.3123V29.845ZM91.2174 18.424H96.6174V37H91.2174V18.424ZM97.7514 27.091H98.3994C98.9754 27.091 99.3984 27.073 99.6684 27.037C99.9564 26.983 100.181 26.875 100.343 26.713C100.505 26.569 100.604 26.362 100.64 26.092C100.694 25.804 100.721 25.381 100.721 24.823C100.721 24.265 100.694 23.851 100.64 23.581C100.604 23.293 100.505 23.068 100.343 22.906C100.181 22.762 99.9564 22.672 99.6684 22.636C99.3804 22.582 98.9574 22.555 98.3994 22.555H97.7514V18.424H99.9924C101.324 18.424 102.404 18.559 103.232 18.829C104.078 19.081 104.717 19.477 105.149 20.017C105.563 20.521 105.842 21.16 105.986 21.934C106.13 22.69 106.202 23.653 106.202 24.823C106.202 25.939 106.13 26.866 105.986 27.604C105.86 28.342 105.599 28.963 105.203 29.467C104.753 30.043 104.105 30.484 103.259 30.79C102.431 31.078 101.342 31.222 99.9924 31.222H97.7514V27.091Z" fill="white"/>
<path d="M71.8903 18.424V15.424H68.8903V18.424H71.8903ZM77.2903 18.424H80.2903V15.424H77.2903V18.424ZM77.2903 37V40H80.2903V37H77.2903ZM71.8903 37H68.8903V40H71.8903V37ZM82.3123 29.845H85.3123V26.845H82.3123V29.845ZM78.4243 29.845H75.4243V32.845H78.4243V29.845ZM78.4243 25.525V22.525H75.4243V25.525H78.4243ZM82.3123 25.525V28.525H85.3123V25.525H82.3123ZM82.3123 18.424V15.424H79.3123V18.424H82.3123ZM87.7123 18.424H90.7123V15.424H87.7123V18.424ZM87.7123 37V40H90.7123V37H87.7123ZM82.3123 37H79.3123V40H82.3123V37ZM71.8903 21.424H77.2903V15.424H71.8903V21.424ZM74.2903 18.424V37H80.2903V18.424H74.2903ZM77.2903 34H71.8903V40H77.2903V34ZM74.8903 37V18.424H68.8903V37H74.8903ZM82.3123 26.845H78.4243V32.845H82.3123V26.845ZM81.4243 29.845V25.525H75.4243V29.845H81.4243ZM78.4243 28.525H82.3123V22.525H78.4243V28.525ZM85.3123 25.525V18.424H79.3123V25.525H85.3123ZM82.3123 21.424H87.7123V15.424H82.3123V21.424ZM84.7123 18.424V37H90.7123V18.424H84.7123ZM87.7123 34H82.3123V40H87.7123V34ZM85.3123 37V29.845H79.3123V37H85.3123ZM91.2174 18.424V15.424H88.2174V18.424H91.2174ZM96.6174 18.424H99.6174V15.424H96.6174V18.424ZM96.6174 37V40H99.6174V37H96.6174ZM91.2174 37H88.2174V40H91.2174V37ZM97.7514 27.091V24.091H94.7514V27.091H97.7514ZM99.6684 27.037L100.065 30.0107L100.143 30.0002L100.221 29.9856L99.6684 27.037ZM100.343 26.713L98.3503 24.4708L98.2844 24.5293L98.2221 24.5917L100.343 26.713ZM100.64 26.092L97.6918 25.5391L97.6772 25.617L97.6667 25.6955L100.64 26.092ZM100.64 23.581L97.6636 23.9531L97.6772 24.0619L97.6987 24.1693L100.64 23.581ZM100.343 22.906L102.465 20.7847L102.402 20.7223L102.336 20.6638L100.343 22.906ZM99.6684 22.636L99.1155 25.5846L99.2055 25.6015L99.2963 25.6128L99.6684 22.636ZM97.7514 22.555H94.7514V25.555H97.7514V22.555ZM97.7514 18.424V15.424H94.7514V18.424H97.7514ZM103.232 18.829L102.302 21.6812L102.339 21.6931L102.376 21.7042L103.232 18.829ZM105.149 20.017L102.807 21.8911L102.819 21.9062L102.831 21.9212L105.149 20.017ZM105.986 21.934L103.037 22.4827L103.039 22.4953L105.986 21.934ZM105.986 27.604L103.042 27.0295L103.035 27.0642L103.029 27.0991L105.986 27.604ZM105.203 29.467L102.844 27.6135L102.839 27.6201L105.203 29.467ZM103.259 30.79L104.245 33.6235L104.262 33.6174L104.28 33.6111L103.259 30.79ZM97.7514 31.222H94.7514V34.222H97.7514V31.222ZM91.2174 21.424H96.6174V15.424H91.2174V21.424ZM93.6174 18.424V37H99.6174V18.424H93.6174ZM96.6174 34H91.2174V40H96.6174V34ZM94.2174 37V18.424H88.2174V37H94.2174ZM97.7514 30.091H98.3994V24.091H97.7514V30.091ZM98.3994 30.091C98.9958 30.091 99.586 30.0745 100.065 30.0107L99.2719 24.0633C99.2724 24.0633 99.267 24.064 99.255 24.0652C99.2431 24.0664 99.2263 24.068 99.2042 24.0697C99.1592 24.0732 99.0989 24.0769 99.0211 24.0802C98.8641 24.0869 98.6589 24.091 98.3994 24.091V30.091ZM100.221 29.9856C100.938 29.8512 101.77 29.529 102.465 28.8343L98.2221 24.5917C98.5928 24.221 98.9746 24.1148 99.1155 24.0884L100.221 29.9856ZM102.336 28.9552C103.163 28.2205 103.508 27.2826 103.614 26.4885L97.6667 25.6955C97.7006 25.4414 97.8477 24.9175 98.3503 24.4708L102.336 28.9552ZM103.589 26.6449C103.695 26.0781 103.721 25.4322 103.721 24.823H97.7214C97.7214 25.0569 97.7157 25.236 97.7072 25.3676C97.6984 25.5062 97.6889 25.5545 97.6918 25.5391L103.589 26.6449ZM103.721 24.823C103.721 24.2252 103.697 23.5662 103.582 22.9927L97.6987 24.1693C97.6902 24.1273 97.6988 24.1553 97.7075 24.2892C97.7156 24.4135 97.7214 24.5885 97.7214 24.823H103.721ZM103.617 23.2089C103.521 22.4382 103.212 21.532 102.465 20.7847L98.2221 25.0273C97.7988 24.604 97.6879 24.1478 97.6636 23.9531L103.617 23.2089ZM102.336 20.6638C101.59 20.0005 100.73 19.7454 100.041 19.6592L99.2963 25.6128C99.1826 25.5986 98.7725 25.5235 98.3503 25.1482L102.336 20.6638ZM100.221 19.6874C99.6545 19.5811 99.0086 19.555 98.3994 19.555V25.555C98.6333 25.555 98.8124 25.5608 98.9441 25.5692C99.0826 25.578 99.1309 25.5875 99.1155 25.5846L100.221 19.6874ZM98.3994 19.555H97.7514V25.555H98.3994V19.555ZM100.751 22.555V18.424H94.7514V22.555H100.751ZM97.7514 21.424H99.9924V15.424H97.7514V21.424ZM99.9924 21.424C101.157 21.424 101.889 21.5465 102.302 21.6812L104.162 15.9768C102.92 15.5715 101.492 15.424 99.9924 15.424V21.424ZM102.376 21.7042C102.798 21.8299 102.85 21.9451 102.807 21.8911L107.492 18.1429C106.585 17.0089 105.359 16.3321 104.089 15.9538L102.376 21.7042ZM102.831 21.9212C102.863 21.9605 102.967 22.104 103.037 22.4827L108.936 21.3853C108.718 20.216 108.263 19.0815 107.468 18.1128L102.831 21.9212ZM103.039 22.4953C103.135 22.9973 103.202 23.755 103.202 24.823H109.202C109.202 23.551 109.126 22.3827 108.933 21.3727L103.039 22.4953ZM103.202 24.823C103.202 25.8292 103.136 26.5478 103.042 27.0295L108.931 28.1785C109.125 27.1842 109.202 26.0488 109.202 24.823H103.202ZM103.029 27.0991C102.973 27.4279 102.884 27.5636 102.844 27.6135L107.562 31.3205C108.315 30.3624 108.748 29.2561 108.944 28.1089L103.029 27.0991ZM102.839 27.6201C102.809 27.6589 102.677 27.8105 102.239 27.9689L104.28 33.6111C105.534 33.1575 106.698 32.4271 107.567 31.3139L102.839 27.6201ZM102.274 27.9565C101.886 28.0915 101.168 28.222 99.9924 28.222V34.222C101.517 34.222 102.977 34.0645 104.245 33.6235L102.274 27.9565ZM99.9924 28.222H97.7514V34.222H99.9924V28.222ZM100.751 31.222V27.091H94.7514V31.222H100.751Z" fill="#427583" mask="url(#path-2-outside-1_108_48)"/>
<path d="M19.9919 24.128C19.5865 24.1067 19.0319 24.0533 18.3279 23.968C17.0052 23.84 15.9385 23.776 15.1279 23.776H14.0719V19.424C15.5865 19.424 17.0265 19.5307 18.3919 19.744L19.9919 20.032V24.128ZM15.3519 31.04C15.3519 30.72 15.2985 30.5173 15.1919 30.432C15.0852 30.3467 14.8612 30.2827 14.5199 30.24L11.0639 29.76C10.2105 29.632 9.51719 29.4293 8.98386 29.152C8.47186 28.8747 8.08786 28.5013 7.83186 28.032C7.57586 27.6267 7.40519 27.136 7.31986 26.56C7.23452 25.984 7.19186 25.2693 7.19186 24.416C7.19186 22.6667 7.71452 21.3867 8.75986 20.576C9.63452 19.936 10.9572 19.5627 12.7279 19.456V24.48C12.7279 24.8 12.7705 25.0133 12.8559 25.12C12.9412 25.2053 13.2079 25.28 13.6559 25.344L17.4959 25.856C18.0505 25.92 18.5305 26.0373 18.9359 26.208C19.3412 26.3573 19.6825 26.592 19.9599 26.912C20.5785 27.5947 20.8879 28.9067 20.8879 30.848C20.8879 32.896 20.3652 34.3253 19.3199 35.136C18.4025 35.8187 17.0799 36.1813 15.3519 36.224V31.04ZM14.0079 36.256C12.3012 36.2347 10.8079 36.128 9.52786 35.936L7.70386 35.648V31.552C8.55719 31.6373 9.70919 31.7227 11.1599 31.808C11.9705 31.8507 12.5465 31.872 12.8879 31.872H14.0079V36.256ZM32.7614 26.048C32.7614 25.536 32.708 25.1413 32.6014 24.864C32.516 24.6507 32.3774 24.5227 32.1854 24.48C32.0147 24.416 31.7054 24.384 31.2574 24.384H31.0974V20.384C31.9294 19.7653 33.0814 19.456 34.5534 19.456C35.2147 19.456 35.7907 19.5413 36.2814 19.712C36.772 19.8613 37.188 20.1387 37.5294 20.544C38.2974 21.4827 38.6814 23.232 38.6814 25.792V36H32.7614V26.048ZM41.6894 26.048C41.6894 25.536 41.636 25.1413 41.5294 24.864C41.444 24.6507 41.3054 24.5227 41.1134 24.48C40.9427 24.416 40.6334 24.384 40.1854 24.384H40.0254C39.9827 23.8293 39.9187 23.2533 39.8334 22.656C39.6627 21.8027 39.4814 21.184 39.2894 20.8C40.1854 19.904 41.4654 19.456 43.1294 19.456C44.9427 19.456 46.18 20.0427 46.8414 21.216C47.14 21.728 47.3427 22.3573 47.4494 23.104C47.556 23.8293 47.6094 24.7253 47.6094 25.792V36H41.6894V26.048ZM23.8334 19.68H29.7534V36H23.8334V19.68ZM61.7989 36.224C61.0309 36.224 60.4015 36.16 59.9109 36.032C59.4202 35.9253 58.9615 35.7013 58.5349 35.36V31.296H58.8869C59.3562 31.296 59.6869 31.2747 59.8789 31.232C60.0922 31.168 60.2522 31.04 60.3589 30.848C60.4655 30.6133 60.5295 30.272 60.5509 29.824C60.5722 29.504 60.5829 28.8427 60.5829 27.84C60.5829 26.8373 60.5722 26.176 60.5509 25.856C60.5295 25.3867 60.4655 25.0453 60.3589 24.832C60.2735 24.6187 60.1135 24.4907 59.8789 24.448C59.5802 24.4053 59.2495 24.384 58.8869 24.384H58.5349V20.32C58.9615 20 59.4309 19.776 59.9429 19.648C60.4762 19.52 61.0949 19.456 61.7989 19.456C62.6522 19.456 63.3775 19.5947 63.9749 19.872C64.5935 20.1493 65.0949 20.5973 65.4789 21.216C66.2255 22.4533 66.5989 24.64 66.5989 27.776C66.5989 30.8907 66.2255 33.088 65.4789 34.368C64.7322 35.6053 63.5055 36.224 61.7989 36.224ZM51.2709 19.68H57.1909V42.368H51.2709V19.68Z" fill="#427583"/>
</svg>
