<svg width="25" height="25" viewBox="0 0 25 25" fill="none" xmlns="http://www.w3.org/2000/svg">
<g clip-path="url(#clip0_307_18)">
<path d="M21.5313 3.84714C19.1718 1.38424 15.907 -0.00570536 12.4962 0.000570477C5.60336 -0.0081111 0.00850836 5.57263 -0.00017321 12.4655C-0.0044617 15.8738 1.38532 19.1356 3.84639 21.4935C3.85356 21.5006 3.85622 21.5113 3.86334 21.5176C3.93561 21.5872 4.01417 21.6461 4.08738 21.7131C4.28821 21.8916 4.48904 22.0764 4.70058 22.2486C4.81392 22.3379 4.93174 22.4271 5.0478 22.5092C5.24773 22.6583 5.44767 22.8073 5.6565 22.9448C5.79844 23.0341 5.94482 23.1233 6.09026 23.2126C6.28304 23.3286 6.47497 23.4455 6.67402 23.5517C6.84274 23.641 7.01496 23.7177 7.18634 23.799C7.37378 23.8882 7.55855 23.9775 7.75043 24.0578C7.94232 24.1381 8.13514 24.2006 8.32969 24.2702C8.52424 24.3398 8.69207 24.4041 8.87862 24.4612C9.08928 24.5246 9.30527 24.5737 9.51948 24.6263C9.69798 24.67 9.87114 24.72 10.055 24.7558C10.3013 24.8049 10.5513 24.8361 10.8012 24.87C10.9557 24.8915 11.1065 24.9218 11.2627 24.937C11.6715 24.9771 12.0838 24.9995 12.4997 24.9995C12.9157 24.9995 13.328 24.9771 13.7368 24.937C13.893 24.9218 14.0438 24.8915 14.1982 24.87C14.4482 24.8361 14.698 24.8049 14.9444 24.7558C15.1229 24.72 15.3015 24.6665 15.48 24.6263C15.6942 24.5737 15.9102 24.5246 16.1208 24.4612C16.3074 24.4041 16.4876 24.3345 16.6698 24.2702C16.8519 24.206 17.0589 24.1363 17.249 24.0578C17.4391 23.9792 17.6257 23.8873 17.8131 23.799C17.9845 23.7177 18.1568 23.641 18.3254 23.5517C18.5245 23.4455 18.7164 23.3286 18.9092 23.2126C19.0547 23.1233 19.2011 23.0421 19.3429 22.9448C19.5518 22.8074 19.7518 22.6583 19.9516 22.5092C20.0677 22.42 20.1855 22.3396 20.2989 22.2486C20.5104 22.079 20.7112 21.8987 20.9121 21.7131C20.9852 21.6461 21.0638 21.5873 21.1361 21.5176C21.1432 21.5114 21.1459 21.5006 21.1531 21.4935C26.1305 16.725 26.2998 8.82445 21.5313 3.84714ZM19.5252 20.559C19.3628 20.7018 19.1949 20.8374 19.0254 20.9687C18.9254 21.0454 18.8255 21.1213 18.7228 21.1945C18.5612 21.3114 18.397 21.4221 18.2301 21.5283C18.1087 21.606 17.9846 21.6809 17.8597 21.7541C17.7025 21.8434 17.5428 21.9326 17.3812 22.0219C17.2384 22.0951 17.0929 22.1638 16.9466 22.2317C16.8002 22.2995 16.6386 22.3718 16.4806 22.4352C16.3226 22.4986 16.1549 22.5583 15.9897 22.6137C15.8389 22.6654 15.6881 22.719 15.5354 22.7645C15.3569 22.818 15.1704 22.8618 14.9856 22.9064C14.841 22.9403 14.6982 22.9787 14.5518 23.0073C14.3403 23.0484 14.1243 23.0769 13.9074 23.1064C13.7842 23.1224 13.662 23.1448 13.5378 23.1573C13.1951 23.1903 12.8479 23.2099 12.4971 23.2099C12.1463 23.2099 11.7991 23.1903 11.4564 23.1573C11.3323 23.1448 11.21 23.1224 11.0868 23.1064C10.8699 23.0769 10.6539 23.0484 10.4424 23.0073C10.296 22.9788 10.1532 22.9404 10.0086 22.9064C9.82386 22.8618 9.63998 22.8172 9.45882 22.7645C9.30621 22.719 9.15533 22.6654 9.0045 22.6137C8.83939 22.5566 8.67423 22.4985 8.51357 22.4352C8.35291 22.3718 8.20119 22.3022 8.04764 22.2317C7.8941 22.1612 7.75577 22.0951 7.61299 22.0219C7.45144 21.938 7.29167 21.8496 7.13456 21.7541C7.00962 21.681 6.88552 21.606 6.76413 21.5283C6.59725 21.4221 6.43298 21.3114 6.27143 21.1945C6.16876 21.1213 6.06882 21.0454 5.96883 20.9687C5.79922 20.8374 5.63145 20.7009 5.46901 20.559C5.42973 20.5295 5.39401 20.492 5.35568 20.4581C5.39558 17.4218 7.34616 14.7407 10.2228 13.7683C11.6612 14.4525 13.3312 14.4525 14.7696 13.7683C17.6462 14.7407 19.5968 17.4217 19.6368 20.4581C19.5993 20.492 19.5635 20.526 19.5252 20.559ZM9.38377 7.15701C10.3502 5.43827 12.5269 4.82842 14.2457 5.79484C15.9644 6.76127 16.5743 8.93799 15.6078 10.6567C15.2872 11.227 14.816 11.6982 14.2457 12.0189C14.2412 12.0189 14.2358 12.0189 14.2305 12.0242C13.9938 12.156 13.7436 12.2619 13.4843 12.3402C13.4379 12.3536 13.395 12.3714 13.346 12.3831C13.2567 12.4063 13.163 12.4223 13.071 12.4384C12.8979 12.4687 12.7228 12.4862 12.5471 12.4911H12.4453C12.2697 12.4862 12.0945 12.4687 11.9214 12.4384C11.8321 12.4223 11.7375 12.4063 11.6465 12.3831C11.5992 12.3714 11.5572 12.3536 11.5082 12.3402C11.2488 12.2619 10.9987 12.156 10.762 12.0242L10.7459 12.0189C9.0272 11.0525 8.41734 8.87575 9.38377 7.15701ZM21.2202 18.6882C20.6474 16.0166 18.8882 13.7517 16.4414 12.5358C18.4415 10.357 18.2967 6.96921 16.1178 4.96905C13.939 2.96888 10.5513 3.11375 8.55112 5.29257C6.67078 7.34089 6.67078 10.4875 8.55112 12.5358C6.10433 13.7518 4.34511 16.0166 3.77234 18.6882C0.349705 13.8671 1.48333 7.18431 6.30437 3.76168C11.1254 0.339047 17.8082 1.47267 21.2309 6.29372C22.5175 8.10602 23.2081 10.2739 23.207 12.4964C23.207 14.7171 22.5123 16.8821 21.2202 18.6882Z" fill="white"/>
</g>
<defs>
<clipPath id="clip0_307_18">
<rect width="25" height="25" fill="white"/>
</clipPath>
</defs>
</svg>
