<svg width="65" height="65" viewBox="0 0 65 65" fill="none" xmlns="http://www.w3.org/2000/svg">
<path d="M60.209 50.9728V56.4461H55.4199H38.3156V50.9728H48.5644H60.209Z" fill="#F4661E"/>
<path d="M23.9478 40.4638C25.9319 41.5038 28.2444 42.0784 30.7895 42.0784C33.3347 42.0784 35.6471 41.49 37.6313 40.4638V44.8153C37.6313 44.8153 34.8125 48.236 30.7895 48.236C26.7665 48.236 23.9478 44.8153 23.9478 44.8153V40.4638Z" fill="#FEDAAB"/>
<path d="M43.7889 48.9203C45.6362 49.5088 47.2096 50.1518 48.5644 50.8497V50.9728H38.3154V56.4461H55.4197V56.6924C56.7744 58.8817 56.7881 60.5512 56.7881 60.5512C56.7881 60.5512 56.7881 62.0563 56.7881 63.9719H4.79095C4.79095 62.0562 4.79095 60.5512 4.79095 60.5512C4.79095 60.5512 4.9141 53.0663 17.7903 48.9202C17.7903 48.9202 22.4565 46.4846 23.948 44.8152C23.948 44.8152 26.7667 48.2359 30.7897 48.2359C34.8128 48.2359 37.6315 44.8152 37.6315 44.8152C39.1227 46.4846 43.7889 48.9203 43.7889 48.9203Z" fill="#4CBD91"/>
<path d="M37.6313 40.4639C35.6471 41.4901 33.3347 42.0784 30.7895 42.0784C28.2444 42.0784 25.9319 41.5037 23.9477 40.4639C19.5554 38.1787 16.6682 33.6905 15.9292 28.3402C13.8084 28.0529 11.6326 26.0413 11.6326 24.29C11.6326 22.4017 13.4662 21.5533 15.7377 21.5533V18.8165C15.7377 18.8165 21.211 18.8165 27.3686 12.6589C27.3686 12.6589 36.2629 18.1322 45.8414 18.1322V21.553C48.1128 21.553 49.9464 22.4013 49.9464 24.2897C49.9464 26.0413 47.7708 28.0526 45.6498 28.3399C44.911 33.6905 42.0236 38.1787 37.6313 40.4639Z" fill="#FEDAAB"/>
<path d="M27.3687 12.659C21.2111 18.8167 15.7378 18.8167 15.7378 18.8167V18.1325C15.7378 18.1325 15.0262 1.0282 30.7896 1.0282C46.5256 1.0282 45.8415 18.1325 45.8415 18.1325C36.263 18.1324 27.3687 12.659 27.3687 12.659Z" fill="#A67C52"/>
<path d="M61.2371 49.9446H49.0305L49.0352 49.9357C47.609 49.201 46.0222 48.557 44.1871 47.9682C42.9657 47.3252 39.9569 45.6207 38.6593 44.3961V41.0709C42.8081 38.6859 45.6475 34.4179 46.5566 29.197C48.9188 28.5225 50.9744 26.3168 50.9744 24.2899C50.9744 22.2308 49.4275 20.863 46.8694 20.5798V18.1513C46.8895 17.57 47.0678 9.56264 42.0459 4.33584C39.2818 1.45882 35.4945 0 30.7896 0C26.0723 0 22.2781 1.46161 19.5128 4.34422C14.5007 9.56924 14.6885 17.5632 14.7097 18.1518V20.5798C12.1514 20.863 10.6046 22.2307 10.6046 24.2899C10.6046 26.3168 12.6605 28.5224 15.0225 29.197C15.9317 34.419 18.7718 38.6875 22.9198 41.0711V44.396C21.6227 45.6199 18.6112 47.3259 17.3904 47.969C4.05246 52.2969 3.76846 60.1993 3.76301 60.5343L3.76288 65H57.8162V60.5427C57.8157 60.4781 57.794 59.2226 57.001 57.474H61.237V49.9446H61.2371V49.9446ZM24.9758 42.0562C26.7709 42.7528 28.719 43.1065 30.7895 43.1065C32.8437 43.1065 34.7916 42.751 36.6032 42.0506V44.4192C35.901 45.1534 33.6772 47.208 30.7895 47.208C27.9206 47.208 25.6813 45.1493 24.9758 44.4171V42.0562ZM21.0053 5.75873C23.3673 3.3018 26.659 2.05614 30.7896 2.05614C34.9082 2.05614 38.1938 3.29939 40.5546 5.75124C44.0721 9.40445 44.6947 14.8486 44.7976 17.0812C36.03 16.71 27.9905 11.8345 27.9076 11.7834L27.2161 11.358L26.6419 11.9321C22.4283 16.1457 18.5477 17.3288 16.763 17.6601C16.784 15.9834 17.1339 9.78595 21.0053 5.75873ZM16.9476 28.1998L16.8409 27.4265L16.0673 27.3216C14.5798 27.12 12.6607 25.6137 12.6607 24.29C12.6607 22.7046 15.0159 22.5813 15.7376 22.5813H16.7657V19.7496C18.6489 19.4683 22.8725 18.3538 27.5266 13.9399C29.7479 15.1859 36.8985 18.8401 44.8138 19.14L44.8131 22.5812H45.8412C46.5631 22.5812 48.9182 22.7043 48.9182 24.2899C48.9182 25.6136 46.999 27.1199 45.5116 27.3215L44.738 27.4264L44.6312 28.1996C43.9255 33.31 41.2011 37.4477 37.1587 39.5508C35.2349 40.546 33.092 41.0504 30.7893 41.0504C28.4614 41.0504 26.3202 40.5466 24.422 39.5517C20.3779 37.4477 17.6535 33.3102 16.9476 28.1998ZM55.7602 60.5643V62.944H5.81902V60.5701C5.82562 60.4497 5.94279 58.8004 7.40377 56.7374C9.97623 53.105 14.6432 51.0135 18.1056 49.8986L18.1886 49.8719L18.266 49.8314C18.6917 49.6092 21.9986 47.8629 23.913 46.2595C25.0968 47.3738 27.5781 49.2639 30.7896 49.2639C34.001 49.2639 36.4824 47.3738 37.6662 46.2595C39.5806 47.8628 42.8876 49.6092 43.3132 49.8314L43.3921 49.8726L43.4769 49.8997C43.5234 49.9145 43.5677 49.9296 43.6138 49.9445H37.2875V57.4741H54.6882C55.6833 59.1872 55.7566 60.481 55.7602 60.5643ZM59.1809 55.4182H39.3435V52.0009H59.1811V55.4182H59.1809Z" fill="#231F20"/>
</svg>
