<svg width="27" height="25" viewBox="0 0 27 25" fill="none" xmlns="http://www.w3.org/2000/svg">
<g clip-path="url(#clip0_519_239)">
<path d="M23.047 3.84714C20.6076 1.38424 17.2325 -0.00570536 13.7063 0.000570477C6.58039 -0.0081111 0.796339 5.57263 0.787364 12.4655C0.78293 15.8738 2.21971 19.1356 4.76401 21.4935C4.77141 21.5006 4.77417 21.5113 4.78152 21.5176C4.85624 21.5872 4.93745 21.6461 5.01315 21.7131C5.22076 21.8916 5.42838 22.0764 5.64708 22.2486C5.76425 22.3379 5.88606 22.4271 6.00604 22.5092C6.21274 22.6583 6.41943 22.8073 6.63533 22.9448C6.78206 23.0341 6.9334 23.1233 7.08376 23.2126C7.28305 23.3286 7.48148 23.4455 7.68726 23.5517C7.86168 23.641 8.03972 23.7177 8.2169 23.799C8.41067 23.8882 8.60169 23.9775 8.80007 24.0578C8.99844 24.1381 9.19778 24.2006 9.39891 24.2702C9.60004 24.3398 9.77355 24.4041 9.9664 24.4612C10.1842 24.5246 10.4075 24.5737 10.6289 24.6263C10.8135 24.67 10.9925 24.72 11.1826 24.7558C11.4372 24.8049 11.6956 24.8361 11.954 24.87C12.1137 24.8915 12.2696 24.9218 12.4311 24.937C12.8537 24.9771 13.28 24.9995 13.71 24.9995C14.14 24.9995 14.5663 24.9771 14.9889 24.937C15.1504 24.9218 15.3063 24.8915 15.4659 24.87C15.7243 24.8361 15.9826 24.8049 16.2373 24.7558C16.4219 24.72 16.6064 24.6665 16.791 24.6263C17.0124 24.5737 17.2357 24.5246 17.4535 24.4612C17.6464 24.4041 17.8327 24.3345 18.021 24.2702C18.2093 24.206 18.4233 24.1363 18.6199 24.0578C18.8164 23.9792 19.0092 23.8873 19.203 23.799C19.3802 23.7177 19.5583 23.641 19.7327 23.5517C19.9384 23.4455 20.1368 23.3286 20.3362 23.2126C20.4866 23.1233 20.6379 23.0421 20.7846 22.9448C21.0005 22.8074 21.2072 22.6583 21.4139 22.5092C21.5339 22.42 21.6556 22.3396 21.7728 22.2486C21.9915 22.079 22.1992 21.8987 22.4068 21.7131C22.4824 21.6461 22.5636 21.5873 22.6384 21.5176C22.6458 21.5114 22.6486 21.5006 22.6559 21.4935C27.8017 16.725 27.9767 8.82445 23.047 3.84714ZM20.973 20.559C20.8051 20.7018 20.6316 20.8374 20.4563 20.9687C20.353 21.0454 20.2496 21.1213 20.1435 21.1945C19.9765 21.3114 19.8067 21.4221 19.6341 21.5283C19.5086 21.606 19.3804 21.6809 19.2511 21.7541C19.0887 21.8434 18.9236 21.9326 18.7565 22.0219C18.6089 22.0951 18.4585 22.1638 18.3072 22.2317C18.1559 22.2995 17.9888 22.3718 17.8255 22.4352C17.6622 22.4986 17.4887 22.5583 17.318 22.6137C17.162 22.6654 17.0061 22.719 16.8483 22.7645C16.6638 22.818 16.4709 22.8618 16.2799 22.9064C16.1304 22.9403 15.9828 22.9787 15.8314 23.0073C15.6127 23.0484 15.3895 23.0769 15.1652 23.1064C15.0379 23.1224 14.9115 23.1448 14.7832 23.1573C14.4288 23.1903 14.0699 23.2099 13.7073 23.2099C13.3446 23.2099 12.9857 23.1903 12.6313 23.1573C12.5031 23.1448 12.3767 23.1224 12.2493 23.1064C12.0251 23.0769 11.8018 23.0484 11.5831 23.0073C11.4317 22.9788 11.2841 22.9404 11.1346 22.9064C10.9436 22.8618 10.7535 22.8172 10.5662 22.7645C10.4085 22.719 10.2525 22.6654 10.0965 22.6137C9.92585 22.5566 9.75511 22.4985 9.58901 22.4352C9.42292 22.3718 9.26607 22.3022 9.10733 22.2317C8.94859 22.1612 8.80558 22.0951 8.65798 22.0219C8.49096 21.938 8.32579 21.8496 8.16337 21.7541C8.0342 21.681 7.9059 21.606 7.78041 21.5283C7.60788 21.4221 7.43806 21.3114 7.27105 21.1945C7.16491 21.1213 7.06159 21.0454 6.95821 20.9687C6.78287 20.8374 6.60943 20.7009 6.44149 20.559C6.40089 20.5295 6.36396 20.492 6.32433 20.4581C6.36558 17.4218 8.38213 14.7407 11.3561 13.7683C12.8431 14.4525 14.5696 14.4525 16.0566 13.7683C19.0305 14.7407 21.047 17.4217 21.0883 20.4581C21.0496 20.492 21.0127 20.526 20.973 20.559ZM10.4886 7.15701C11.4877 5.43827 13.7381 4.82842 15.5149 5.79484C17.2918 6.76127 17.9223 8.93799 16.9232 10.6567C16.5917 11.227 16.1045 11.6982 15.5149 12.0189C15.5103 12.0189 15.5048 12.0189 15.4993 12.0242C15.2546 12.156 14.9959 12.2619 14.7278 12.3402C14.6799 12.3536 14.6355 12.3714 14.5848 12.3831C14.4925 12.4063 14.3956 12.4223 14.3006 12.4384C14.1216 12.4687 13.9406 12.4862 13.7589 12.4911H13.6537C13.4721 12.4862 13.291 12.4687 13.1121 12.4384C13.0198 12.4223 12.922 12.4063 12.8279 12.3831C12.779 12.3714 12.7356 12.3536 12.6849 12.3402C12.4168 12.2619 12.1582 12.156 11.9135 12.0242L11.8969 12.0189C10.12 11.0525 9.48953 8.87575 10.4886 7.15701ZM22.7253 18.6882C22.1331 16.0166 20.3144 13.7517 17.7849 12.5358C19.8527 10.357 19.7029 6.96921 17.4504 4.96905C15.1979 2.96888 11.6956 3.11375 9.62784 5.29257C7.6839 7.34089 7.6839 10.4875 9.62784 12.5358C7.0983 13.7518 5.27959 16.0166 4.68745 18.6882C1.14907 13.8671 2.32103 7.18431 7.30511 3.76168C12.2892 0.339047 19.198 1.47267 22.7364 6.29372C24.0665 8.10602 24.7805 10.2739 24.7794 12.4964C24.7794 14.7171 24.0611 16.8821 22.7253 18.6882Z" fill="#427583"/>
</g>
<defs>
<clipPath id="clip0_519_239">
<rect width="25.8454" height="25" fill="white" transform="translate(0.787598)"/>
</clipPath>
</defs>
</svg>
