<svg width="35" height="35" viewBox="0 0 35 35" fill="none" xmlns="http://www.w3.org/2000/svg">
<path d="M32.4203 27.4469V30.3941H29.8415H20.6315V27.4469H26.1501H32.4203Z" fill="#F4661E"/>
<path d="M12.8949 21.7882C13.9633 22.3482 15.2085 22.6576 16.5789 22.6576C17.9494 22.6576 19.1946 22.3408 20.263 21.7882V24.1313C20.263 24.1313 18.7452 25.9733 16.5789 25.9733C14.4127 25.9733 12.8949 24.1313 12.8949 24.1313V21.7882Z" fill="#FEDAAB"/>
<path d="M23.5787 26.3417C24.5734 26.6586 25.4206 27.0048 26.1501 27.3806V27.4469H20.6314V30.3941H29.8414V30.5267C30.5709 31.7056 30.5783 32.6045 30.5783 32.6045C30.5783 32.6045 30.5783 33.415 30.5783 34.4464H2.57977C2.57977 33.4149 2.57977 32.6045 2.57977 32.6045C2.57977 32.6045 2.64608 28.5741 9.57944 26.3417C9.57944 26.3417 12.092 25.0302 12.8951 24.1313C12.8951 24.1313 14.4129 25.9732 16.5791 25.9732C18.7454 25.9732 20.2631 24.1313 20.2631 24.1313C21.0661 25.0302 23.5787 26.3417 23.5787 26.3417Z" fill="#4CBD91"/>
<path d="M20.263 21.7882C19.1946 22.3409 17.9494 22.6576 16.579 22.6576C15.2085 22.6576 13.9633 22.3482 12.8949 21.7882C10.5298 20.5578 8.97521 18.1411 8.57729 15.2601C7.43528 15.1054 6.26373 14.0223 6.26373 13.0792C6.26373 12.0625 7.25105 11.6056 8.47414 11.6056V10.132C8.47414 10.132 11.4213 10.132 14.737 6.81635C14.737 6.81635 19.5262 9.76353 24.6838 9.76353V11.6055C25.9069 11.6055 26.8942 12.0623 26.8942 13.0791C26.8942 14.0223 25.7227 15.1053 24.5807 15.26C24.1829 18.1411 22.6281 20.5578 20.263 21.7882Z" fill="#FEDAAB"/>
<path d="M14.737 6.81641C11.4214 10.132 8.47418 10.132 8.47418 10.132V9.76366C8.47418 9.76366 8.09103 0.55365 16.579 0.55365C25.0523 0.55365 24.6839 9.76366 24.6839 9.76366C19.5262 9.76359 14.737 6.81641 14.737 6.81641Z" fill="#A67C52"/>
<path d="M32.9738 26.8932H26.4011L26.4036 26.8885C25.6356 26.4929 24.7812 26.1461 23.7931 25.829C23.1354 25.4828 21.5153 24.565 20.8166 23.9056V22.1151C23.0506 20.8309 24.5794 18.5327 25.0689 15.7215C26.3409 15.3583 27.4478 14.1706 27.4478 13.0792C27.4478 11.9704 26.6148 11.2339 25.2374 11.0814V9.77377C25.2482 9.46075 25.3442 5.14911 22.6401 2.33468C21.1517 0.785519 19.1124 0 16.579 0C14.0389 0 11.9959 0.787023 10.5069 2.33919C7.8081 5.15267 7.9092 9.45713 7.92062 9.77404V11.0814C6.54311 11.2339 5.71021 11.9704 5.71021 13.0792C5.71021 14.1706 6.81723 15.3582 8.08906 15.7215C8.57865 18.5333 10.1079 20.8317 12.3414 22.1152V23.9055C11.643 24.5646 10.0214 25.4832 9.3641 25.8294C2.18211 28.1599 2.02919 32.415 2.02625 32.5954L2.02618 35H31.1318V32.5999C31.1315 32.5651 31.1199 31.8891 30.6929 30.9475H32.9738V26.8932H32.9738ZM13.4485 22.6457C14.4151 23.0207 15.4641 23.2112 16.579 23.2112C17.6851 23.2112 18.7339 23.0198 19.7094 22.6427V23.918C19.3313 24.3134 18.1339 25.4197 16.579 25.4197C15.0342 25.4197 13.8284 24.3112 13.4485 23.9169V22.6457ZM11.3106 3.10086C12.5824 1.77789 14.3549 1.10715 16.579 1.10715C18.7968 1.10715 20.5659 1.7766 21.8371 3.09682C23.7311 5.06394 24.0664 7.9954 24.1218 9.19757C19.4008 8.99768 15.0718 6.37241 15.0272 6.34492L14.6549 6.11585L14.3457 6.42497C12.0768 8.69383 9.98726 9.33087 9.02627 9.50929C9.03755 8.60646 9.22594 5.26936 11.3106 3.10086ZM9.12566 15.1845L9.06817 14.7681L8.65166 14.7117C7.85069 14.6031 6.8173 13.792 6.8173 13.0792C6.8173 12.2256 8.0855 12.1592 8.47413 12.1592H9.0277V10.6344C10.0417 10.4829 12.316 9.8828 14.8221 7.50608C16.0181 8.17703 19.8684 10.1447 24.1305 10.3062L24.1302 12.1591H24.6837C25.0724 12.1591 26.3406 12.2254 26.3406 13.0792C26.3406 13.7919 25.3072 14.603 24.5063 14.7116L24.0897 14.768L24.0322 15.1844C23.6522 17.9362 22.1852 20.1641 20.0086 21.2966C18.9726 21.8325 17.8188 22.104 16.5789 22.104C15.3254 22.104 14.1724 21.8328 13.1503 21.2971C10.9727 20.1641 9.50574 17.9362 9.12566 15.1845ZM30.0247 32.6115V33.8929H3.13333V32.6147C3.13689 32.5499 3.19999 31.6617 3.98667 30.5509C5.37184 28.595 7.8848 27.4688 9.74917 26.8685L9.79388 26.8541L9.83557 26.8323C10.0648 26.7126 11.8454 25.7724 12.8763 24.909C13.5137 25.509 14.8497 26.5267 16.579 26.5267C18.3083 26.5267 19.6444 25.509 20.2818 24.909C21.3127 25.7723 23.0934 26.7126 23.3225 26.8323L23.365 26.8545L23.4107 26.869C23.4357 26.877 23.4596 26.8852 23.4844 26.8932H20.0779V30.9476H29.4475C29.9833 31.87 30.0228 32.5667 30.0247 32.6115ZM31.8667 29.8406H21.185V28.0005H31.8667V29.8406H31.8667Z" fill="#231F20"/>
</svg>
